<?xml version="1.0" standalone="no"?>
<!DOCTYPE svg PUBLIC "-//W3C//DTD SVG 1.1//EN" "http://www.w3.org/Graphics/SVG/1.1/DTD/svg11.dtd" >
<svg xmlns="http://www.w3.org/2000/svg" xmlns:xlink="http://www.w3.org/1999/xlink" version="1.1">
<metadata>
Created by FontForge 20190801 at Fri May 27 02:01:46 2022
 By sardor
Copyright 2011 Google Inc. All Rights Reserved.
</metadata>
<defs>
<font id="Roboto-Black" horiz-adv-x="1395" >
  <font-face 
    font-family="Roboto Black"
    font-weight="900"
    font-stretch="normal"
    units-per-em="2048"
    panose-1="2 0 10 3 0 0 0 0 0 0"
    ascent="1536"
    descent="-512"
    x-height="1082"
    cap-height="1456"
    bbox="-1476 -555 2482 2163"
    underline-thickness="100"
    underline-position="-200"
    unicode-range="U+0002-FFFD"
  />
<missing-glyph horiz-adv-x="908" 
d="M808 0h-708v1456h708v-1456zM754 84v1287l-274 -643zM154 1359v-1263l268 632zM194 54h515l-258 606zM451 796l258 606h-515z" />
    <glyph glyph-name=".notdef" horiz-adv-x="908" 
d="M808 0h-708v1456h708v-1456zM754 84v1287l-274 -643zM154 1359v-1263l268 632zM194 54h515l-258 606zM451 796l258 606h-515z" />
    <glyph glyph-name="uni0002" horiz-adv-x="0" 
 />
    <glyph glyph-name="uni000D" unicode="&#xd;" horiz-adv-x="510" 
 />
    <glyph glyph-name="space" unicode=" " horiz-adv-x="510" 
 />
    <glyph glyph-name="exclam" unicode="!" horiz-adv-x="565" 
d="M429 461h-273l-43 995h359zM103 151c0 49 18 90 53 121c36 32 81 48 134 48s98 -16 134 -48c35 -31 53 -72 53 -121s-18 -90 -53 -121c-36 -32 -81 -48 -134 -48s-98 16 -134 48c-35 31 -53 72 -53 121z" />
    <glyph glyph-name="quotedbl" unicode="&#x22;" horiz-adv-x="649" 
d="M255 1398l-43 -429h-187v568h230v-139zM606 1398l-43 -429h-185v568h228v-139z" />
    <glyph glyph-name="numbersign" unicode="#" horiz-adv-x="1190" 
d="M612 410h-161l-67 -410h-199l67 410h-222v183h252l44 264h-221v183h251l69 416h198l-68 -416h161l69 416h199l-69 -416h231v-183h-261l-44 -264h229v-183h-259l-67 -410h-199zM481 593h161l44 264h-161z" />
    <glyph glyph-name="dollar" unicode="$" horiz-adv-x="1186" 
d="M760 386c0 53 -13 94 -39 124s-72 58 -137 85s-126 54 -181 81s-103 59 -143 95s-71 78 -92 125s-32 105 -32 172c0 113 38 206 114 278c76 74 177 116 304 128v211h159v-215c122 -18 218 -68 287 -150c70 -83 105 -187 105 -314h-338c0 69 -13 123 -40 160
s-65 56 -114 56c-44 0 -78 -14 -103 -42c-24 -27 -36 -65 -36 -114s14 -88 42 -118c28 -28 73 -56 135 -82c62 -27 121 -54 175 -82c56 -29 103 -61 143 -97s71 -78 94 -126s34 -106 34 -173c0 -114 -36 -207 -109 -279c-72 -72 -170 -114 -295 -126v-201h-159v202
c-145 15 -257 65 -334 150c-78 84 -117 195 -117 333h337c0 -76 17 -134 50 -173c34 -40 82 -60 144 -60c45 0 81 14 107 40c26 28 39 65 39 112z" />
    <glyph glyph-name="percent" unicode="%" horiz-adv-x="1520" 
d="M90 1176c0 90 29 163 88 218s137 83 236 83c100 0 179 -27 237 -83c58 -54 87 -129 87 -223v-72c0 -90 -29 -162 -87 -217s-136 -82 -235 -82c-98 0 -177 27 -236 82c-60 54 -90 128 -90 223v71zM307 1099c0 -35 10 -63 29 -85c19 -21 46 -32 80 -32c70 0 105 45 105 134
v60c0 35 -9 63 -28 86c-19 22 -45 33 -79 33c-33 0 -59 -11 -78 -33c-19 -21 -29 -51 -29 -88v-75zM782 357c0 91 30 163 88 218c60 55 138 82 236 82c99 0 178 -27 237 -81s88 -129 88 -226v-70c0 -91 -29 -163 -87 -218s-137 -82 -236 -82c-98 0 -177 27 -236 82
c-60 54 -90 128 -90 223v72zM998 280c0 -31 11 -59 32 -82c21 -24 47 -36 78 -36c65 0 100 31 105 92l1 103c0 35 -10 64 -29 85c-19 22 -46 33 -79 33c-32 0 -58 -10 -77 -31c-19 -20 -30 -47 -31 -82v-82zM480 109l-157 79l711 1138l157 -79z" />
    <glyph glyph-name="ampersand" unicode="&#x26;" horiz-adv-x="1380" 
d="M311 767c-39 56 -70 109 -93 160c-22 51 -33 103 -33 157c0 117 38 212 114 284c76 73 175 109 298 109c110 0 201 -33 273 -101c72 -66 108 -150 108 -249c0 -124 -68 -234 -205 -330l-76 -53l224 -257c37 73 55 154 55 241h283c0 -197 -45 -354 -136 -473l222 -255
h-376l-68 77c-56 -33 -113 -58 -171 -74c-59 -16 -125 -24 -198 -24c-144 0 -259 38 -346 113c-87 76 -130 176 -130 299c0 67 17 128 52 183c34 55 101 118 200 191zM554 239c59 0 115 14 168 41l-262 298l-9 -6c-38 -47 -57 -99 -57 -158c0 -49 15 -90 46 -124
s69 -51 114 -51zM476 1088c0 -47 25 -103 76 -170l67 42c31 20 53 41 67 62s21 48 21 81c0 31 -11 57 -32 80s-48 34 -79 34c-37 0 -67 -12 -88 -35c-21 -24 -32 -55 -32 -94z" />
    <glyph glyph-name="quotesingle" unicode="'" horiz-adv-x="316" 
d="M283 1374l-33 -413h-207v575h240v-162z" />
    <glyph glyph-name="parenleft" unicode="(" horiz-adv-x="723" 
d="M120 592c0 163 22 314 65 454s103 259 179 356c77 97 162 165 255 204l64 -166c-93 -69 -165 -176 -217 -322c-50 -145 -76 -316 -77 -512v-44c0 -201 25 -375 77 -522c50 -147 123 -255 217 -324l-64 -166c-92 37 -177 106 -255 204c-77 100 -137 218 -179 355
s-64 283 -65 438v45z" />
    <glyph glyph-name="parenright" unicode=")" horiz-adv-x="721" 
d="M626 564c0 -157 -23 -305 -69 -446s-109 -262 -191 -362c-80 -102 -168 -170 -262 -206l-64 166c93 69 164 176 215 320s77 310 79 497v61c0 201 -26 375 -76 522c-52 147 -124 255 -218 324l64 166c93 -37 180 -104 260 -204c81 -98 144 -218 190 -356
c47 -140 71 -285 72 -438v-44z" />
    <glyph glyph-name="asterisk" unicode="*" horiz-adv-x="952" 
d="M352 956l-326 90l65 189l319 -131l-25 352h214l-26 -359l310 128l65 -191l-330 -90l219 -265l-173 -118l-183 294l-184 -284l-173 113z" />
    <glyph glyph-name="plus" unicode="+" horiz-adv-x="1094" 
d="M702 826h341v-289h-341v-391h-315v391h-342v289h342v380h315v-380z" />
    <glyph glyph-name="comma" unicode="," horiz-adv-x="552" 
d="M213 -392l-170 80l34 68c47 87 71 169 73 248v250h270l-1 -217c-1 -77 -20 -155 -59 -234s-88 -144 -147 -195z" />
    <glyph glyph-name="hyphen" unicode="-" horiz-adv-x="921" 
d="M753 497h-601v261h601v-261z" />
    <glyph glyph-name="period" unicode="." horiz-adv-x="619" 
d="M303 327c53 0 98 -16 133 -47c35 -32 53 -73 53 -122s-18 -90 -53 -122c-35 -31 -80 -47 -133 -47c-54 0 -99 16 -133 48c-36 32 -53 72 -53 121s17 89 53 121c34 32 79 48 133 48z" />
    <glyph glyph-name="slash" unicode="/" horiz-adv-x="719" 
d="M210 -125h-239l497 1581h240z" />
    <glyph glyph-name="zero" unicode="0" horiz-adv-x="1186" 
d="M1100 595c0 -197 -44 -348 -132 -455c-89 -107 -213 -160 -374 -160c-162 0 -287 54 -376 161s-133 259 -133 454v266c0 197 44 348 133 455c88 107 213 160 374 160s286 -54 375 -161s133 -259 133 -455v-265zM763 904c0 105 -14 183 -41 234c-27 52 -71 78 -130 78
c-58 0 -100 -24 -126 -72c-27 -48 -41 -121 -43 -218v-372c0 -109 14 -188 41 -238c27 -51 71 -76 130 -76c57 0 100 24 127 74c27 48 41 125 42 230v360z" />
    <glyph glyph-name="one" unicode="1" horiz-adv-x="1186" 
d="M836 0h-338v1076l-332 -97v256l639 221h31v-1456z" />
    <glyph glyph-name="two" unicode="2" horiz-adv-x="1186" 
d="M1105 0h-1016v220l468 492c115 131 173 236 173 313c0 63 -14 110 -41 143s-67 49 -119 49c-51 0 -93 -22 -125 -65c-32 -44 -48 -99 -48 -164h-338c0 89 22 172 67 248c45 75 107 134 186 177s168 64 266 64c157 0 278 -36 364 -109c84 -73 127 -177 127 -313
c0 -57 -11 -113 -32 -167c-21 -55 -55 -112 -99 -172c-46 -59 -118 -139 -218 -239l-188 -217h573v-260z" />
    <glyph glyph-name="three" unicode="3" horiz-adv-x="1186" 
d="M397 869h159c126 0 189 62 189 185c0 48 -15 87 -45 118c-30 30 -72 45 -127 45c-45 0 -83 -13 -117 -39c-32 -26 -49 -58 -49 -97h-337c0 77 21 145 64 205s102 107 178 140c75 34 158 51 249 51c162 0 289 -37 382 -111s139 -176 139 -305c0 -63 -19 -122 -58 -177
c-38 -56 -94 -101 -167 -136c77 -28 138 -70 182 -128c44 -56 66 -127 66 -211c0 -130 -50 -234 -150 -312s-231 -117 -394 -117c-95 0 -184 18 -265 54c-82 37 -144 87 -186 152c-42 64 -63 137 -63 219h339c0 -45 18 -83 54 -116s80 -49 133 -49c59 0 107 16 142 50
c35 32 53 75 53 126c0 73 -18 125 -55 156s-87 46 -152 46h-164v251z" />
    <glyph glyph-name="four" unicode="4" horiz-adv-x="1186" 
d="M979 569h148v-260h-148v-309h-337v309h-563l-20 206l583 938v3h337v-887zM380 569h262v448l-21 -34z" />
    <glyph glyph-name="five" unicode="5" horiz-adv-x="1186" 
d="M109 712l89 744h851v-262h-577l-33 -289c24 14 55 26 95 37c38 11 77 16 114 16c145 0 256 -43 334 -128c77 -86 116 -206 116 -361c0 -93 -21 -178 -62 -253c-42 -76 -101 -134 -176 -175s-164 -61 -267 -61c-91 0 -177 19 -257 56c-80 38 -143 90 -188 156
c-45 65 -68 139 -67 222h338c3 -53 20 -96 51 -127s71 -47 121 -47c113 0 170 84 170 252c0 155 -69 233 -208 233c-79 0 -137 -25 -176 -76z" />
    <glyph glyph-name="six" unicode="6" horiz-adv-x="1186" 
d="M903 1477v-265h-15c-126 0 -230 -30 -310 -90c-82 -61 -131 -145 -150 -252c76 75 172 112 288 112c126 0 226 -46 301 -138s112 -213 112 -362c0 -93 -22 -178 -65 -255c-44 -77 -105 -138 -184 -181c-78 -44 -165 -66 -260 -66c-103 0 -196 24 -277 70
c-81 48 -145 115 -190 202s-69 188 -70 302v135c0 150 32 285 97 405c64 119 156 213 275 281s252 102 397 102h51zM599 724c-45 0 -82 -10 -112 -31s-52 -46 -67 -76v-101c0 -184 64 -276 191 -276c51 0 94 23 129 69c34 46 51 104 51 173c0 71 -17 130 -53 174
c-34 46 -81 68 -139 68z" />
    <glyph glyph-name="seven" unicode="7" horiz-adv-x="1186" 
d="M1101 1276l-544 -1276h-356l545 1196h-694v260h1049v-180z" />
    <glyph glyph-name="eight" unicode="8" horiz-adv-x="1186" 
d="M1071 1067c0 -71 -17 -133 -53 -187c-34 -54 -83 -97 -144 -130c69 -34 124 -80 165 -140c41 -58 61 -128 61 -209c0 -130 -45 -233 -134 -308c-90 -75 -214 -113 -371 -113c-158 0 -283 38 -374 114c-91 75 -137 178 -137 307c0 78 20 147 60 207s97 107 170 142
c-62 33 -111 76 -146 130s-53 116 -53 187c0 127 43 227 129 300s202 110 348 110c147 0 264 -37 350 -110s129 -173 129 -300zM762 428c0 60 -16 106 -46 138c-32 33 -72 49 -123 49s-92 -16 -123 -49c-31 -32 -47 -78 -47 -138c0 -58 16 -104 47 -138
c32 -33 74 -50 125 -50c50 0 90 17 121 50s46 79 46 138zM592 1217c-45 0 -80 -15 -104 -45c-23 -29 -35 -70 -35 -123c0 -52 12 -94 36 -126s59 -48 106 -48c46 0 81 16 103 48c24 32 35 74 35 126s-12 93 -35 123c-24 30 -59 45 -106 45z" />
    <glyph glyph-name="nine" unicode="9" horiz-adv-x="1186" 
d="M753 563c-73 -65 -154 -98 -244 -98c-132 0 -237 45 -314 134s-116 209 -116 358c0 93 22 180 65 260s104 143 182 190c79 47 165 70 260 70c96 0 183 -24 260 -73c78 -48 139 -116 182 -204c43 -89 66 -191 67 -306v-129c0 -161 -31 -300 -95 -418
c-62 -118 -152 -209 -269 -272s-253 -95 -408 -95h-21v270l64 1c232 11 361 115 387 312zM600 708c73 0 126 32 158 95v140c0 93 -16 162 -47 207s-74 67 -127 67c-47 0 -87 -25 -119 -76s-48 -112 -48 -184c0 -76 16 -137 49 -181c33 -46 77 -68 134 -68z" />
    <glyph glyph-name="colon" unicode=":" horiz-adv-x="615" 
d="M304 327c53 0 98 -16 133 -47c35 -32 53 -73 53 -122s-18 -90 -53 -122c-35 -31 -80 -47 -133 -47c-54 0 -98 16 -134 48c-34 32 -52 72 -52 121s18 89 52 121c36 32 80 48 134 48zM304 1125c53 0 98 -16 133 -47c35 -32 53 -73 53 -122s-18 -90 -53 -122
c-35 -31 -80 -47 -133 -47c-54 0 -98 16 -134 48c-34 32 -52 72 -52 121s18 89 52 121c36 32 80 48 134 48z" />
    <glyph glyph-name="semicolon" unicode=";" horiz-adv-x="590" 
d="M294 1125c53 0 98 -16 133 -47c35 -32 53 -73 53 -122s-18 -90 -53 -122c-35 -31 -80 -47 -133 -47c-54 0 -98 16 -134 48c-34 32 -52 72 -52 121s18 89 52 121c36 32 80 48 134 48zM238 -392l-170 80l34 68c47 87 71 169 73 248v250h270l-1 -217
c-1 -77 -20 -155 -59 -234s-88 -144 -147 -195z" />
    <glyph glyph-name="less" unicode="&#x3c;" horiz-adv-x="1044" 
d="M383 609l547 -184v-307l-884 360v266l884 360v-306z" />
    <glyph glyph-name="equal" unicode="=" horiz-adv-x="1199" 
d="M1054 722h-926v260h926v-260zM1054 283h-926v260h926v-260z" />
    <glyph glyph-name="greater" unicode="&#x3e;" horiz-adv-x="1050" 
d="M655 612l-544 185v306l879 -360v-266l-879 -360v306z" />
    <glyph glyph-name="question" unicode="?" horiz-adv-x="1043" 
d="M344 461c0 97 11 174 33 231c22 56 58 105 107 146s87 79 112 114c26 34 39 72 39 113c0 101 -43 151 -130 151c-40 0 -72 -15 -97 -44s-38 -69 -39 -119h-338c1 133 43 237 126 311c83 75 199 112 348 112s264 -34 345 -103c82 -69 123 -166 123 -293
c0 -55 -11 -106 -33 -151s-57 -92 -106 -139l-115 -107c-33 -31 -55 -63 -68 -97c-13 -32 -20 -74 -21 -125h-286zM303 157c0 49 18 90 53 121c36 32 81 48 134 48s98 -16 134 -48c35 -31 53 -72 53 -121s-18 -90 -53 -121c-36 -32 -81 -48 -134 -48s-98 16 -134 48
c-35 31 -53 72 -53 121z" />
    <glyph glyph-name="at" unicode="@" horiz-adv-x="1834" 
d="M1756 550c-7 -174 -50 -313 -130 -416s-187 -155 -320 -155c-55 0 -103 12 -145 35c-42 24 -75 58 -98 101c-65 -88 -153 -132 -263 -132c-64 0 -120 19 -168 57c-48 37 -83 91 -106 160c-22 69 -29 148 -20 236c20 167 74 301 161 402s194 152 321 152
c98 0 182 -23 253 -68l63 -42l-51 -587c-11 -93 21 -139 96 -139c57 0 104 36 143 108c38 73 59 165 63 278c11 223 -35 395 -139 516c-103 121 -255 182 -455 182c-127 0 -241 -32 -339 -98c-100 -64 -178 -156 -236 -276c-57 -118 -90 -254 -97 -406
c-11 -233 36 -412 140 -536c104 -123 260 -185 468 -185c56 0 115 7 178 19c63 14 114 29 153 46l37 -166c-41 -27 -95 -48 -165 -64c-68 -17 -138 -25 -207 -25c-182 0 -336 35 -461 105c-126 69 -220 172 -281 309s-89 302 -82 497c8 184 51 349 127 494
c78 146 183 259 316 338c134 80 285 120 453 120s313 -35 435 -104c122 -70 214 -170 275 -301s88 -282 81 -455zM756 436c-7 -87 0 -152 20 -196c22 -45 55 -67 102 -67c31 0 60 14 86 42c27 28 49 68 66 120l40 456c-20 5 -41 8 -62 8c-75 0 -132 -29 -172 -87
c-41 -59 -67 -151 -80 -276z" />
    <glyph glyph-name="A" unicode="A" 
d="M937 272h-481l-84 -272h-375l534 1456h330l538 -1456h-377zM540 543h313l-157 505z" />
    <glyph glyph-name="B" unicode="B" horiz-adv-x="1321" 
d="M110 0v1456h523c187 0 330 -34 427 -103c98 -69 147 -168 147 -299c0 -75 -17 -140 -52 -193s-86 -93 -153 -118c76 -20 134 -57 175 -112s61 -121 61 -200c0 -143 -45 -250 -136 -321c-90 -72 -224 -109 -401 -110h-591zM461 619v-349h230c63 0 112 14 146 44
c34 28 51 69 51 122c0 121 -60 182 -181 183h-246zM461 849h183c77 1 131 15 164 42s49 68 49 121c0 61 -18 106 -53 132c-35 28 -92 41 -171 41h-172v-336z" />
    <glyph glyph-name="C" unicode="C" horiz-adv-x="1344" 
d="M1288 493c-5 -101 -32 -191 -82 -269c-50 -77 -120 -137 -210 -180c-91 -43 -194 -64 -310 -64c-191 0 -342 62 -452 187s-165 301 -165 528v72c0 143 25 267 75 375c49 106 121 189 214 248c93 58 201 87 324 87c177 0 319 -47 426 -139c107 -94 168 -222 183 -385h-350
c-3 89 -25 152 -67 191s-106 58 -192 58c-87 0 -151 -33 -192 -98s-62 -170 -64 -313v-103c0 -155 20 -266 58 -333c40 -67 107 -100 202 -100c81 0 142 19 185 57s65 98 68 181h349z" />
    <glyph glyph-name="D" unicode="D" horiz-adv-x="1324" 
d="M110 0v1456h469c129 0 244 -29 347 -88c103 -58 183 -140 240 -246c58 -107 87 -226 88 -358v-67c0 -133 -28 -253 -84 -359c-57 -105 -136 -188 -238 -248c-103 -59 -217 -89 -343 -90h-479zM461 1185v-915h122c101 0 178 36 232 108c54 71 81 178 81 319v63
c0 141 -27 247 -81 318s-133 107 -236 107h-118z" />
    <glyph glyph-name="E" unicode="E" horiz-adv-x="1146" 
d="M1013 617h-552v-347h652v-270h-1003v1456h1005v-271h-654v-307h552v-261z" />
    <glyph glyph-name="F" unicode="F" horiz-adv-x="1120" 
d="M1027 580h-566v-580h-351v1456h974v-271h-623v-335h566v-270z" />
    <glyph glyph-name="G" unicode="G" horiz-adv-x="1396" 
d="M1302 180c-54 -60 -133 -108 -237 -145s-218 -55 -342 -55c-191 0 -343 58 -457 175s-175 279 -183 487l-1 126c0 143 25 268 76 376c51 106 123 189 218 246c94 58 203 87 327 87c181 0 322 -41 423 -125c100 -82 158 -206 175 -371h-338c-12 81 -38 139 -78 174
s-97 52 -170 52c-88 0 -156 -37 -204 -112s-72 -181 -73 -320v-88c0 -145 25 -255 74 -327c50 -74 128 -110 235 -110c91 0 159 20 204 61v226h-244v241h595v-598z" />
    <glyph glyph-name="H" unicode="H" horiz-adv-x="1439" 
d="M1327 0h-349v608h-517v-608h-351v1456h351v-578h517v578h349v-1456z" />
    <glyph glyph-name="I" unicode="I" horiz-adv-x="618" 
d="M484 0h-350v1456h350v-1456z" />
    <glyph glyph-name="J" unicode="J" horiz-adv-x="1151" 
d="M690 1456h350v-999c0 -93 -22 -175 -64 -248c-44 -73 -104 -129 -180 -169c-78 -40 -163 -60 -258 -60c-159 0 -282 40 -370 120s-132 193 -132 340h352c0 -67 12 -115 34 -145c24 -30 62 -45 116 -45c49 0 86 18 112 54c27 37 40 88 40 153v999z" />
    <glyph glyph-name="K" unicode="K" horiz-adv-x="1310" 
d="M605 542l-144 -158v-384h-351v1456h351v-642l122 185l314 457h434l-492 -644l492 -812h-416z" />
    <glyph glyph-name="L" unicode="L" horiz-adv-x="1110" 
d="M461 270h611v-270h-962v1456h351v-1186z" />
    <glyph glyph-name="M" unicode="M" horiz-adv-x="1795" 
d="M571 1456l325 -1013l324 1013h462v-1456h-352v340l34 696l-352 -1036h-232l-353 1037l34 -697v-340h-351v1456h461z" />
    <glyph glyph-name="N" unicode="N" horiz-adv-x="1438" 
d="M1326 0h-349l-516 906v-906h-351v1456h351l515 -906v906h350v-1456z" />
    <glyph glyph-name="O" unicode="O" horiz-adv-x="1414" 
d="M1343 698c0 -142 -26 -268 -79 -377s-128 -193 -224 -253c-98 -58 -208 -88 -332 -88s-234 28 -330 86c-96 56 -171 138 -224 244c-54 106 -82 228 -85 365v82c0 143 26 269 79 377c52 110 127 194 224 253c98 59 209 89 334 89c123 0 233 -29 330 -88s172 -142 226 -250
c53 -109 80 -233 81 -373v-67zM986 759c0 145 -24 255 -72 329c-49 76 -118 113 -208 113c-176 0 -269 -132 -279 -396l-1 -107c0 -143 24 -252 71 -329s118 -115 211 -115c89 0 157 38 205 113s72 184 73 325v67z" />
    <glyph glyph-name="P" unicode="P" horiz-adv-x="1333" 
d="M461 494v-494h-351v1456h581c111 0 210 -20 295 -62c86 -40 152 -99 200 -174c46 -76 70 -162 70 -258c0 -142 -51 -256 -152 -340c-102 -86 -242 -128 -419 -128h-224zM461 765h230c68 0 120 17 155 51c36 34 54 82 54 144c0 68 -18 122 -55 163s-87 61 -150 62h-234
v-420z" />
    <glyph glyph-name="Q" unicode="Q" horiz-adv-x="1414" 
d="M1345 698c0 -135 -22 -252 -67 -352c-45 -101 -106 -181 -185 -242l235 -186l-217 -184l-313 252c-29 -4 -59 -6 -88 -6c-124 0 -234 29 -330 86s-171 139 -224 246c-54 107 -82 229 -84 368v77c0 143 26 269 78 378c53 109 128 193 224 252c98 59 209 89 334 89
c123 0 233 -29 330 -88s172 -142 226 -250c53 -109 80 -233 81 -373v-67zM988 759c0 145 -24 255 -72 329c-49 76 -118 113 -208 113c-93 0 -162 -37 -209 -111s-70 -182 -71 -325v-67c0 -143 24 -253 71 -330c47 -76 118 -114 211 -114c89 0 158 38 206 113
c47 75 71 184 72 325v67z" />
    <glyph glyph-name="R" unicode="R" horiz-adv-x="1336" 
d="M651 514h-190v-514h-351v1456h573c173 0 308 -38 405 -115s146 -185 146 -325c0 -101 -20 -185 -62 -252c-40 -67 -105 -121 -192 -162l304 -587v-15h-376zM461 785h222c67 0 117 17 151 53c33 34 50 83 50 146s-17 112 -51 148c-34 35 -84 53 -150 53h-222v-400z" />
    <glyph glyph-name="S" unicode="S" horiz-adv-x="1282" 
d="M861 387c0 51 -18 91 -55 120c-36 29 -100 58 -191 89s-166 60 -224 89c-189 93 -283 220 -283 382c0 81 24 152 70 213c48 62 114 110 200 144c86 35 183 52 290 52c105 0 198 -19 282 -56c82 -37 147 -90 193 -160c46 -68 69 -147 69 -236h-350c0 59 -18 105 -54 138
c-37 33 -86 49 -148 49c-63 0 -112 -14 -148 -41c-37 -28 -55 -63 -55 -106c0 -37 20 -71 60 -102c40 -30 110 -61 211 -94c101 -32 183 -67 248 -104c157 -91 236 -216 236 -375c0 -127 -48 -227 -144 -300s-228 -109 -395 -109c-118 0 -225 21 -321 64
c-95 42 -167 100 -216 174c-48 73 -72 158 -72 254h352c0 -78 20 -136 60 -172c41 -38 106 -56 197 -56c58 0 104 12 137 38c34 24 51 60 51 105z" />
    <glyph glyph-name="T" unicode="T" horiz-adv-x="1291" 
d="M1253 1185h-437v-1185h-351v1185h-429v271h1217v-271z" />
    <glyph glyph-name="U" unicode="U" horiz-adv-x="1361" 
d="M1252 1456v-953c0 -108 -23 -201 -69 -281c-46 -78 -112 -139 -198 -180s-188 -62 -305 -62c-177 0 -317 46 -419 138s-154 218 -156 378v960h353v-967c4 -159 78 -239 222 -239c73 0 128 20 165 60s56 105 56 195v951h351z" />
    <glyph glyph-name="V" unicode="V" horiz-adv-x="1353" 
d="M675 396l290 1060h392l-490 -1456h-384l-486 1456h389z" />
    <glyph glyph-name="W" unicode="W" horiz-adv-x="1780" 
d="M1238 543l167 913h348l-309 -1456h-364l-195 830l-191 -830h-363l-310 1456h349l167 -913l200 913h298z" />
    <glyph glyph-name="X" unicode="X" horiz-adv-x="1307" 
d="M653 972l238 484h401l-407 -722l418 -734h-405l-245 493l-245 -493h-404l417 734l-406 722h400z" />
    <glyph glyph-name="Y" unicode="Y" horiz-adv-x="1286" 
d="M643 824l268 632h379l-469 -933v-523h-356v523l-468 933h377z" />
    <glyph glyph-name="Z" unicode="Z" horiz-adv-x="1249" 
d="M504 270h696v-270h-1134v185l694 1000h-698v271h1131v-180z" />
    <glyph glyph-name="bracketleft" unicode="[" horiz-adv-x="577" 
d="M564 1460h-118v-1564h118v-245h-456v2055h456v-246z" />
    <glyph glyph-name="backslash" unicode="\" horiz-adv-x="873" 
d="M-20 1456h351l608 -1581h-353z" />
    <glyph glyph-name="bracketright" unicode="]" horiz-adv-x="577" 
d="M14 1706h456v-2055h-456v245h119v1564h-119v246z" />
    <glyph glyph-name="asciicircum" unicode="^" horiz-adv-x="916" 
d="M460 1182l-171 -453h-253l299 727h249l300 -727h-254z" />
    <glyph glyph-name="underscore" unicode="_" horiz-adv-x="904" 
d="M903 -251h-903v251h903v-251z" />
    <glyph glyph-name="grave" unicode="`" horiz-adv-x="695" 
d="M610 1222h-274l-282 314h356z" />
    <glyph glyph-name="a" unicode="a" horiz-adv-x="1087" 
d="M704 0c-12 22 -23 54 -32 97c-62 -78 -149 -117 -260 -117c-102 0 -189 31 -260 92c-71 62 -107 140 -107 233c0 117 43 206 130 266s213 90 378 90h104v57c0 99 -43 149 -129 149c-80 0 -120 -39 -120 -118h-337c0 105 45 190 133 255c90 65 203 98 341 98
s247 -34 327 -101s121 -160 123 -277v-479c1 -99 17 -175 46 -228v-17h-337zM493 220c42 0 77 9 105 27c27 18 47 38 59 61v173h-98c-117 0 -176 -53 -176 -158c0 -31 10 -55 31 -75c21 -18 47 -28 79 -28z" />
    <glyph glyph-name="b" unicode="b" horiz-adv-x="1153" 
d="M1099 532c0 -177 -37 -314 -110 -409s-177 -143 -310 -143c-110 0 -199 44 -266 131l-14 -111h-302v1536h337v-541c63 71 144 107 243 107c135 0 239 -48 312 -145s110 -233 110 -408v-17zM761 553c0 104 -14 178 -41 223c-28 44 -71 66 -128 66c-76 0 -129 -29 -158 -87
v-430c29 -57 82 -86 160 -86c79 0 130 39 151 116c11 38 16 104 16 198z" />
    <glyph glyph-name="c" unicode="c" horiz-adv-x="1064" 
d="M552 240c47 0 84 13 110 38c26 26 39 62 38 108h316c0 -119 -42 -216 -128 -292c-84 -76 -194 -114 -328 -114c-157 0 -281 49 -372 148s-136 235 -136 410v14c0 109 20 206 60 290c41 83 99 148 175 192c76 46 166 68 270 68c141 0 252 -39 335 -117s124 -184 124 -317
h-316c0 56 -14 99 -41 129s-64 45 -110 45c-87 0 -138 -56 -153 -167c-5 -35 -7 -84 -7 -146c0 -109 13 -184 39 -226s67 -63 124 -63z" />
    <glyph glyph-name="d" unicode="d" horiz-adv-x="1152" 
d="M52 549c0 171 37 306 111 405s177 148 310 148c97 0 178 -38 244 -114v548h338v-1536h-303l-17 116c-69 -91 -157 -136 -264 -136c-129 0 -231 49 -306 148s-113 239 -113 421zM389 528c0 -192 56 -288 168 -288c75 0 128 31 160 94v412c-31 64 -83 96 -158 96
c-104 0 -160 -84 -169 -252z" />
    <glyph glyph-name="e" unicode="e" horiz-adv-x="1115" 
d="M618 -20c-166 0 -300 50 -403 148c-103 100 -154 228 -154 387v28c0 111 21 208 61 293c42 85 101 150 180 196c79 47 172 70 280 70c152 0 272 -47 360 -142c88 -94 132 -225 132 -394v-131h-670c12 -61 38 -108 79 -143s93 -52 158 -52c107 0 190 37 250 112l154 -182
c-42 -58 -101 -104 -179 -138c-76 -35 -159 -52 -248 -52zM580 842c-99 0 -157 -65 -176 -196h340v26c1 54 -12 96 -41 126c-29 29 -70 44 -123 44z" />
    <glyph glyph-name="f" unicode="f" horiz-adv-x="742" 
d="M169 0v848h-157v234h157v86c0 123 36 219 109 287s175 102 306 102c48 0 101 -7 158 -21l1 -248c-21 6 -48 9 -83 9c-102 0 -153 -44 -153 -132v-83h211v-234h-211v-848h-338z" />
    <glyph glyph-name="g" unicode="g" horiz-adv-x="1178" 
d="M55 549c0 109 18 206 54 290s88 149 155 195c67 45 146 68 235 68c113 0 201 -38 264 -114l12 94h306v-1041c0 -95 -22 -178 -67 -249c-44 -70 -108 -124 -192 -162c-84 -37 -181 -56 -292 -56c-79 0 -156 15 -230 45c-75 30 -132 69 -171 117l141 198
c63 -74 145 -111 248 -111c149 0 224 77 224 230v34c-65 -71 -146 -107 -245 -107c-132 0 -239 50 -320 152c-81 100 -122 236 -122 405v12zM393 528c0 -89 17 -159 50 -210c33 -52 80 -78 140 -78c73 0 126 24 159 73v455c-33 49 -85 74 -157 74c-60 0 -107 -27 -141 -80
c-34 -54 -51 -132 -51 -234z" />
    <glyph glyph-name="h" unicode="h" horiz-adv-x="1156" 
d="M424 966c72 91 164 136 276 136c119 0 209 -35 270 -106s92 -175 93 -313v-683h-338v675c0 57 -12 99 -35 127c-23 26 -63 40 -119 40c-69 0 -118 -22 -147 -66v-776h-337v1536h337v-570z" />
    <glyph glyph-name="i" unicode="i" horiz-adv-x="563" 
d="M450 0h-338v1082h338v-1082zM92 1361c0 48 17 87 52 118s80 46 135 46s100 -15 135 -46s52 -70 52 -118s-17 -87 -52 -118s-80 -46 -135 -46s-100 15 -135 46s-52 70 -52 118z" />
    <glyph glyph-name="j" unicode="j" horiz-adv-x="553" 
d="M457 1082v-1119c-1 -128 -37 -227 -110 -296s-174 -104 -304 -104c-56 0 -109 6 -159 17v255c39 -6 70 -9 95 -9c93 0 140 46 140 139v1117h338zM94 1361c0 48 17 87 52 118s80 46 135 46s100 -15 135 -46s52 -70 52 -118s-17 -87 -52 -118s-80 -46 -135 -46
s-100 15 -135 46s-52 70 -52 118z" />
    <glyph glyph-name="k" unicode="k" horiz-adv-x="1120" 
d="M529 403l-95 -95v-308h-337v1537h337v-816l34 45l254 316h404l-379 -445l404 -637h-386z" />
    <glyph glyph-name="l" unicode="l" horiz-adv-x="563" 
d="M450 0h-338v1536h338v-1536z" />
    <glyph glyph-name="m" unicode="m" horiz-adv-x="1764" 
d="M413 1082l11 -127c77 98 180 147 309 147c137 0 229 -54 277 -163c73 109 179 163 318 163c219 0 332 -133 338 -398v-704h-338v683c0 55 -9 96 -28 121s-53 38 -102 38c-67 0 -116 -30 -149 -89l1 -14v-739h-338v681c0 57 -9 98 -27 123s-52 38 -103 38
c-65 0 -114 -30 -148 -89v-753h-337v1082h316z" />
    <glyph glyph-name="n" unicode="n" horiz-adv-x="1155" 
d="M404 1082l11 -127c75 98 178 147 309 147c113 0 197 -34 252 -101c56 -67 85 -169 87 -304v-697h-338v683c0 55 -11 95 -33 121c-22 25 -62 38 -120 38c-66 0 -115 -26 -147 -78v-764h-337v1082h316z" />
    <glyph glyph-name="o" unicode="o" horiz-adv-x="1150" 
d="M52 551c0 108 21 204 63 289c42 84 102 149 181 194s171 68 277 68c162 0 290 -50 383 -150c93 -101 140 -237 140 -410v-12c0 -169 -47 -302 -140 -402c-94 -98 -221 -148 -381 -148c-154 0 -278 46 -371 138c-93 93 -144 218 -151 376zM389 530c0 -100 16 -173 47 -220
s78 -70 139 -70c120 0 181 92 184 277v34c0 194 -62 291 -186 291c-113 0 -174 -84 -183 -251z" />
    <glyph glyph-name="p" unicode="p" horiz-adv-x="1153" 
d="M1099 533c0 -168 -38 -302 -113 -403c-76 -100 -178 -150 -307 -150c-99 0 -181 36 -245 109v-505h-337v1498h315l10 -100c65 80 150 120 255 120c133 0 237 -49 311 -148c74 -98 111 -233 111 -405v-16zM762 554c0 192 -56 288 -168 288c-80 0 -133 -29 -160 -86v-426
c29 -60 83 -90 162 -90c107 0 163 93 166 278v36z" />
    <glyph glyph-name="q" unicode="q" horiz-adv-x="1151" 
d="M52 552c0 172 37 307 112 404s178 146 309 146c111 0 199 -45 266 -136l24 116h292v-1498h-338v506c-65 -73 -147 -110 -246 -110c-128 0 -230 50 -305 148c-76 100 -114 241 -114 424zM389 531c0 -194 56 -291 168 -291c77 0 131 29 160 88v428c-28 57 -81 86 -158 86
c-105 0 -161 -84 -169 -251z" />
    <glyph glyph-name="r" unicode="r" horiz-adv-x="776" 
d="M749 777l-111 8c-106 0 -174 -33 -204 -100v-685h-337v1082h316l11 -139c57 106 136 159 237 159c36 0 67 -4 94 -12z" />
    <glyph glyph-name="s" unicode="s" horiz-adv-x="1049" 
d="M661 304c0 29 -15 52 -45 69s-87 35 -171 54s-153 43 -208 73c-55 31 -96 68 -125 111s-43 93 -43 149c0 99 41 181 123 246c82 64 189 96 322 96c143 0 257 -32 344 -97s130 -150 130 -255h-338c0 87 -46 130 -137 130c-35 0 -65 -10 -89 -30c-24 -19 -36 -44 -36 -73
c0 -30 15 -54 44 -73s76 -34 140 -46c65 -12 121 -26 170 -43c163 -56 244 -156 244 -301c0 -99 -44 -179 -132 -241c-87 -62 -201 -93 -340 -93c-93 0 -175 17 -248 50s-129 79 -170 136s-61 118 -61 181h315c1 -50 18 -87 50 -109c32 -24 73 -35 123 -35c46 0 81 9 103 28
c24 19 35 43 35 73z" />
    <glyph glyph-name="t" unicode="t" horiz-adv-x="703" 
d="M487 1351v-269h178v-234h-178v-495c0 -41 7 -69 22 -85s44 -24 87 -24c33 0 61 2 84 6v-241c-61 -19 -124 -29 -190 -29c-116 0 -202 27 -257 82s-83 138 -83 249v537h-138v234h138v269h337z" />
    <glyph glyph-name="u" unicode="u" horiz-adv-x="1155" 
d="M739 117c-71 -91 -168 -137 -289 -137c-119 0 -208 34 -270 104c-60 68 -91 168 -91 297v701h337v-703c0 -93 45 -139 135 -139c77 0 132 28 165 83v759h339v-1082h-316z" />
    <glyph glyph-name="v" unicode="v" horiz-adv-x="1058" 
d="M526 401l171 681h355l-353 -1082h-344l-353 1082h356z" />
    <glyph glyph-name="w" unicode="w" horiz-adv-x="1487" 
d="M1029 444l109 638h323l-255 -1082h-285l-179 642l-180 -642h-285l-255 1082h323l107 -653l172 653h235z" />
    <glyph glyph-name="x" unicode="x" horiz-adv-x="1054" 
d="M533 784l157 298h350l-285 -527l299 -555h-352l-170 320l-167 -320h-354l300 555l-284 527h354z" />
    <glyph glyph-name="y" unicode="y" horiz-adv-x="1061" 
d="M527 472l180 610h361l-441 -1263l-19 -46c-63 -140 -173 -210 -332 -210c-44 0 -90 7 -139 20v241h44c47 0 83 7 109 20c24 14 43 39 55 74l27 72l-376 1092h360z" />
    <glyph glyph-name="z" unicode="z" horiz-adv-x="1054" 
d="M492 260h493v-260h-919v188l480 634h-459v260h887v-182z" />
    <glyph glyph-name="braceleft" unicode="{" horiz-adv-x="665" 
d="M562 -360c-240 67 -360 222 -360 465v198c0 135 -54 202 -162 202v227c108 0 162 68 162 203v210c2 120 33 217 94 291c60 74 149 128 266 161l63 -176c-84 -32 -128 -122 -131 -269v-217c0 -149 -62 -255 -185 -316c123 -61 185 -167 185 -317v-216
c3 -147 47 -237 131 -269z" />
    <glyph glyph-name="bar" unicode="|" horiz-adv-x="523" 
d="M356 -270h-184v1726h184v-1726z" />
    <glyph glyph-name="braceright" unicode="}" horiz-adv-x="665" 
d="M41 -183c84 32 128 122 131 269v217c0 150 62 255 186 316c-124 61 -186 166 -186 316v217c-3 147 -47 237 -131 269l63 176c119 -33 209 -88 269 -163c60 -76 90 -175 91 -298v-201c0 -135 54 -203 162 -203v-227c-108 0 -162 -67 -162 -201v-213
c-5 -235 -125 -385 -360 -451z" />
    <glyph glyph-name="asciitilde" unicode="~" horiz-adv-x="1295" 
d="M1197 799c0 -131 -31 -235 -91 -314c-62 -79 -142 -118 -243 -118c-50 0 -95 10 -135 29c-41 19 -86 54 -138 104c-50 51 -98 76 -141 76c-33 0 -61 -16 -83 -49c-23 -33 -34 -73 -34 -122l-238 4c0 131 30 235 90 311c59 78 140 116 242 116c51 0 97 -10 139 -30
c42 -19 88 -54 137 -104c50 -49 96 -74 138 -74c34 0 62 16 84 50c21 32 32 73 32 122z" />
    <glyph glyph-name="uni00A0" unicode="&#xa0;" horiz-adv-x="510" 
 />
    <glyph glyph-name="exclamdown" unicode="&#xa1;" horiz-adv-x="615" 
d="M171 623h273l43 -995h-359zM497 933c0 -49 -18 -90 -53 -121c-36 -32 -81 -48 -134 -48s-98 16 -134 48c-35 31 -53 72 -53 121s18 90 53 121c36 32 81 48 134 48s98 -16 134 -48c35 -31 53 -72 53 -121z" />
    <glyph glyph-name="cent" unicode="&#xa2;" horiz-adv-x="1209" 
d="M598 240c47 0 84 13 110 38c26 26 39 62 38 108h316c0 -104 -32 -192 -97 -262c-65 -72 -150 -116 -255 -135v-234h-200v232c-129 19 -230 76 -302 171c-74 96 -110 221 -110 376v18c0 149 36 272 109 370c73 96 174 154 303 173v223h200v-225c110 -19 196 -67 258 -141
c63 -76 94 -170 94 -284h-316c0 56 -14 99 -41 129s-64 45 -110 45c-87 0 -138 -56 -153 -167c-5 -35 -7 -84 -7 -146c0 -109 13 -184 39 -226s67 -63 124 -63z" />
    <glyph glyph-name="sterling" unicode="&#xa3;" horiz-adv-x="1229" 
d="M621 561l5 -112c0 -76 -20 -136 -59 -179h608v-270h-1069v270h103c38 10 58 44 60 103l1 53l-5 135h-162v261h154l-6 217c0 137 41 243 123 321c81 76 192 115 331 115c149 0 266 -38 349 -115c84 -77 126 -181 126 -312h-330c0 105 -45 157 -136 157
c-34 0 -61 -13 -82 -41c-21 -26 -31 -68 -31 -125l9 -217h307v-261h-296z" />
    <glyph glyph-name="currency" unicode="&#xa4;" horiz-adv-x="1397" 
d="M1061 107c-106 -85 -226 -127 -361 -127s-256 42 -361 126l-129 -132l-141 144l135 137c-67 104 -100 222 -100 353c0 136 36 258 109 365l-144 147l141 144l142 -145c103 77 219 115 348 115s246 -39 349 -117l144 148l142 -145l-148 -151c71 -106 107 -226 107 -361
c0 -129 -33 -245 -98 -349l139 -141l-142 -145zM290 608c0 -79 18 -152 54 -218c36 -68 86 -120 149 -159s132 -58 207 -58c74 0 143 19 206 58s113 91 149 159c36 66 54 139 54 218s-18 152 -55 220c-36 66 -86 119 -148 157c-64 38 -132 57 -206 57
c-75 0 -144 -19 -206 -57c-64 -38 -113 -91 -150 -157c-36 -68 -54 -141 -54 -220z" />
    <glyph glyph-name="yen" unicode="&#xa5;" horiz-adv-x="1108" 
d="M554 937l187 519h357l-306 -714h205v-190h-272v-100h272v-189h-272v-263h-350v263h-303v189h303v100h-303v190h244l-307 714h358z" />
    <glyph glyph-name="brokenbar" unicode="&#xa6;" horiz-adv-x="524" 
d="M119 -270v795h292v-795h-292zM411 698h-292v758h292v-758z" />
    <glyph glyph-name="section" unicode="&#xa7;" horiz-adv-x="1301" 
d="M1196 500c0 -118 -52 -207 -155 -268c92 -69 138 -166 138 -293c0 -118 -47 -210 -141 -277c-95 -66 -225 -99 -390 -99c-179 0 -316 36 -411 107s-143 173 -143 305h338c0 -50 17 -88 50 -113c34 -25 89 -38 166 -38c129 0 193 38 193 114c0 39 -19 70 -57 94
c-39 24 -118 53 -237 86s-209 68 -270 104c-61 37 -106 80 -137 130c-31 49 -46 108 -46 176c0 117 52 207 157 270c-94 71 -141 168 -141 292c0 116 48 209 145 280s226 106 389 106c167 0 297 -37 391 -112s141 -179 141 -313h-337c0 50 -17 90 -51 120
c-35 30 -83 45 -144 45c-63 0 -112 -11 -145 -33s-50 -52 -50 -91c0 -44 19 -77 56 -100s105 -46 202 -72c97 -24 175 -49 232 -74s105 -53 143 -86c37 -33 66 -70 85 -112c19 -43 29 -92 29 -148zM597 652c-41 11 -80 23 -117 36c-33 -27 -49 -67 -49 -120
c0 -45 15 -80 45 -104c29 -23 101 -53 214 -88l118 -34c37 29 56 69 56 120c0 41 -18 75 -55 102c-37 26 -107 55 -212 88z" />
    <glyph glyph-name="dieresis" unicode="&#xa8;" horiz-adv-x="1013" 
d="M95 1365c0 37 15 68 43 94c30 26 65 39 108 39s78 -13 108 -39c28 -26 43 -57 43 -94s-15 -68 -43 -94c-30 -26 -65 -39 -108 -39s-78 13 -108 39c-28 26 -43 57 -43 94zM614 1365c0 37 14 68 44 94c28 26 64 39 107 39s79 -13 107 -39c30 -26 44 -57 44 -94
s-14 -68 -44 -94c-28 -26 -64 -39 -107 -39s-79 13 -107 39c-30 26 -44 57 -44 94z" />
    <glyph glyph-name="copyright" unicode="&#xa9;" horiz-adv-x="1608" 
d="M1116 596c0 -101 -29 -179 -88 -233c-58 -54 -140 -81 -247 -81s-191 36 -255 106c-62 72 -94 167 -94 287v113c0 116 32 210 96 280c63 72 148 107 253 107c109 0 192 -27 249 -83c58 -54 87 -132 87 -231h-156c0 64 -15 110 -46 137c-31 28 -75 42 -134 42
c-61 0 -109 -22 -143 -68c-33 -44 -50 -105 -51 -180v-123c0 -78 17 -139 51 -185c34 -44 82 -67 143 -67c59 0 104 13 134 41c30 26 45 73 45 138h156zM207 729c0 -110 25 -213 75 -308c49 -95 120 -172 211 -229c91 -58 192 -87 302 -87c109 0 209 29 301 86
c90 57 161 134 211 229s75 198 75 309s-25 213 -75 309c-50 94 -121 170 -212 228c-91 56 -191 85 -300 85c-106 0 -205 -27 -295 -82c-92 -55 -163 -130 -215 -226s-78 -201 -78 -314zM85 729c0 135 31 260 93 375c63 115 149 206 260 272c110 67 229 100 357 100
s247 -33 357 -100c111 -66 197 -157 260 -272c62 -115 93 -240 93 -375c0 -136 -32 -262 -95 -377c-63 -116 -150 -207 -260 -273c-109 -66 -228 -99 -355 -99c-129 0 -248 33 -357 100c-110 67 -196 158 -259 273s-94 241 -94 376z" />
    <glyph glyph-name="ordfeminine" unicode="&#xaa;" horiz-adv-x="904" 
d="M600 705c-7 18 -12 41 -17 68c-51 -55 -118 -82 -201 -82c-79 0 -140 21 -184 61c-43 42 -65 97 -65 167c0 73 28 130 84 171c56 40 142 60 257 60h102v51c0 85 -39 127 -116 127c-43 0 -77 -8 -102 -26c-24 -16 -36 -41 -36 -73l-173 14c0 69 29 125 87 169
c59 42 133 64 224 64c90 0 161 -24 213 -72s78 -116 78 -205v-316c0 -65 9 -124 26 -178h-177zM425 835c27 0 54 6 82 19c28 12 51 26 69 43v136h-106c-51 -1 -90 -11 -119 -31s-43 -46 -43 -79c0 -59 39 -88 117 -88z" />
    <glyph glyph-name="guillemotleft" unicode="&#xab;" horiz-adv-x="1054" 
d="M311 515l232 -399h-206l-272 390v19l272 390h206zM724 515l232 -399h-206l-272 390v19l272 390h206z" />
    <glyph glyph-name="logicalnot" unicode="&#xac;" horiz-adv-x="1124" 
d="M960 374h-200v260h-635v171h835v-431z" />
    <glyph glyph-name="uni00AD" unicode="&#xad;" horiz-adv-x="921" 
d="M753 497h-601v261h601v-261z" />
    <glyph glyph-name="registered" unicode="&#xae;" horiz-adv-x="1608" 
d="M85 729c0 135 31 260 93 375c63 115 149 206 260 272c110 67 229 100 357 100s247 -33 357 -100c111 -66 197 -157 260 -272c62 -115 93 -240 93 -375c0 -136 -32 -262 -95 -377c-63 -116 -150 -207 -260 -273c-109 -66 -228 -99 -355 -99c-129 0 -248 33 -357 100
c-110 67 -196 158 -259 273s-94 241 -94 376zM207 729c0 -110 25 -213 75 -308c49 -95 120 -172 211 -229c91 -58 192 -87 302 -87c109 0 209 29 301 86c90 57 161 134 211 229s75 198 75 309s-25 213 -75 309c-50 94 -121 170 -212 228c-91 56 -191 85 -300 85
c-106 0 -205 -27 -295 -82c-92 -55 -163 -130 -215 -226s-78 -201 -78 -314zM651 653v-337h-151v850h281c103 0 183 -23 239 -70c58 -47 86 -111 86 -194c0 -73 -36 -130 -107 -170c39 -21 66 -51 81 -88s23 -84 23 -138c0 -56 1 -94 3 -117c3 -23 7 -42 14 -57v-16h-155
c-9 23 -13 87 -13 194c0 51 -11 87 -33 110c-22 22 -59 33 -110 33h-158zM651 787h128c51 0 93 11 127 31c33 22 50 50 50 85c0 47 -12 80 -36 99c-23 20 -66 30 -128 31h-141v-246z" />
    <glyph glyph-name="macron" unicode="&#xaf;" horiz-adv-x="1065" 
d="M875 1285h-694v173h694v-173z" />
    <glyph glyph-name="degree" unicode="&#xb0;" horiz-adv-x="813" 
d="M125 1195c0 78 28 144 83 199c56 55 122 82 198 82c75 0 139 -27 194 -82c54 -55 81 -121 81 -199c0 -77 -27 -143 -81 -197c-53 -53 -118 -80 -194 -80c-77 0 -144 27 -198 80c-56 54 -83 120 -83 197zM406 1071c35 0 64 12 87 36s34 53 34 88s-11 65 -34 90
s-52 38 -87 38s-65 -13 -90 -37c-24 -26 -36 -56 -36 -91s12 -65 38 -89c24 -23 54 -35 88 -35z" />
    <glyph glyph-name="plusminus" unicode="&#xb1;" horiz-adv-x="1102" 
d="M688 974h312v-271h-312v-348h-294v348h-310v271h310v319h294v-319zM979 1h-878v264h878v-264z" />
    <glyph glyph-name="uni00B2" unicode="&#xb2;" horiz-adv-x="768" 
d="M697 667h-628v147l286 253c33 29 58 58 75 87c16 28 24 49 24 62c0 51 -28 76 -85 76c-29 0 -51 -10 -68 -30s-25 -44 -25 -73h-225c0 79 29 145 85 199c58 53 131 80 222 80c103 0 182 -22 237 -65s83 -106 83 -187c0 -50 -14 -96 -42 -138c-29 -41 -91 -97 -188 -168
l-81 -68h330v-175z" />
    <glyph glyph-name="uni00B3" unicode="&#xb3;" horiz-adv-x="768" 
d="M277 1141h88c67 0 101 27 101 82c0 21 -8 38 -26 51c-16 12 -40 18 -70 18c-23 0 -44 -4 -62 -13s-27 -21 -27 -38h-224c0 68 28 123 85 165c57 41 130 62 221 62c103 0 183 -20 241 -62c57 -40 86 -96 86 -165c0 -80 -46 -136 -138 -169c103 -27 154 -88 154 -183
c0 -69 -31 -125 -94 -169c-63 -42 -146 -64 -249 -64c-97 0 -175 23 -233 69c-60 46 -89 107 -89 183h227c0 -19 10 -37 30 -52c19 -16 46 -24 81 -24c37 0 63 8 79 25c14 17 22 35 22 56c0 57 -36 85 -109 86h-94v142z" />
    <glyph glyph-name="acute" unicode="&#xb4;" horiz-adv-x="691" 
d="M287 1536h356l-278 -314h-275z" />
    <glyph glyph-name="mu" unicode="&#xb5;" horiz-adv-x="1313" 
d="M470 1082v-632c1 -71 13 -124 36 -157c24 -33 66 -50 127 -50c85 0 146 30 181 91v748h337v-1082h-317l-5 53c-59 -49 -129 -74 -210 -74c-57 0 -106 11 -149 34v-429h-338v1498h338z" />
    <glyph glyph-name="paragraph" unicode="&#xb6;" horiz-adv-x="1001" 
d="M657 0v520h-80c-153 0 -274 42 -363 127c-88 85 -132 198 -132 341c0 142 44 256 133 340c89 86 210 128 363 128h308v-1456h-229z" />
    <glyph glyph-name="periodcentered" unicode="&#xb7;" horiz-adv-x="657" 
d="M324 854c54 0 98 -16 134 -48c34 -32 52 -72 52 -121s-18 -89 -52 -121c-36 -32 -80 -48 -134 -48c-53 0 -98 16 -133 48c-35 31 -53 72 -53 121s18 90 53 121c35 32 80 48 133 48z" />
    <glyph glyph-name="cedilla" unicode="&#xb8;" horiz-adv-x="569" 
d="M373 10l-10 -61c100 -19 150 -76 150 -173c0 -77 -33 -138 -99 -182s-158 -66 -275 -66l-7 186c59 0 88 26 88 77c0 25 -10 43 -32 53c-20 10 -55 17 -102 20l31 146h256z" />
    <glyph glyph-name="uni00B9" unicode="&#xb9;" horiz-adv-x="768" 
d="M542 667h-223v533l-176 -36v167l380 122h19v-786z" />
    <glyph glyph-name="ordmasculine" unicode="&#xba;" horiz-adv-x="938" 
d="M117 1121c0 107 32 193 95 257c64 66 148 98 251 98s187 -32 251 -97s96 -152 96 -263v-72c0 -106 -31 -192 -94 -256c-63 -66 -146 -98 -251 -98s-190 33 -253 98s-95 152 -95 261v72zM292 1044c0 -65 16 -116 46 -153c32 -37 74 -55 127 -55c52 0 93 18 123 54
c31 36 46 86 47 151v80c0 65 -15 115 -47 152c-30 37 -72 55 -125 55c-52 0 -93 -18 -125 -54c-30 -37 -46 -89 -46 -157v-73z" />
    <glyph glyph-name="guillemotright" unicode="&#xbb;" horiz-adv-x="1054" 
d="M284 914l272 -390v-19l-272 -390h-207l232 399l-232 400h207zM697 914l272 -390v-19l-272 -390h-207l232 399l-232 400h207z" />
    <glyph glyph-name="onequarter" unicode="&#xbc;" horiz-adv-x="1452" 
d="M512 664h-223v533l-176 -36v167l380 122h19v-786zM462 117l-157 79l711 1138l157 -79zM1288 335h79v-178h-79v-157h-225v157h-333l-15 145l348 487h225v-454zM925 335h138v191l-16 -23z" />
    <glyph glyph-name="onehalf" unicode="&#xbd;" horiz-adv-x="1537" 
d="M422 117l-157 79l711 1138l157 -79zM488 672h-223v533l-176 -36v167l380 122h19v-786zM1470 0h-628v147l286 253c33 29 58 58 74 86c17 29 25 50 25 63c0 51 -28 76 -85 76c-29 0 -51 -10 -68 -30s-25 -44 -25 -73h-225c0 79 28 145 86 198c56 54 130 81 221 81
c103 0 182 -22 237 -65s83 -106 83 -187c0 -50 -14 -96 -43 -137c-28 -42 -90 -98 -187 -169l-81 -68h330v-175z" />
    <glyph glyph-name="threequarters" unicode="&#xbe;" horiz-adv-x="1689" 
d="M644 117l-157 79l711 1138l157 -79zM1486 335h79v-178h-79v-157h-225v157h-333l-15 145l348 487h225v-454zM1123 335h138v191l-16 -23zM321 1141h88c67 0 101 27 101 82c0 21 -8 38 -26 51c-16 12 -40 18 -70 18c-23 0 -44 -4 -62 -13s-27 -21 -27 -38h-224
c0 68 28 123 85 165c57 41 130 62 221 62c103 0 183 -20 241 -62c57 -40 86 -96 86 -165c0 -80 -46 -136 -138 -169c103 -27 154 -88 154 -183c0 -69 -31 -125 -94 -169c-63 -42 -146 -64 -249 -64c-97 0 -175 23 -233 69c-60 46 -89 107 -89 183h227c0 -19 10 -37 30 -52
c19 -16 46 -24 81 -24c37 0 63 8 79 25c14 17 22 35 22 56c0 57 -36 85 -109 86h-94v142z" />
    <glyph glyph-name="questiondown" unicode="&#xbf;" horiz-adv-x="1043" 
d="M703 630c0 -100 -10 -177 -31 -230c-20 -54 -54 -101 -102 -142l-66 -61c-62 -60 -93 -122 -93 -186c0 -47 11 -82 33 -103c23 -22 52 -33 87 -33c45 0 79 14 105 43c24 28 38 68 39 120h339c-3 -134 -45 -238 -128 -312c-82 -74 -198 -111 -347 -111s-263 35 -345 103
c-80 70 -121 167 -121 293c0 55 13 107 38 157c25 48 69 102 130 159l85 78c51 44 80 95 86 153l5 72h286zM569 765c-53 0 -98 16 -133 47c-36 32 -54 73 -54 122s18 90 54 122c35 31 80 47 133 47c55 0 99 -16 135 -49c34 -32 52 -72 52 -120s-18 -88 -52 -120
c-36 -33 -80 -49 -135 -49z" />
    <glyph glyph-name="Agrave" unicode="&#xc0;" 
d="M937 272h-481l-84 -272h-375l534 1456h330l538 -1456h-377zM540 543h313l-157 505zM860 1532h-274l-282 314h356z" />
    <glyph glyph-name="Aacute" unicode="&#xc1;" 
d="M937 272h-481l-84 -272h-375l534 1456h330l538 -1456h-377zM540 543h313l-157 505zM742 1846h356l-278 -314h-275z" />
    <glyph glyph-name="Acircumflex" unicode="&#xc2;" 
d="M937 272h-481l-84 -272h-375l534 1456h330l538 -1456h-377zM540 543h313l-157 505zM1124 1565v-13h-266l-159 136l-159 -136h-260v17l323 277h193z" />
    <glyph glyph-name="Atilde" unicode="&#xc3;" 
d="M937 272h-481l-84 -272h-375l534 1456h330l538 -1456h-377zM540 543h313l-157 505zM1085 1837c0 -76 -22 -140 -67 -194c-44 -52 -99 -79 -164 -79c-44 0 -93 14 -147 42s-98 42 -131 42c-21 0 -40 -7 -54 -22c-16 -15 -23 -37 -23 -68l-187 10c0 74 22 138 66 192
c45 54 99 81 164 81c33 0 77 -12 131 -36c54 -25 88 -39 103 -42c14 -3 29 -5 45 -5c21 0 40 7 55 22s23 37 23 68z" />
    <glyph glyph-name="Adieresis" unicode="&#xc4;" 
d="M937 272h-481l-84 -272h-375l534 1456h330l538 -1456h-377zM540 543h313l-157 505zM287 1675c0 37 15 68 43 94c30 26 65 39 108 39s78 -13 108 -39c28 -26 43 -57 43 -94s-15 -68 -43 -94c-30 -26 -65 -39 -108 -39s-78 13 -108 39c-28 26 -43 57 -43 94zM806 1675
c0 37 14 68 44 94c28 26 64 39 107 39s79 -13 107 -39c30 -26 44 -57 44 -94s-14 -68 -44 -94c-28 -26 -64 -39 -107 -39s-79 13 -107 39c-30 26 -44 57 -44 94z" />
    <glyph glyph-name="Aring" unicode="&#xc5;" 
d="M937 272h-481l-84 -272h-375l534 1456h330l538 -1456h-377zM540 543h313l-157 505zM477 1729c0 57 22 106 66 144c43 40 96 59 159 59c62 0 115 -19 159 -59c43 -38 65 -87 65 -144s-21 -104 -65 -142c-42 -38 -96 -57 -159 -57c-64 0 -117 19 -161 57
c-42 38 -64 85 -64 142zM702 1625c32 0 57 10 75 30c19 20 28 45 28 74s-9 54 -28 75c-18 21 -43 31 -75 31c-33 0 -58 -10 -77 -31c-18 -21 -27 -46 -27 -75s9 -54 27 -74c19 -20 44 -30 77 -30z" />
    <glyph glyph-name="AE" unicode="&#xc6;" horiz-adv-x="1926" 
d="M1851 0h-897l-14 329h-382l-152 -329h-390l735 1456h1039v-264h-549l13 -316h455v-264h-444l15 -348h571v-264zM683 599h246l-21 486z" />
    <glyph glyph-name="Ccedilla" unicode="&#xc7;" horiz-adv-x="1344" 
d="M1288 493c-5 -101 -32 -191 -82 -269c-50 -77 -120 -137 -210 -180c-91 -43 -194 -64 -310 -64c-191 0 -342 62 -452 187s-165 301 -165 528v72c0 143 25 267 75 375c49 106 121 189 214 248c93 58 201 87 324 87c177 0 319 -47 426 -139c107 -94 168 -222 183 -385h-350
c-3 89 -25 152 -67 191s-106 58 -192 58c-87 0 -151 -33 -192 -98s-62 -170 -64 -313v-103c0 -155 20 -266 58 -333c40 -67 107 -100 202 -100c81 0 142 19 185 57s65 98 68 181h349zM818 10l-10 -61c100 -19 150 -76 150 -173c0 -77 -33 -138 -99 -182s-158 -66 -275 -66
l-7 186c59 0 88 26 88 77c0 25 -10 43 -32 53c-20 10 -55 17 -102 20l31 146h256z" />
    <glyph glyph-name="Egrave" unicode="&#xc8;" horiz-adv-x="1146" 
d="M1013 617h-552v-347h652v-270h-1003v1456h1005v-271h-654v-307h552v-261zM804 1532h-274l-282 314h356z" />
    <glyph glyph-name="Eacute" unicode="&#xc9;" horiz-adv-x="1146" 
d="M1013 617h-552v-347h652v-270h-1003v1456h1005v-271h-654v-307h552v-261zM686 1846h356l-278 -314h-275z" />
    <glyph glyph-name="Ecircumflex" unicode="&#xca;" horiz-adv-x="1146" 
d="M1013 617h-552v-347h652v-270h-1003v1456h1005v-271h-654v-307h552v-261zM1068 1565v-13h-266l-159 136l-159 -136h-260v17l323 277h193z" />
    <glyph glyph-name="Edieresis" unicode="&#xcb;" horiz-adv-x="1146" 
d="M1013 617h-552v-347h652v-270h-1003v1456h1005v-271h-654v-307h552v-261zM231 1675c0 37 15 68 43 94c30 26 65 39 108 39s78 -13 108 -39c28 -26 43 -57 43 -94s-15 -68 -43 -94c-30 -26 -65 -39 -108 -39s-78 13 -108 39c-28 26 -43 57 -43 94zM750 1675
c0 37 14 68 44 94c28 26 64 39 107 39s79 -13 107 -39c30 -26 44 -57 44 -94s-14 -68 -44 -94c-28 -26 -64 -39 -107 -39s-79 13 -107 39c-30 26 -44 57 -44 94z" />
    <glyph glyph-name="Igrave" unicode="&#xcc;" horiz-adv-x="618" 
d="M484 0h-350v1456h350v-1456zM470 1532h-274l-282 314h356z" />
    <glyph glyph-name="Iacute" unicode="&#xcd;" horiz-adv-x="618" 
d="M484 0h-350v1456h350v-1456zM351 1846h356l-278 -314h-275z" />
    <glyph glyph-name="Icircumflex" unicode="&#xce;" horiz-adv-x="618" 
d="M484 0h-350v1456h350v-1456zM734 1565v-13h-266l-159 136l-159 -136h-260v17l323 277h193z" />
    <glyph glyph-name="Idieresis" unicode="&#xcf;" horiz-adv-x="618" 
d="M484 0h-350v1456h350v-1456zM-103 1675c0 37 15 68 43 94c30 26 65 39 108 39s78 -13 108 -39c28 -26 43 -57 43 -94s-15 -68 -43 -94c-30 -26 -65 -39 -108 -39s-78 13 -108 39c-28 26 -43 57 -43 94zM416 1675c0 37 14 68 44 94c28 26 64 39 107 39s79 -13 107 -39
c30 -26 44 -57 44 -94s-14 -68 -44 -94c-28 -26 -64 -39 -107 -39s-79 13 -107 39c-30 26 -44 57 -44 94z" />
    <glyph glyph-name="Eth" unicode="&#xd0;" horiz-adv-x="1354" 
d="M140 0v635h-170v191h170v630h469c129 0 244 -29 347 -88c103 -58 183 -140 240 -246c58 -107 87 -226 88 -358v-67c0 -133 -28 -253 -84 -359c-57 -105 -136 -188 -238 -248c-103 -59 -217 -89 -343 -90h-479zM700 635h-209v-365h122c101 0 178 36 232 108
c54 71 81 178 81 319v63c0 141 -27 247 -81 318s-133 107 -236 107h-118v-359h209v-191z" />
    <glyph glyph-name="Ntilde" unicode="&#xd1;" horiz-adv-x="1438" 
d="M1326 0h-349l-516 906v-906h-351v1456h351l515 -906v906h350v-1456zM1112 1837c0 -76 -22 -140 -67 -194c-44 -52 -99 -79 -164 -79c-44 0 -93 14 -147 42s-98 42 -131 42c-21 0 -40 -7 -54 -22c-16 -15 -23 -37 -23 -68l-187 10c0 74 22 138 66 192c45 54 99 81 164 81
c33 0 77 -12 131 -36c54 -25 88 -39 103 -42c14 -3 29 -5 45 -5c21 0 40 7 55 22s23 37 23 68z" />
    <glyph glyph-name="Ograve" unicode="&#xd2;" horiz-adv-x="1414" 
d="M1343 698c0 -142 -26 -268 -79 -377s-128 -193 -224 -253c-98 -58 -208 -88 -332 -88s-234 28 -330 86c-96 56 -171 138 -224 244c-54 106 -82 228 -85 365v82c0 143 26 269 79 377c52 110 127 194 224 253c98 59 209 89 334 89c123 0 233 -29 330 -88s172 -142 226 -250
c53 -109 80 -233 81 -373v-67zM986 759c0 145 -24 255 -72 329c-49 76 -118 113 -208 113c-176 0 -269 -132 -279 -396l-1 -107c0 -143 24 -252 71 -329s118 -115 211 -115c89 0 157 38 205 113s72 184 73 325v67zM865 1532h-274l-282 314h356z" />
    <glyph glyph-name="Oacute" unicode="&#xd3;" horiz-adv-x="1414" 
d="M1343 698c0 -142 -26 -268 -79 -377s-128 -193 -224 -253c-98 -58 -208 -88 -332 -88s-234 28 -330 86c-96 56 -171 138 -224 244c-54 106 -82 228 -85 365v82c0 143 26 269 79 377c52 110 127 194 224 253c98 59 209 89 334 89c123 0 233 -29 330 -88s172 -142 226 -250
c53 -109 80 -233 81 -373v-67zM986 759c0 145 -24 255 -72 329c-49 76 -118 113 -208 113c-176 0 -269 -132 -279 -396l-1 -107c0 -143 24 -252 71 -329s118 -115 211 -115c89 0 157 38 205 113s72 184 73 325v67zM747 1846h356l-278 -314h-275z" />
    <glyph glyph-name="Ocircumflex" unicode="&#xd4;" horiz-adv-x="1414" 
d="M1343 698c0 -142 -26 -268 -79 -377s-128 -193 -224 -253c-98 -58 -208 -88 -332 -88s-234 28 -330 86c-96 56 -171 138 -224 244c-54 106 -82 228 -85 365v82c0 143 26 269 79 377c52 110 127 194 224 253c98 59 209 89 334 89c123 0 233 -29 330 -88s172 -142 226 -250
c53 -109 80 -233 81 -373v-67zM986 759c0 145 -24 255 -72 329c-49 76 -118 113 -208 113c-176 0 -269 -132 -279 -396l-1 -107c0 -143 24 -252 71 -329s118 -115 211 -115c89 0 157 38 205 113s72 184 73 325v67zM1129 1565v-13h-266l-159 136l-159 -136h-260v17l323 277
h193z" />
    <glyph glyph-name="Otilde" unicode="&#xd5;" horiz-adv-x="1414" 
d="M1343 698c0 -142 -26 -268 -79 -377s-128 -193 -224 -253c-98 -58 -208 -88 -332 -88s-234 28 -330 86c-96 56 -171 138 -224 244c-54 106 -82 228 -85 365v82c0 143 26 269 79 377c52 110 127 194 224 253c98 59 209 89 334 89c123 0 233 -29 330 -88s172 -142 226 -250
c53 -109 80 -233 81 -373v-67zM986 759c0 145 -24 255 -72 329c-49 76 -118 113 -208 113c-176 0 -269 -132 -279 -396l-1 -107c0 -143 24 -252 71 -329s118 -115 211 -115c89 0 157 38 205 113s72 184 73 325v67zM1090 1837c0 -76 -22 -140 -67 -194
c-44 -52 -99 -79 -164 -79c-44 0 -93 14 -147 42s-98 42 -131 42c-21 0 -40 -7 -54 -22c-16 -15 -23 -37 -23 -68l-187 10c0 74 22 138 66 192c45 54 99 81 164 81c33 0 77 -12 131 -36c54 -25 88 -39 103 -42c14 -3 29 -5 45 -5c21 0 40 7 55 22s23 37 23 68z" />
    <glyph glyph-name="Odieresis" unicode="&#xd6;" horiz-adv-x="1414" 
d="M1343 698c0 -142 -26 -268 -79 -377s-128 -193 -224 -253c-98 -58 -208 -88 -332 -88s-234 28 -330 86c-96 56 -171 138 -224 244c-54 106 -82 228 -85 365v82c0 143 26 269 79 377c52 110 127 194 224 253c98 59 209 89 334 89c123 0 233 -29 330 -88s172 -142 226 -250
c53 -109 80 -233 81 -373v-67zM986 759c0 145 -24 255 -72 329c-49 76 -118 113 -208 113c-176 0 -269 -132 -279 -396l-1 -107c0 -143 24 -252 71 -329s118 -115 211 -115c89 0 157 38 205 113s72 184 73 325v67zM292 1675c0 37 15 68 43 94c30 26 65 39 108 39
s78 -13 108 -39c28 -26 43 -57 43 -94s-15 -68 -43 -94c-30 -26 -65 -39 -108 -39s-78 13 -108 39c-28 26 -43 57 -43 94zM811 1675c0 37 14 68 44 94c28 26 64 39 107 39s79 -13 107 -39c30 -26 44 -57 44 -94s-14 -68 -44 -94c-28 -26 -64 -39 -107 -39s-79 13 -107 39
c-30 26 -44 57 -44 94z" />
    <glyph glyph-name="multiply" unicode="&#xd7;" horiz-adv-x="1083" 
d="M53 381l299 305l-299 306l193 183l293 -299l293 299l193 -183l-300 -306l300 -305l-193 -183l-293 298l-293 -298z" />
    <glyph glyph-name="Oslash" unicode="&#xd8;" horiz-adv-x="1409" 
d="M1354 698c0 -142 -26 -268 -79 -377s-127 -193 -225 -253c-96 -58 -207 -88 -331 -88c-108 0 -205 22 -292 65l-81 -140h-207l141 245c-133 133 -199 318 -199 556v51c0 143 26 269 79 378c52 109 126 193 224 252c96 59 208 89 333 89c105 0 200 -21 287 -64l61 106h208
l-121 -211c135 -133 202 -319 202 -558v-51zM997 759c0 89 -10 165 -29 229l-396 -689c40 -30 89 -45 147 -45c89 0 158 38 205 113c48 75 72 184 73 325v67zM437 698c0 -89 9 -164 27 -227l394 687c-40 29 -87 43 -141 43c-93 0 -162 -37 -209 -111s-70 -182 -71 -325v-67z
" />
    <glyph glyph-name="Ugrave" unicode="&#xd9;" horiz-adv-x="1361" 
d="M1252 1456v-953c0 -108 -23 -201 -69 -281c-46 -78 -112 -139 -198 -180s-188 -62 -305 -62c-177 0 -317 46 -419 138s-154 218 -156 378v960h353v-967c4 -159 78 -239 222 -239c73 0 128 20 165 60s56 105 56 195v951h351zM835 1532h-274l-282 314h356z" />
    <glyph glyph-name="Uacute" unicode="&#xda;" horiz-adv-x="1361" 
d="M1252 1456v-953c0 -108 -23 -201 -69 -281c-46 -78 -112 -139 -198 -180s-188 -62 -305 -62c-177 0 -317 46 -419 138s-154 218 -156 378v960h353v-967c4 -159 78 -239 222 -239c73 0 128 20 165 60s56 105 56 195v951h351zM717 1846h356l-278 -314h-275z" />
    <glyph glyph-name="Ucircumflex" unicode="&#xdb;" horiz-adv-x="1361" 
d="M1252 1456v-953c0 -108 -23 -201 -69 -281c-46 -78 -112 -139 -198 -180s-188 -62 -305 -62c-177 0 -317 46 -419 138s-154 218 -156 378v960h353v-967c4 -159 78 -239 222 -239c73 0 128 20 165 60s56 105 56 195v951h351zM1099 1565v-13h-266l-159 136l-159 -136h-260
v17l323 277h193z" />
    <glyph glyph-name="Udieresis" unicode="&#xdc;" horiz-adv-x="1361" 
d="M1252 1456v-953c0 -108 -23 -201 -69 -281c-46 -78 -112 -139 -198 -180s-188 -62 -305 -62c-177 0 -317 46 -419 138s-154 218 -156 378v960h353v-967c4 -159 78 -239 222 -239c73 0 128 20 165 60s56 105 56 195v951h351zM262 1675c0 37 15 68 43 94
c30 26 65 39 108 39s78 -13 108 -39c28 -26 43 -57 43 -94s-15 -68 -43 -94c-30 -26 -65 -39 -108 -39s-78 13 -108 39c-28 26 -43 57 -43 94zM781 1675c0 37 14 68 44 94c28 26 64 39 107 39s79 -13 107 -39c30 -26 44 -57 44 -94s-14 -68 -44 -94
c-28 -26 -64 -39 -107 -39s-79 13 -107 39c-30 26 -44 57 -44 94z" />
    <glyph glyph-name="Yacute" unicode="&#xdd;" horiz-adv-x="1286" 
d="M643 824l268 632h379l-469 -933v-523h-356v523l-468 933h377zM686 1846h356l-278 -314h-275z" />
    <glyph glyph-name="Thorn" unicode="&#xde;" horiz-adv-x="1266" 
d="M455 1456v-258h205c114 -1 213 -20 296 -58c84 -38 148 -92 192 -161s66 -150 66 -241c0 -139 -50 -250 -148 -334c-100 -82 -235 -125 -406 -126h-205v-278h-339v1456h339zM455 938v-400h198c69 0 123 17 163 52c39 35 59 83 59 146s-20 113 -59 148
c-39 36 -93 54 -161 54h-200z" />
    <glyph glyph-name="germandbls" unicode="&#xdf;" horiz-adv-x="1330" 
d="M472 0h-338v1099c0 147 44 261 134 341c88 81 215 121 380 121c131 0 237 -35 319 -104s123 -161 123 -276c0 -71 -16 -132 -48 -183c-31 -51 -47 -105 -47 -163c0 -21 8 -42 25 -64c16 -22 52 -60 108 -115c95 -93 143 -189 143 -288c0 -125 -41 -220 -125 -288
c-82 -66 -200 -100 -352 -100c-50 0 -100 4 -150 14c-51 8 -90 21 -118 37l59 253c57 -29 127 -44 211 -44c40 0 73 11 100 32c26 22 39 53 39 93c0 27 -8 53 -25 77s-52 59 -105 105s-91 90 -113 133c-23 42 -34 88 -34 137c0 69 16 131 47 187s47 110 47 163
c0 39 -13 72 -40 97s-60 38 -101 38c-49 0 -85 -17 -107 -52c-21 -35 -32 -87 -32 -156v-1094z" />
    <glyph glyph-name="agrave" unicode="&#xe0;" horiz-adv-x="1087" 
d="M704 0c-12 22 -23 54 -32 97c-62 -78 -149 -117 -260 -117c-102 0 -189 31 -260 92c-71 62 -107 140 -107 233c0 117 43 206 130 266s213 90 378 90h104v57c0 99 -43 149 -129 149c-80 0 -120 -39 -120 -118h-337c0 105 45 190 133 255c90 65 203 98 341 98
s247 -34 327 -101s121 -160 123 -277v-479c1 -99 17 -175 46 -228v-17h-337zM493 220c42 0 77 9 105 27c27 18 47 38 59 61v173h-98c-117 0 -176 -53 -176 -158c0 -31 10 -55 31 -75c21 -18 47 -28 79 -28zM695 1222h-274l-282 314h356z" />
    <glyph glyph-name="aacute" unicode="&#xe1;" horiz-adv-x="1087" 
d="M704 0c-12 22 -23 54 -32 97c-62 -78 -149 -117 -260 -117c-102 0 -189 31 -260 92c-71 62 -107 140 -107 233c0 117 43 206 130 266s213 90 378 90h104v57c0 99 -43 149 -129 149c-80 0 -120 -39 -120 -118h-337c0 105 45 190 133 255c90 65 203 98 341 98
s247 -34 327 -101s121 -160 123 -277v-479c1 -99 17 -175 46 -228v-17h-337zM493 220c42 0 77 9 105 27c27 18 47 38 59 61v173h-98c-117 0 -176 -53 -176 -158c0 -31 10 -55 31 -75c21 -18 47 -28 79 -28zM577 1536h356l-278 -314h-275z" />
    <glyph glyph-name="acircumflex" unicode="&#xe2;" horiz-adv-x="1087" 
d="M704 0c-12 22 -23 54 -32 97c-62 -78 -149 -117 -260 -117c-102 0 -189 31 -260 92c-71 62 -107 140 -107 233c0 117 43 206 130 266s213 90 378 90h104v57c0 99 -43 149 -129 149c-80 0 -120 -39 -120 -118h-337c0 105 45 190 133 255c90 65 203 98 341 98
s247 -34 327 -101s121 -160 123 -277v-479c1 -99 17 -175 46 -228v-17h-337zM493 220c42 0 77 9 105 27c27 18 47 38 59 61v173h-98c-117 0 -176 -53 -176 -158c0 -31 10 -55 31 -75c21 -18 47 -28 79 -28zM959 1255v-13h-266l-159 136l-159 -136h-260v17l323 277h193z" />
    <glyph glyph-name="atilde" unicode="&#xe3;" horiz-adv-x="1087" 
d="M704 0c-12 22 -23 54 -32 97c-62 -78 -149 -117 -260 -117c-102 0 -189 31 -260 92c-71 62 -107 140 -107 233c0 117 43 206 130 266s213 90 378 90h104v57c0 99 -43 149 -129 149c-80 0 -120 -39 -120 -118h-337c0 105 45 190 133 255c90 65 203 98 341 98
s247 -34 327 -101s121 -160 123 -277v-479c1 -99 17 -175 46 -228v-17h-337zM493 220c42 0 77 9 105 27c27 18 47 38 59 61v173h-98c-117 0 -176 -53 -176 -158c0 -31 10 -55 31 -75c21 -18 47 -28 79 -28zM920 1528c0 -76 -22 -140 -67 -194c-44 -52 -99 -79 -164 -79
c-44 0 -93 14 -147 42s-98 42 -131 42c-21 0 -40 -7 -54 -22c-16 -15 -23 -37 -23 -68l-187 10c0 74 22 138 66 192c45 54 99 81 164 81c33 0 77 -12 131 -36c54 -25 88 -39 103 -42c14 -3 29 -5 45 -5c21 0 40 7 55 22s23 37 23 68z" />
    <glyph glyph-name="adieresis" unicode="&#xe4;" horiz-adv-x="1087" 
d="M704 0c-12 22 -23 54 -32 97c-62 -78 -149 -117 -260 -117c-102 0 -189 31 -260 92c-71 62 -107 140 -107 233c0 117 43 206 130 266s213 90 378 90h104v57c0 99 -43 149 -129 149c-80 0 -120 -39 -120 -118h-337c0 105 45 190 133 255c90 65 203 98 341 98
s247 -34 327 -101s121 -160 123 -277v-479c1 -99 17 -175 46 -228v-17h-337zM493 220c42 0 77 9 105 27c27 18 47 38 59 61v173h-98c-117 0 -176 -53 -176 -158c0 -31 10 -55 31 -75c21 -18 47 -28 79 -28zM122 1365c0 37 15 68 43 94c30 26 65 39 108 39s78 -13 108 -39
c28 -26 43 -57 43 -94s-15 -68 -43 -94c-30 -26 -65 -39 -108 -39s-78 13 -108 39c-28 26 -43 57 -43 94zM641 1365c0 37 14 68 44 94c28 26 64 39 107 39s79 -13 107 -39c30 -26 44 -57 44 -94s-14 -68 -44 -94c-28 -26 -64 -39 -107 -39s-79 13 -107 39
c-30 26 -44 57 -44 94z" />
    <glyph glyph-name="aring" unicode="&#xe5;" horiz-adv-x="1087" 
d="M704 0c-12 22 -23 54 -32 97c-62 -78 -149 -117 -260 -117c-102 0 -189 31 -260 92c-71 62 -107 140 -107 233c0 117 43 206 130 266s213 90 378 90h104v57c0 99 -43 149 -129 149c-80 0 -120 -39 -120 -118h-337c0 105 45 190 133 255c90 65 203 98 341 98
s247 -34 327 -101s121 -160 123 -277v-479c1 -99 17 -175 46 -228v-17h-337zM493 220c42 0 77 9 105 27c27 18 47 38 59 61v173h-98c-117 0 -176 -53 -176 -158c0 -31 10 -55 31 -75c21 -18 47 -28 79 -28zM312 1419c0 57 22 106 66 144c43 40 96 59 159 59
c62 0 115 -19 159 -59c43 -38 65 -87 65 -144s-21 -104 -65 -142c-42 -38 -96 -57 -159 -57c-64 0 -117 19 -161 57c-42 38 -64 85 -64 142zM537 1315c32 0 57 10 75 30c19 20 28 45 28 74s-9 54 -28 75c-18 21 -43 31 -75 31c-33 0 -58 -10 -77 -31
c-18 -21 -27 -46 -27 -75s9 -54 27 -74c19 -20 44 -30 77 -30z" />
    <glyph glyph-name="ae" unicode="&#xe6;" horiz-adv-x="1730" 
d="M1238 -20c-160 0 -287 45 -380 134c-44 -44 -99 -77 -164 -100s-135 -34 -210 -34c-133 0 -236 30 -311 92c-75 60 -112 145 -112 252c0 105 43 187 129 244c87 57 215 86 385 87h142v46c0 44 -11 79 -34 103c-23 26 -56 38 -99 38c-48 0 -85 -10 -110 -30
c-25 -19 -38 -43 -38 -72l-337 19c0 101 45 183 134 247s208 96 355 96c135 0 241 -30 319 -91c84 62 191 92 320 91c141 0 253 -44 335 -133s123 -209 123 -360v-174h-639c9 -65 34 -114 75 -147c41 -32 95 -48 163 -48c84 0 158 13 223 40l62 27l81 -206
c-45 -35 -105 -63 -182 -87c-76 -22 -153 -34 -230 -34zM548 212c59 0 116 21 169 63v176h-139c-52 -1 -95 -13 -129 -37s-51 -55 -51 -94c0 -72 50 -108 150 -108zM1227 842c-55 0 -97 -16 -125 -48c-30 -33 -48 -82 -55 -148h309v26c0 54 -11 96 -33 126
c-22 29 -54 44 -96 44z" />
    <glyph glyph-name="ccedilla" unicode="&#xe7;" horiz-adv-x="1064" 
d="M552 240c47 0 84 13 110 38c26 26 39 62 38 108h316c0 -119 -42 -216 -128 -292c-84 -76 -194 -114 -328 -114c-157 0 -281 49 -372 148s-136 235 -136 410v14c0 109 20 206 60 290c41 83 99 148 175 192c76 46 166 68 270 68c141 0 252 -39 335 -117s124 -184 124 -317
h-316c0 56 -14 99 -41 129s-64 45 -110 45c-87 0 -138 -56 -153 -167c-5 -35 -7 -84 -7 -146c0 -109 13 -184 39 -226s67 -63 124 -63zM698 10l-10 -61c100 -19 150 -76 150 -173c0 -77 -33 -138 -99 -182s-158 -66 -275 -66l-7 186c59 0 88 26 88 77c0 25 -10 43 -32 53
c-20 10 -55 17 -102 20l31 146h256z" />
    <glyph glyph-name="egrave" unicode="&#xe8;" horiz-adv-x="1115" 
d="M618 -20c-166 0 -300 50 -403 148c-103 100 -154 228 -154 387v28c0 111 21 208 61 293c42 85 101 150 180 196c79 47 172 70 280 70c152 0 272 -47 360 -142c88 -94 132 -225 132 -394v-131h-670c12 -61 38 -108 79 -143s93 -52 158 -52c107 0 190 37 250 112l154 -182
c-42 -58 -101 -104 -179 -138c-76 -35 -159 -52 -248 -52zM580 842c-99 0 -157 -65 -176 -196h340v26c1 54 -12 96 -41 126c-29 29 -70 44 -123 44zM694 1223h-274l-282 314h356z" />
    <glyph glyph-name="eacute" unicode="&#xe9;" horiz-adv-x="1115" 
d="M618 -20c-166 0 -300 50 -403 148c-103 100 -154 228 -154 387v28c0 111 21 208 61 293c42 85 101 150 180 196c79 47 172 70 280 70c152 0 272 -47 360 -142c88 -94 132 -225 132 -394v-131h-670c12 -61 38 -108 79 -143s93 -52 158 -52c107 0 190 37 250 112l154 -182
c-42 -58 -101 -104 -179 -138c-76 -35 -159 -52 -248 -52zM580 842c-99 0 -157 -65 -176 -196h340v26c1 54 -12 96 -41 126c-29 29 -70 44 -123 44zM576 1537h356l-278 -314h-275z" />
    <glyph glyph-name="ecircumflex" unicode="&#xea;" horiz-adv-x="1115" 
d="M618 -20c-166 0 -300 50 -403 148c-103 100 -154 228 -154 387v28c0 111 21 208 61 293c42 85 101 150 180 196c79 47 172 70 280 70c152 0 272 -47 360 -142c88 -94 132 -225 132 -394v-131h-670c12 -61 38 -108 79 -143s93 -52 158 -52c107 0 190 37 250 112l154 -182
c-42 -58 -101 -104 -179 -138c-76 -35 -159 -52 -248 -52zM580 842c-99 0 -157 -65 -176 -196h340v26c1 54 -12 96 -41 126c-29 29 -70 44 -123 44zM958 1256v-13h-266l-159 136l-159 -136h-260v17l323 277h193z" />
    <glyph glyph-name="edieresis" unicode="&#xeb;" horiz-adv-x="1115" 
d="M618 -20c-166 0 -300 50 -403 148c-103 100 -154 228 -154 387v28c0 111 21 208 61 293c42 85 101 150 180 196c79 47 172 70 280 70c152 0 272 -47 360 -142c88 -94 132 -225 132 -394v-131h-670c12 -61 38 -108 79 -143s93 -52 158 -52c107 0 190 37 250 112l154 -182
c-42 -58 -101 -104 -179 -138c-76 -35 -159 -52 -248 -52zM580 842c-99 0 -157 -65 -176 -196h340v26c1 54 -12 96 -41 126c-29 29 -70 44 -123 44zM121 1366c0 37 15 68 43 94c30 26 65 39 108 39s78 -13 108 -39c28 -26 43 -57 43 -94s-15 -68 -43 -94
c-30 -26 -65 -39 -108 -39s-78 13 -108 39c-28 26 -43 57 -43 94zM640 1366c0 37 14 68 44 94c28 26 64 39 107 39s79 -13 107 -39c30 -26 44 -57 44 -94s-14 -68 -44 -94c-28 -26 -64 -39 -107 -39s-79 13 -107 39c-30 26 -44 57 -44 94z" />
    <glyph glyph-name="igrave" unicode="&#xec;" horiz-adv-x="584" 
d="M462 0h-339v1082h339v-1082zM455 1202h-274l-282 314h356z" />
    <glyph glyph-name="iacute" unicode="&#xed;" horiz-adv-x="584" 
d="M462 0h-339v1082h339v-1082zM336 1516h356l-278 -314h-275z" />
    <glyph glyph-name="icircumflex" unicode="&#xee;" horiz-adv-x="584" 
d="M462 0h-339v1082h339v-1082zM719 1235v-13h-266l-159 136l-159 -136h-260v17l323 277h193z" />
    <glyph glyph-name="idieresis" unicode="&#xef;" horiz-adv-x="584" 
d="M462 0h-339v1082h339v-1082zM-118 1345c0 37 14 68 44 94c28 26 64 39 107 39s79 -13 107 -39c30 -26 44 -57 44 -94s-14 -68 -44 -94c-28 -26 -64 -39 -107 -39s-79 13 -107 39c-30 26 -44 57 -44 94zM401 1345c0 37 15 68 43 94c30 26 65 39 108 39s78 -13 108 -39
c28 -26 43 -57 43 -94s-15 -68 -43 -94c-30 -26 -65 -39 -108 -39s-78 13 -108 39c-28 26 -43 57 -43 94z" />
    <glyph glyph-name="eth" unicode="&#xf0;" horiz-adv-x="1165" 
d="M862 1308c174 -173 261 -392 261 -658v-57c0 -118 -23 -224 -71 -319c-46 -94 -111 -166 -194 -218c-83 -50 -175 -76 -277 -76c-99 0 -188 21 -267 64c-79 42 -141 100 -184 176c-44 74 -66 157 -66 248c0 155 40 276 120 363s191 130 334 130c85 0 161 -21 228 -62
c-33 93 -85 173 -156 241l-178 -110l-78 118l136 84c-72 44 -153 78 -244 103l108 244c157 -32 296 -91 415 -176l163 101l77 -118zM585 240c63 0 112 28 147 82c35 56 53 134 53 235v97c-44 44 -109 66 -194 66c-65 0 -113 -22 -143 -68c-31 -44 -46 -106 -46 -184
c0 -68 17 -123 50 -165s78 -63 133 -63z" />
    <glyph glyph-name="ntilde" unicode="&#xf1;" horiz-adv-x="1155" 
d="M404 1082l11 -127c75 98 178 147 309 147c113 0 197 -34 252 -101c56 -67 85 -169 87 -304v-697h-338v683c0 55 -11 95 -33 121c-22 25 -62 38 -120 38c-66 0 -115 -26 -147 -78v-764h-337v1082h316zM963 1528c0 -76 -22 -140 -67 -194c-44 -52 -99 -79 -164 -79
c-44 0 -93 14 -147 42s-98 42 -131 42c-21 0 -40 -7 -54 -22c-16 -15 -23 -37 -23 -68l-187 10c0 74 22 138 66 192c45 54 99 81 164 81c33 0 77 -12 131 -36c54 -25 88 -39 103 -42c14 -3 29 -5 45 -5c21 0 40 7 55 22s23 37 23 68z" />
    <glyph glyph-name="ograve" unicode="&#xf2;" horiz-adv-x="1150" 
d="M52 551c0 108 21 204 63 289c42 84 102 149 181 194s171 68 277 68c162 0 290 -50 383 -150c93 -101 140 -237 140 -410v-12c0 -169 -47 -302 -140 -402c-94 -98 -221 -148 -381 -148c-154 0 -278 46 -371 138c-93 93 -144 218 -151 376zM389 530c0 -100 16 -173 47 -220
s78 -70 139 -70c120 0 181 92 184 277v34c0 194 -62 291 -186 291c-113 0 -174 -84 -183 -251zM737 1222h-274l-282 314h356z" />
    <glyph glyph-name="oacute" unicode="&#xf3;" horiz-adv-x="1150" 
d="M52 551c0 108 21 204 63 289c42 84 102 149 181 194s171 68 277 68c162 0 290 -50 383 -150c93 -101 140 -237 140 -410v-12c0 -169 -47 -302 -140 -402c-94 -98 -221 -148 -381 -148c-154 0 -278 46 -371 138c-93 93 -144 218 -151 376zM389 530c0 -100 16 -173 47 -220
s78 -70 139 -70c120 0 181 92 184 277v34c0 194 -62 291 -186 291c-113 0 -174 -84 -183 -251zM619 1536h356l-278 -314h-275z" />
    <glyph glyph-name="ocircumflex" unicode="&#xf4;" horiz-adv-x="1150" 
d="M52 551c0 108 21 204 63 289c42 84 102 149 181 194s171 68 277 68c162 0 290 -50 383 -150c93 -101 140 -237 140 -410v-12c0 -169 -47 -302 -140 -402c-94 -98 -221 -148 -381 -148c-154 0 -278 46 -371 138c-93 93 -144 218 -151 376zM389 530c0 -100 16 -173 47 -220
s78 -70 139 -70c120 0 181 92 184 277v34c0 194 -62 291 -186 291c-113 0 -174 -84 -183 -251zM1001 1255v-13h-266l-159 136l-159 -136h-260v17l323 277h193z" />
    <glyph glyph-name="otilde" unicode="&#xf5;" horiz-adv-x="1150" 
d="M52 551c0 108 21 204 63 289c42 84 102 149 181 194s171 68 277 68c162 0 290 -50 383 -150c93 -101 140 -237 140 -410v-12c0 -169 -47 -302 -140 -402c-94 -98 -221 -148 -381 -148c-154 0 -278 46 -371 138c-93 93 -144 218 -151 376zM389 530c0 -100 16 -173 47 -220
s78 -70 139 -70c120 0 181 92 184 277v34c0 194 -62 291 -186 291c-113 0 -174 -84 -183 -251zM962 1528c0 -76 -22 -140 -67 -194c-44 -52 -99 -79 -164 -79c-44 0 -93 14 -147 42s-98 42 -131 42c-21 0 -40 -7 -54 -22c-16 -15 -23 -37 -23 -68l-187 10
c0 74 22 138 66 192c45 54 99 81 164 81c33 0 77 -12 131 -36c54 -25 88 -39 103 -42c14 -3 29 -5 45 -5c21 0 40 7 55 22s23 37 23 68z" />
    <glyph glyph-name="odieresis" unicode="&#xf6;" horiz-adv-x="1150" 
d="M52 551c0 108 21 204 63 289c42 84 102 149 181 194s171 68 277 68c162 0 290 -50 383 -150c93 -101 140 -237 140 -410v-12c0 -169 -47 -302 -140 -402c-94 -98 -221 -148 -381 -148c-154 0 -278 46 -371 138c-93 93 -144 218 -151 376zM389 530c0 -100 16 -173 47 -220
s78 -70 139 -70c120 0 181 92 184 277v34c0 194 -62 291 -186 291c-113 0 -174 -84 -183 -251zM164 1365c0 37 15 68 43 94c30 26 65 39 108 39s78 -13 108 -39c28 -26 43 -57 43 -94s-15 -68 -43 -94c-30 -26 -65 -39 -108 -39s-78 13 -108 39c-28 26 -43 57 -43 94z
M683 1365c0 37 14 68 44 94c28 26 64 39 107 39s79 -13 107 -39c30 -26 44 -57 44 -94s-14 -68 -44 -94c-28 -26 -64 -39 -107 -39s-79 13 -107 39c-30 26 -44 57 -44 94z" />
    <glyph glyph-name="divide" unicode="&#xf7;" horiz-adv-x="1166" 
d="M1103 563h-1044v244h1044v-244zM394 1086c0 47 17 86 51 118c34 30 79 46 135 46s101 -16 135 -46c34 -32 51 -71 51 -118s-17 -86 -51 -118c-34 -30 -79 -46 -135 -46s-101 16 -135 46c-34 32 -51 71 -51 118zM394 277c0 47 17 87 51 117c34 32 79 47 135 47
s101 -15 135 -47c34 -30 51 -70 51 -117s-17 -87 -51 -117c-34 -32 -79 -47 -135 -47s-101 15 -135 47c-34 30 -51 70 -51 117z" />
    <glyph glyph-name="oslash" unicode="&#xf8;" horiz-adv-x="1151" 
d="M52 551c0 108 21 204 63 289c42 84 102 149 181 194s171 68 277 68c63 0 122 -8 177 -25l69 142h177l-103 -212c135 -99 203 -258 203 -477c0 -169 -47 -302 -140 -402c-94 -98 -221 -148 -381 -148c-62 0 -119 7 -171 22l-71 -147h-177l104 215
c-139 98 -208 258 -208 481zM389 530c0 -64 6 -116 18 -157l224 460c-17 6 -37 9 -58 9c-113 0 -174 -84 -183 -251zM759 551c0 57 -6 106 -17 147l-219 -452c15 -4 32 -6 52 -6c120 0 181 92 184 277v34z" />
    <glyph glyph-name="ugrave" unicode="&#xf9;" horiz-adv-x="1155" 
d="M739 117c-71 -91 -168 -137 -289 -137c-119 0 -208 34 -270 104c-60 68 -91 168 -91 297v701h337v-703c0 -93 45 -139 135 -139c77 0 132 28 165 83v759h339v-1082h-316zM737 1222h-274l-282 314h356z" />
    <glyph glyph-name="uacute" unicode="&#xfa;" horiz-adv-x="1155" 
d="M739 117c-71 -91 -168 -137 -289 -137c-119 0 -208 34 -270 104c-60 68 -91 168 -91 297v701h337v-703c0 -93 45 -139 135 -139c77 0 132 28 165 83v759h339v-1082h-316zM619 1536h356l-278 -314h-275z" />
    <glyph glyph-name="ucircumflex" unicode="&#xfb;" horiz-adv-x="1155" 
d="M739 117c-71 -91 -168 -137 -289 -137c-119 0 -208 34 -270 104c-60 68 -91 168 -91 297v701h337v-703c0 -93 45 -139 135 -139c77 0 132 28 165 83v759h339v-1082h-316zM1001 1255v-13h-266l-159 136l-159 -136h-260v17l323 277h193z" />
    <glyph glyph-name="udieresis" unicode="&#xfc;" horiz-adv-x="1155" 
d="M739 117c-71 -91 -168 -137 -289 -137c-119 0 -208 34 -270 104c-60 68 -91 168 -91 297v701h337v-703c0 -93 45 -139 135 -139c77 0 132 28 165 83v759h339v-1082h-316zM164 1365c0 37 15 68 43 94c30 26 65 39 108 39s78 -13 108 -39c28 -26 43 -57 43 -94
s-15 -68 -43 -94c-30 -26 -65 -39 -108 -39s-78 13 -108 39c-28 26 -43 57 -43 94zM683 1365c0 37 14 68 44 94c28 26 64 39 107 39s79 -13 107 -39c30 -26 44 -57 44 -94s-14 -68 -44 -94c-28 -26 -64 -39 -107 -39s-79 13 -107 39c-30 26 -44 57 -44 94z" />
    <glyph glyph-name="yacute" unicode="&#xfd;" horiz-adv-x="1061" 
d="M527 472l180 610h361l-441 -1263l-19 -46c-63 -140 -173 -210 -332 -210c-44 0 -90 7 -139 20v241h44c47 0 83 7 109 20c24 14 43 39 55 74l27 72l-376 1092h360zM571 1536h356l-278 -314h-275z" />
    <glyph glyph-name="thorn" unicode="&#xfe;" horiz-adv-x="1148" 
d="M1096 533c0 -167 -38 -301 -112 -402c-76 -101 -178 -151 -307 -151c-100 0 -181 36 -244 107v-503h-338v1952h338v-539c63 70 143 105 242 105c131 0 234 -48 309 -146c75 -96 112 -232 112 -406v-17zM759 554c0 192 -56 288 -168 288c-77 0 -130 -28 -158 -84v-431
c29 -58 82 -87 160 -87c107 0 163 92 166 276v38z" />
    <glyph glyph-name="ydieresis" unicode="&#xff;" horiz-adv-x="1061" 
d="M527 472l180 610h361l-441 -1263l-19 -46c-63 -140 -173 -210 -332 -210c-44 0 -90 7 -139 20v241h44c47 0 83 7 109 20c24 14 43 39 55 74l27 72l-376 1092h360zM116 1365c0 37 15 68 43 94c30 26 65 39 108 39s78 -13 108 -39c28 -26 43 -57 43 -94s-15 -68 -43 -94
c-30 -26 -65 -39 -108 -39s-78 13 -108 39c-28 26 -43 57 -43 94zM635 1365c0 37 14 68 44 94c28 26 64 39 107 39s79 -13 107 -39c30 -26 44 -57 44 -94s-14 -68 -44 -94c-28 -26 -64 -39 -107 -39s-79 13 -107 39c-30 26 -44 57 -44 94z" />
    <glyph glyph-name="Amacron" unicode="&#x100;" 
d="M937 272h-481l-84 -272h-375l534 1456h330l538 -1456h-377zM540 543h313l-157 505zM1046 1589h-694v173h694v-173z" />
    <glyph glyph-name="amacron" unicode="&#x101;" horiz-adv-x="1087" 
d="M704 0c-12 22 -23 54 -32 97c-62 -78 -149 -117 -260 -117c-102 0 -189 31 -260 92c-71 62 -107 140 -107 233c0 117 43 206 130 266s213 90 378 90h104v57c0 99 -43 149 -129 149c-80 0 -120 -39 -120 -118h-337c0 105 45 190 133 255c90 65 203 98 341 98
s247 -34 327 -101s121 -160 123 -277v-479c1 -99 17 -175 46 -228v-17h-337zM493 220c42 0 77 9 105 27c27 18 47 38 59 61v173h-98c-117 0 -176 -53 -176 -158c0 -31 10 -55 31 -75c21 -18 47 -28 79 -28zM881 1280h-694v173h694v-173z" />
    <glyph glyph-name="Abreve" unicode="&#x102;" 
d="M937 272h-481l-84 -272h-375l534 1456h330l538 -1456h-377zM540 543h313l-157 505zM1070 1848c0 -91 -34 -165 -101 -222s-157 -85 -269 -85s-202 28 -269 85s-101 131 -101 222h229c0 -40 13 -71 37 -94c26 -22 60 -33 104 -33s78 11 102 33c25 21 37 53 37 94h231z" />
    <glyph glyph-name="abreve" unicode="&#x103;" horiz-adv-x="1087" 
d="M704 0c-12 22 -23 54 -32 97c-62 -78 -149 -117 -260 -117c-102 0 -189 31 -260 92c-71 62 -107 140 -107 233c0 117 43 206 130 266s213 90 378 90h104v57c0 99 -43 149 -129 149c-80 0 -120 -39 -120 -118h-337c0 105 45 190 133 255c90 65 203 98 341 98
s247 -34 327 -101s121 -160 123 -277v-479c1 -99 17 -175 46 -228v-17h-337zM493 220c42 0 77 9 105 27c27 18 47 38 59 61v173h-98c-117 0 -176 -53 -176 -158c0 -31 10 -55 31 -75c21 -18 47 -28 79 -28zM905 1538c0 -91 -34 -165 -101 -222s-157 -85 -269 -85
s-202 28 -269 85s-101 131 -101 222h229c0 -40 13 -71 37 -94c26 -22 60 -33 104 -33s78 11 102 33c25 21 37 53 37 94h231z" />
    <glyph glyph-name="Aogonek" unicode="&#x104;" 
d="M861 1456l538 -1456h-107c-52 -26 -89 -51 -112 -74c-22 -24 -33 -53 -33 -87c0 -41 20 -62 60 -62c20 0 43 6 69 18l38 -168c-49 -29 -104 -44 -166 -44c-73 0 -132 19 -176 58c-45 39 -67 91 -67 156c0 87 38 158 114 213l-82 262h-481l-84 -272h-375l534 1456h330z
M540 543h313l-157 505z" />
    <glyph glyph-name="aogonek" unicode="&#x105;" horiz-adv-x="1087" 
d="M702 3c-13 26 -23 57 -30 94c-62 -78 -149 -117 -260 -117c-102 0 -189 31 -260 92c-71 62 -107 140 -107 233c0 117 43 206 130 266s213 90 378 90h104v57c0 99 -43 149 -129 149c-80 0 -120 -39 -120 -118h-337c0 105 45 190 133 255c90 65 203 98 341 98
s247 -34 327 -101s121 -160 123 -277v-479c1 -99 17 -175 46 -228v-17h-55c-52 -26 -89 -51 -112 -74c-22 -24 -33 -53 -33 -87c0 -41 20 -62 60 -62c20 0 43 6 69 18l38 -168c-49 -29 -104 -44 -166 -44c-73 0 -132 19 -176 58c-45 39 -67 91 -67 156c0 85 34 153 103 206z
M493 220c42 0 77 9 105 27c27 18 47 38 59 61v173h-98c-117 0 -176 -53 -176 -158c0 -31 10 -55 31 -75c21 -18 47 -28 79 -28z" />
    <glyph glyph-name="Cacute" unicode="&#x106;" horiz-adv-x="1344" 
d="M1288 493c-5 -101 -32 -191 -82 -269c-50 -77 -120 -137 -210 -180c-91 -43 -194 -64 -310 -64c-191 0 -342 62 -452 187s-165 301 -165 528v72c0 143 25 267 75 375c49 106 121 189 214 248c93 58 201 87 324 87c177 0 319 -47 426 -139c107 -94 168 -222 183 -385h-350
c-3 89 -25 152 -67 191s-106 58 -192 58c-87 0 -151 -33 -192 -98s-62 -170 -64 -313v-103c0 -155 20 -266 58 -333c40 -67 107 -100 202 -100c81 0 142 19 185 57s65 98 68 181h349zM735 1846h356l-278 -314h-275z" />
    <glyph glyph-name="cacute" unicode="&#x107;" horiz-adv-x="1064" 
d="M552 240c47 0 84 13 110 38c26 26 39 62 38 108h316c0 -119 -42 -216 -128 -292c-84 -76 -194 -114 -328 -114c-157 0 -281 49 -372 148s-136 235 -136 410v14c0 109 20 206 60 290c41 83 99 148 175 192c76 46 166 68 270 68c141 0 252 -39 335 -117s124 -184 124 -317
h-316c0 56 -14 99 -41 129s-64 45 -110 45c-87 0 -138 -56 -153 -167c-5 -35 -7 -84 -7 -146c0 -109 13 -184 39 -226s67 -63 124 -63zM579 1536h356l-278 -314h-275z" />
    <glyph glyph-name="Ccircumflex" unicode="&#x108;" horiz-adv-x="1344" 
d="M1288 493c-5 -101 -32 -191 -82 -269c-50 -77 -120 -137 -210 -180c-91 -43 -194 -64 -310 -64c-191 0 -342 62 -452 187s-165 301 -165 528v72c0 143 25 267 75 375c49 106 121 189 214 248c93 58 201 87 324 87c177 0 319 -47 426 -139c107 -94 168 -222 183 -385h-350
c-3 89 -25 152 -67 191s-106 58 -192 58c-87 0 -151 -33 -192 -98s-62 -170 -64 -313v-103c0 -155 20 -266 58 -333c40 -67 107 -100 202 -100c81 0 142 19 185 57s65 98 68 181h349zM1117 1565v-13h-266l-159 136l-159 -136h-260v17l323 277h193z" />
    <glyph glyph-name="ccircumflex" unicode="&#x109;" horiz-adv-x="1064" 
d="M552 240c47 0 84 13 110 38c26 26 39 62 38 108h316c0 -119 -42 -216 -128 -292c-84 -76 -194 -114 -328 -114c-157 0 -281 49 -372 148s-136 235 -136 410v14c0 109 20 206 60 290c41 83 99 148 175 192c76 46 166 68 270 68c141 0 252 -39 335 -117s124 -184 124 -317
h-316c0 56 -14 99 -41 129s-64 45 -110 45c-87 0 -138 -56 -153 -167c-5 -35 -7 -84 -7 -146c0 -109 13 -184 39 -226s67 -63 124 -63zM961 1255v-13h-266l-159 136l-159 -136h-260v17l323 277h193z" />
    <glyph glyph-name="Cdotaccent" unicode="&#x10a;" horiz-adv-x="1344" 
d="M1288 493c-5 -101 -32 -191 -82 -269c-50 -77 -120 -137 -210 -180c-91 -43 -194 -64 -310 -64c-191 0 -342 62 -452 187s-165 301 -165 528v72c0 143 25 267 75 375c49 106 121 189 214 248c93 58 201 87 324 87c177 0 319 -47 426 -139c107 -94 168 -222 183 -385h-350
c-3 89 -25 152 -67 191s-106 58 -192 58c-87 0 -151 -33 -192 -98s-62 -170 -64 -313v-103c0 -155 20 -266 58 -333c40 -67 107 -100 202 -100c81 0 142 19 185 57s65 98 68 181h349zM525 1711c0 43 16 79 47 106s71 41 119 41c47 0 87 -14 118 -41s47 -63 47 -106
s-16 -78 -47 -105s-71 -41 -118 -41c-48 0 -88 14 -119 41s-47 62 -47 105z" />
    <glyph glyph-name="cdotaccent" unicode="&#x10b;" horiz-adv-x="1064" 
d="M552 240c47 0 84 13 110 38c26 26 39 62 38 108h316c0 -119 -42 -216 -128 -292c-84 -76 -194 -114 -328 -114c-157 0 -281 49 -372 148s-136 235 -136 410v14c0 109 20 206 60 290c41 83 99 148 175 192c76 46 166 68 270 68c141 0 252 -39 335 -117s124 -184 124 -317
h-316c0 56 -14 99 -41 129s-64 45 -110 45c-87 0 -138 -56 -153 -167c-5 -35 -7 -84 -7 -146c0 -109 13 -184 39 -226s67 -63 124 -63zM369 1401c0 43 16 79 47 106s71 41 119 41c47 0 87 -14 118 -41s47 -63 47 -106s-16 -78 -47 -105s-71 -41 -118 -41
c-48 0 -88 14 -119 41s-47 62 -47 105z" />
    <glyph glyph-name="Ccaron" unicode="&#x10c;" horiz-adv-x="1344" 
d="M1288 493c-5 -101 -32 -191 -82 -269c-50 -77 -120 -137 -210 -180c-91 -43 -194 -64 -310 -64c-191 0 -342 62 -452 187s-165 301 -165 528v72c0 143 25 267 75 375c49 106 121 189 214 248c93 58 201 87 324 87c177 0 319 -47 426 -139c107 -94 168 -222 183 -385h-350
c-3 89 -25 152 -67 191s-106 58 -192 58c-87 0 -151 -33 -192 -98s-62 -170 -64 -313v-103c0 -155 20 -266 58 -333c40 -67 107 -100 202 -100c81 0 142 19 185 57s65 98 68 181h349zM692 1713l147 134h287v-11l-326 -283h-217l-328 285v9h290z" />
    <glyph glyph-name="ccaron" unicode="&#x10d;" horiz-adv-x="1064" 
d="M552 240c47 0 84 13 110 38c26 26 39 62 38 108h316c0 -119 -42 -216 -128 -292c-84 -76 -194 -114 -328 -114c-157 0 -281 49 -372 148s-136 235 -136 410v14c0 109 20 206 60 290c41 83 99 148 175 192c76 46 166 68 270 68c141 0 252 -39 335 -117s124 -184 124 -317
h-316c0 56 -14 99 -41 129s-64 45 -110 45c-87 0 -138 -56 -153 -167c-5 -35 -7 -84 -7 -146c0 -109 13 -184 39 -226s67 -63 124 -63zM536 1403l147 134h287v-11l-326 -283h-217l-328 285v9h290z" />
    <glyph glyph-name="Dcaron" unicode="&#x10e;" horiz-adv-x="1324" 
d="M110 0v1456h469c129 0 244 -29 347 -88c103 -58 183 -140 240 -246c58 -107 87 -226 88 -358v-67c0 -133 -28 -253 -84 -359c-57 -105 -136 -188 -238 -248c-103 -59 -217 -89 -343 -90h-479zM461 1185v-915h122c101 0 178 36 232 108c54 71 81 178 81 319v63
c0 141 -27 247 -81 318s-133 107 -236 107h-118zM482 1713l147 134h287v-11l-326 -283h-217l-328 285v9h290z" />
    <glyph glyph-name="dcaron" unicode="&#x10f;" horiz-adv-x="1302" 
d="M52 549c0 171 37 306 111 405s177 148 310 148c97 0 178 -38 244 -114v548h338v-1536h-303l-17 116c-69 -91 -157 -136 -264 -136c-129 0 -231 49 -306 148s-113 239 -113 421zM389 528c0 -192 56 -288 168 -288c75 0 128 31 160 94v412c-31 64 -83 96 -158 96
c-104 0 -160 -84 -169 -252zM1302 1106l-159 80l26 46c33 63 50 135 50 216v89h225v-74c-1 -57 -14 -119 -40 -185c-26 -67 -60 -124 -102 -172z" />
    <glyph glyph-name="Dcroat" unicode="&#x110;" horiz-adv-x="1354" 
d="M140 0v635h-170v191h170v630h469c129 0 244 -29 347 -88c103 -58 183 -140 240 -246c58 -107 87 -226 88 -358v-67c0 -133 -28 -253 -84 -359c-57 -105 -136 -188 -238 -248c-103 -59 -217 -89 -343 -90h-479zM700 635h-209v-365h122c101 0 178 36 232 108
c54 71 81 178 81 319v63c0 141 -27 247 -81 318s-133 107 -236 107h-118v-359h209v-191z" />
    <glyph glyph-name="dcroat" unicode="&#x111;" horiz-adv-x="1321" 
d="M1195 1215h-140v-1215h-303l-17 116c-69 -91 -157 -136 -264 -136c-129 0 -231 49 -306 148s-113 239 -113 421c0 171 37 306 111 405s177 148 310 148c97 0 178 -38 244 -114v227h-252v191h252v130h338v-130h140v-191zM389 528c0 -192 56 -288 168 -288
c75 0 128 31 160 94v412c-31 64 -83 96 -158 96c-104 0 -160 -84 -169 -252z" />
    <glyph glyph-name="Emacron" unicode="&#x112;" horiz-adv-x="1146" 
d="M1013 617h-552v-347h652v-270h-1003v1456h1005v-271h-654v-307h552v-261zM990 1589h-694v173h694v-173z" />
    <glyph glyph-name="emacron" unicode="&#x113;" horiz-adv-x="1115" 
d="M618 -20c-166 0 -300 50 -403 148c-103 100 -154 228 -154 387v28c0 111 21 208 61 293c42 85 101 150 180 196c79 47 172 70 280 70c152 0 272 -47 360 -142c88 -94 132 -225 132 -394v-131h-670c12 -61 38 -108 79 -143s93 -52 158 -52c107 0 190 37 250 112l154 -182
c-42 -58 -101 -104 -179 -138c-76 -35 -159 -52 -248 -52zM580 842c-99 0 -157 -65 -176 -196h340v26c1 54 -12 96 -41 126c-29 29 -70 44 -123 44zM880 1281h-694v173h694v-173z" />
    <glyph glyph-name="Ebreve" unicode="&#x114;" horiz-adv-x="1146" 
d="M1013 617h-552v-347h652v-270h-1003v1456h1005v-271h-654v-307h552v-261zM1014 1848c0 -91 -34 -165 -101 -222s-157 -85 -269 -85s-202 28 -269 85s-101 131 -101 222h229c0 -40 13 -71 37 -94c26 -22 60 -33 104 -33s78 11 102 33c25 21 37 53 37 94h231z" />
    <glyph glyph-name="ebreve" unicode="&#x115;" horiz-adv-x="1115" 
d="M618 -20c-166 0 -300 50 -403 148c-103 100 -154 228 -154 387v28c0 111 21 208 61 293c42 85 101 150 180 196c79 47 172 70 280 70c152 0 272 -47 360 -142c88 -94 132 -225 132 -394v-131h-670c12 -61 38 -108 79 -143s93 -52 158 -52c107 0 190 37 250 112l154 -182
c-42 -58 -101 -104 -179 -138c-76 -35 -159 -52 -248 -52zM580 842c-99 0 -157 -65 -176 -196h340v26c1 54 -12 96 -41 126c-29 29 -70 44 -123 44zM904 1539c0 -91 -34 -165 -101 -222s-157 -85 -269 -85s-202 28 -269 85s-101 131 -101 222h229c0 -40 13 -71 37 -94
c26 -22 60 -33 104 -33s78 11 102 33c25 21 37 53 37 94h231z" />
    <glyph glyph-name="Edotaccent" unicode="&#x116;" horiz-adv-x="1146" 
d="M1013 617h-552v-347h652v-270h-1003v1456h1005v-271h-654v-307h552v-261zM476 1711c0 43 16 79 47 106s71 41 119 41c47 0 87 -14 118 -41s47 -63 47 -106s-16 -78 -47 -105s-71 -41 -118 -41c-48 0 -88 14 -119 41s-47 62 -47 105z" />
    <glyph glyph-name="edotaccent" unicode="&#x117;" horiz-adv-x="1115" 
d="M618 -20c-166 0 -300 50 -403 148c-103 100 -154 228 -154 387v28c0 111 21 208 61 293c42 85 101 150 180 196c79 47 172 70 280 70c152 0 272 -47 360 -142c88 -94 132 -225 132 -394v-131h-670c12 -61 38 -108 79 -143s93 -52 158 -52c107 0 190 37 250 112l154 -182
c-42 -58 -101 -104 -179 -138c-76 -35 -159 -52 -248 -52zM580 842c-99 0 -157 -65 -176 -196h340v26c1 54 -12 96 -41 126c-29 29 -70 44 -123 44zM366 1402c0 43 16 79 47 106s71 41 119 41c47 0 87 -14 118 -41s47 -63 47 -106s-16 -78 -47 -105s-71 -41 -118 -41
c-48 0 -88 14 -119 41s-47 62 -47 105z" />
    <glyph glyph-name="Eogonek" unicode="&#x118;" horiz-adv-x="1146" 
d="M1013 617h-552v-347h652v-270h-195c-52 -26 -89 -51 -112 -74c-22 -24 -33 -53 -33 -87c0 -41 20 -62 60 -62c20 0 43 6 69 18l38 -168c-49 -29 -104 -44 -166 -44c-73 0 -132 19 -176 58c-45 39 -67 91 -67 156c0 83 33 150 100 203h-521v1456h1005v-271h-654v-307h552
v-261z" />
    <glyph glyph-name="eogonek" unicode="&#x119;" horiz-adv-x="1115" 
d="M1045 170c-38 -55 -94 -99 -168 -134l3 -1c-52 -26 -89 -51 -112 -75c-22 -23 -33 -52 -33 -86c0 -41 20 -62 60 -62c20 0 43 6 69 18l38 -168c-49 -29 -104 -44 -166 -44c-73 0 -132 19 -176 58c-45 39 -67 91 -67 156c0 61 16 111 49 152c-145 15 -261 71 -349 167
s-132 217 -132 362v30c0 111 21 208 61 293c42 85 101 150 180 196c79 47 172 70 280 70c152 0 272 -47 360 -142c88 -94 132 -225 132 -394v-131h-670c12 -61 38 -108 79 -143s93 -52 158 -52c107 0 190 37 250 112zM580 842c-99 0 -157 -65 -176 -196h340v26
c1 54 -12 96 -41 126c-29 29 -70 44 -123 44z" />
    <glyph glyph-name="Ecaron" unicode="&#x11a;" horiz-adv-x="1146" 
d="M1013 617h-552v-347h652v-270h-1003v1456h1005v-271h-654v-307h552v-261zM643 1713l147 134h287v-11l-326 -283h-217l-328 285v9h290z" />
    <glyph glyph-name="ecaron" unicode="&#x11b;" horiz-adv-x="1115" 
d="M618 -20c-166 0 -300 50 -403 148c-103 100 -154 228 -154 387v28c0 111 21 208 61 293c42 85 101 150 180 196c79 47 172 70 280 70c152 0 272 -47 360 -142c88 -94 132 -225 132 -394v-131h-670c12 -61 38 -108 79 -143s93 -52 158 -52c107 0 190 37 250 112l154 -182
c-42 -58 -101 -104 -179 -138c-76 -35 -159 -52 -248 -52zM580 842c-99 0 -157 -65 -176 -196h340v26c1 54 -12 96 -41 126c-29 29 -70 44 -123 44zM533 1404l147 134h287v-11l-326 -283h-217l-328 285v9h290z" />
    <glyph glyph-name="Gcircumflex" unicode="&#x11c;" horiz-adv-x="1396" 
d="M1302 180c-54 -60 -133 -108 -237 -145s-218 -55 -342 -55c-191 0 -343 58 -457 175s-175 279 -183 487l-1 126c0 143 25 268 76 376c51 106 123 189 218 246c94 58 203 87 327 87c181 0 322 -41 423 -125c100 -82 158 -206 175 -371h-338c-12 81 -38 139 -78 174
s-97 52 -170 52c-88 0 -156 -37 -204 -112s-72 -181 -73 -320v-88c0 -145 25 -255 74 -327c50 -74 128 -110 235 -110c91 0 159 20 204 61v226h-244v241h595v-598zM1134 1565v-13h-266l-159 136l-159 -136h-260v17l323 277h193z" />
    <glyph glyph-name="gcircumflex" unicode="&#x11d;" horiz-adv-x="1178" 
d="M55 549c0 109 18 206 54 290s88 149 155 195c67 45 146 68 235 68c113 0 201 -38 264 -114l12 94h306v-1041c0 -95 -22 -178 -67 -249c-44 -70 -108 -124 -192 -162c-84 -37 -181 -56 -292 -56c-79 0 -156 15 -230 45c-75 30 -132 69 -171 117l141 198
c63 -74 145 -111 248 -111c149 0 224 77 224 230v34c-65 -71 -146 -107 -245 -107c-132 0 -239 50 -320 152c-81 100 -122 236 -122 405v12zM393 528c0 -89 17 -159 50 -210c33 -52 80 -78 140 -78c73 0 126 24 159 73v455c-33 49 -85 74 -157 74c-60 0 -107 -27 -141 -80
c-34 -54 -51 -132 -51 -234zM978 1255v-13h-266l-159 136l-159 -136h-260v17l323 277h193z" />
    <glyph glyph-name="Gbreve" unicode="&#x11e;" horiz-adv-x="1396" 
d="M1302 180c-54 -60 -133 -108 -237 -145s-218 -55 -342 -55c-191 0 -343 58 -457 175s-175 279 -183 487l-1 126c0 143 25 268 76 376c51 106 123 189 218 246c94 58 203 87 327 87c181 0 322 -41 423 -125c100 -82 158 -206 175 -371h-338c-12 81 -38 139 -78 174
s-97 52 -170 52c-88 0 -156 -37 -204 -112s-72 -181 -73 -320v-88c0 -145 25 -255 74 -327c50 -74 128 -110 235 -110c91 0 159 20 204 61v226h-244v241h595v-598zM1080 1848c0 -91 -34 -165 -101 -222s-157 -85 -269 -85s-202 28 -269 85s-101 131 -101 222h229
c0 -40 13 -71 37 -94c26 -22 60 -33 104 -33s78 11 102 33c25 21 37 53 37 94h231z" />
    <glyph glyph-name="gbreve" unicode="&#x11f;" horiz-adv-x="1178" 
d="M55 549c0 109 18 206 54 290s88 149 155 195c67 45 146 68 235 68c113 0 201 -38 264 -114l12 94h306v-1041c0 -95 -22 -178 -67 -249c-44 -70 -108 -124 -192 -162c-84 -37 -181 -56 -292 -56c-79 0 -156 15 -230 45c-75 30 -132 69 -171 117l141 198
c63 -74 145 -111 248 -111c149 0 224 77 224 230v34c-65 -71 -146 -107 -245 -107c-132 0 -239 50 -320 152c-81 100 -122 236 -122 405v12zM393 528c0 -89 17 -159 50 -210c33 -52 80 -78 140 -78c73 0 126 24 159 73v455c-33 49 -85 74 -157 74c-60 0 -107 -27 -141 -80
c-34 -54 -51 -132 -51 -234zM924 1538c0 -91 -34 -165 -101 -222s-157 -85 -269 -85s-202 28 -269 85s-101 131 -101 222h229c0 -40 13 -71 37 -94c26 -22 60 -33 104 -33s78 11 102 33c25 21 37 53 37 94h231z" />
    <glyph glyph-name="Gdotaccent" unicode="&#x120;" horiz-adv-x="1396" 
d="M1302 180c-54 -60 -133 -108 -237 -145s-218 -55 -342 -55c-191 0 -343 58 -457 175s-175 279 -183 487l-1 126c0 143 25 268 76 376c51 106 123 189 218 246c94 58 203 87 327 87c181 0 322 -41 423 -125c100 -82 158 -206 175 -371h-338c-12 81 -38 139 -78 174
s-97 52 -170 52c-88 0 -156 -37 -204 -112s-72 -181 -73 -320v-88c0 -145 25 -255 74 -327c50 -74 128 -110 235 -110c91 0 159 20 204 61v226h-244v241h595v-598zM542 1711c0 43 16 79 47 106s71 41 119 41c47 0 87 -14 118 -41s47 -63 47 -106s-16 -78 -47 -105
s-71 -41 -118 -41c-48 0 -88 14 -119 41s-47 62 -47 105z" />
    <glyph glyph-name="gdotaccent" unicode="&#x121;" horiz-adv-x="1178" 
d="M55 549c0 109 18 206 54 290s88 149 155 195c67 45 146 68 235 68c113 0 201 -38 264 -114l12 94h306v-1041c0 -95 -22 -178 -67 -249c-44 -70 -108 -124 -192 -162c-84 -37 -181 -56 -292 -56c-79 0 -156 15 -230 45c-75 30 -132 69 -171 117l141 198
c63 -74 145 -111 248 -111c149 0 224 77 224 230v34c-65 -71 -146 -107 -245 -107c-132 0 -239 50 -320 152c-81 100 -122 236 -122 405v12zM393 528c0 -89 17 -159 50 -210c33 -52 80 -78 140 -78c73 0 126 24 159 73v455c-33 49 -85 74 -157 74c-60 0 -107 -27 -141 -80
c-34 -54 -51 -132 -51 -234zM386 1401c0 43 16 79 47 106s71 41 119 41c47 0 87 -14 118 -41s47 -63 47 -106s-16 -78 -47 -105s-71 -41 -118 -41c-48 0 -88 14 -119 41s-47 62 -47 105z" />
    <glyph glyph-name="uni0122" unicode="&#x122;" horiz-adv-x="1396" 
d="M1302 180c-54 -60 -133 -108 -237 -145s-218 -55 -342 -55c-191 0 -343 58 -457 175s-175 279 -183 487l-1 126c0 143 25 268 76 376c51 106 123 189 218 246c94 58 203 87 327 87c181 0 322 -41 423 -125c100 -82 158 -206 175 -371h-338c-12 81 -38 139 -78 174
s-97 52 -170 52c-88 0 -156 -37 -204 -112s-72 -181 -73 -320v-88c0 -145 25 -255 74 -327c50 -74 128 -110 235 -110c91 0 159 20 204 61v226h-244v241h595v-598zM699 -515l-159 80l26 46c33 63 50 135 50 216v89h225v-74c-1 -57 -14 -119 -40 -186
c-26 -66 -60 -123 -102 -171z" />
    <glyph glyph-name="uni0123" unicode="&#x123;" horiz-adv-x="1178" 
d="M55 549c0 109 18 206 54 290s88 149 155 195c67 45 146 68 235 68c113 0 201 -38 264 -114l12 94h306v-1041c0 -95 -22 -178 -67 -249c-44 -70 -108 -124 -192 -162c-84 -37 -181 -56 -292 -56c-79 0 -156 15 -230 45c-75 30 -132 69 -171 117l141 198
c63 -74 145 -111 248 -111c149 0 224 77 224 230v34c-65 -71 -146 -107 -245 -107c-132 0 -239 50 -320 152c-81 100 -122 236 -122 405v12zM393 528c0 -89 17 -159 50 -210c33 -52 80 -78 140 -78c73 0 126 24 159 73v455c-33 49 -85 74 -157 74c-60 0 -107 -27 -141 -80
c-34 -54 -51 -132 -51 -234zM571 1730l168 -73c-45 -93 -68 -178 -70 -253l-2 -143h-237v120c0 176 47 292 141 349z" />
    <glyph glyph-name="Hcircumflex" unicode="&#x124;" horiz-adv-x="1439" 
d="M1327 0h-349v608h-517v-608h-351v1456h351v-578h517v578h349v-1456zM1152 1565v-13h-266l-159 136l-159 -136h-260v17l323 277h193z" />
    <glyph glyph-name="hcircumflex" unicode="&#x125;" horiz-adv-x="1156" 
d="M424 966c72 91 164 136 276 136c119 0 209 -35 270 -106s92 -175 93 -313v-683h-338v675c0 57 -12 99 -35 127c-23 26 -63 40 -119 40c-69 0 -118 -22 -147 -66v-776h-337v1536h337v-570zM960 1658v-13h-266l-159 136l-159 -136h-260v17l323 277h193z" />
    <glyph glyph-name="Hbar" unicode="&#x126;" horiz-adv-x="1492" 
d="M1352 1243h117v-183h-117v-1060h-349v608h-517v-608h-351v1060h-102v183h102v213h351v-213h517v213h349v-213zM486 878h517v182h-517v-182z" />
    <glyph glyph-name="hbar" unicode="&#x127;" horiz-adv-x="1186" 
d="M669 1211h-215v-245c72 91 164 136 276 136c119 0 209 -35 270 -106s92 -175 93 -313v-683h-338v675c0 57 -12 99 -35 127c-23 26 -63 40 -119 40c-69 0 -118 -22 -147 -66v-776h-337v1211h-178v191h178v134h337v-134h215v-191z" />
    <glyph glyph-name="Itilde" unicode="&#x128;" horiz-adv-x="618" 
d="M484 0h-350v1456h350v-1456zM695 1837c0 -76 -22 -141 -67 -193c-44 -54 -99 -80 -164 -80c-44 0 -93 14 -147 42s-98 42 -131 42c-21 0 -40 -7 -54 -22c-16 -15 -23 -37 -23 -68l-187 10c0 74 22 138 66 192c45 54 99 81 164 81c33 0 77 -12 131 -37
c54 -24 88 -38 103 -41c14 -3 29 -5 45 -5c21 0 40 7 55 22s23 37 23 68z" />
    <glyph glyph-name="itilde" unicode="&#x129;" horiz-adv-x="584" 
d="M462 0h-339v1082h339v-1082zM680 1507c0 -76 -22 -141 -66 -193c-45 -54 -100 -80 -165 -80c-44 0 -93 14 -147 42s-98 42 -131 42c-21 0 -39 -7 -55 -22c-14 -15 -22 -37 -22 -68l-187 10c0 74 22 138 67 192c44 54 98 81 163 81c33 0 77 -12 131 -37
c54 -24 88 -38 102 -41c15 -3 30 -5 46 -5c21 0 40 7 55 22s23 37 23 68z" />
    <glyph glyph-name="Imacron" unicode="&#x12a;" horiz-adv-x="618" 
d="M484 0h-350v1456h350v-1456zM656 1589h-694v173h694v-173z" />
    <glyph glyph-name="imacron" unicode="&#x12b;" horiz-adv-x="584" 
d="M462 0h-339v1082h339v-1082zM641 1259h-694v173h694v-173z" />
    <glyph glyph-name="Ibreve" unicode="&#x12c;" horiz-adv-x="618" 
d="M484 0h-350v1456h350v-1456zM680 1848c0 -91 -34 -165 -101 -222s-157 -85 -269 -85s-202 28 -269 85s-101 131 -101 222h229c0 -40 13 -71 37 -94c26 -22 60 -33 104 -33s78 11 102 33c25 21 37 53 37 94h231z" />
    <glyph glyph-name="ibreve" unicode="&#x12d;" horiz-adv-x="584" 
d="M462 0h-339v1082h339v-1082zM665 1518c0 -91 -34 -165 -101 -222s-157 -85 -269 -85s-202 28 -269 85s-101 131 -101 222h229c0 -40 12 -71 38 -94c24 -22 59 -33 103 -33s78 11 103 33c24 21 36 53 36 94h231z" />
    <glyph glyph-name="Iogonek" unicode="&#x12e;" horiz-adv-x="618" 
d="M484 0h-350v1456h350v-1456zM412 0c-52 -26 -89 -51 -112 -74c-22 -24 -33 -53 -33 -87c0 -41 20 -62 60 -62c20 0 43 6 69 18l38 -168c-49 -29 -104 -44 -166 -44c-73 0 -132 19 -176 58c-45 39 -67 91 -67 156c0 115 67 203 201 263z" />
    <glyph glyph-name="iogonek" unicode="&#x12f;" horiz-adv-x="563" 
d="M450 0h-338v1082h338v-1082zM92 1361c0 48 17 87 52 118s80 46 135 46s100 -15 135 -46s52 -70 52 -118s-17 -87 -52 -118s-80 -46 -135 -46s-100 15 -135 46s-52 70 -52 118zM395 0c-52 -26 -89 -51 -111 -74c-23 -24 -34 -53 -34 -87c0 -41 20 -62 60 -62
c20 0 43 6 69 18l38 -168c-49 -29 -104 -44 -166 -44c-73 0 -132 19 -177 58c-44 39 -66 91 -66 156c0 115 67 203 201 263z" />
    <glyph glyph-name="Idotaccent" unicode="&#x130;" horiz-adv-x="618" 
d="M484 0h-350v1456h350v-1456zM141 1711c0 43 16 79 47 106s71 41 119 41c47 0 87 -14 118 -41s47 -63 47 -106s-16 -78 -47 -105s-71 -41 -118 -41c-48 0 -88 14 -119 41s-47 62 -47 105z" />
    <glyph glyph-name="dotlessi" unicode="&#x131;" horiz-adv-x="584" 
d="M462 0h-339v1082h339v-1082z" />
    <glyph glyph-name="IJ" unicode="&#x132;" horiz-adv-x="1769" 
d="M484 0h-350v1456h350v-1456zM1308 1456h350v-999c0 -93 -22 -175 -64 -248c-44 -73 -104 -129 -180 -169c-78 -40 -163 -60 -258 -60c-159 0 -282 40 -370 120s-132 193 -132 340h352c0 -67 12 -115 34 -145c24 -30 62 -45 116 -45c49 0 86 18 112 54c27 37 40 88 40 153
v999z" />
    <glyph glyph-name="ij" unicode="&#x133;" horiz-adv-x="1116" 
d="M450 0h-338v1082h338v-1082zM92 1361c0 48 17 87 52 118s80 46 135 46s100 -15 135 -46s52 -70 52 -118s-17 -87 -52 -118s-80 -46 -135 -46s-100 15 -135 46s-52 70 -52 118zM1020 1082v-1119c-1 -128 -37 -227 -110 -296s-174 -104 -304 -104c-56 0 -109 6 -159 17v255
c39 -6 70 -9 95 -9c93 0 140 46 140 139v1117h338zM657 1361c0 48 17 87 52 118s80 46 135 46s100 -15 135 -46s52 -70 52 -118s-17 -87 -52 -118s-80 -46 -135 -46s-100 15 -135 46s-52 70 -52 118z" />
    <glyph glyph-name="Jcircumflex" unicode="&#x134;" horiz-adv-x="1151" 
d="M690 1456h350v-999c0 -93 -22 -175 -64 -248c-44 -73 -104 -129 -180 -169c-78 -40 -163 -60 -258 -60c-159 0 -282 40 -370 120s-132 193 -132 340h352c0 -67 12 -115 34 -145c24 -30 62 -45 116 -45c49 0 86 18 112 54c27 37 40 88 40 153v999zM1284 1565v-13h-266
l-159 136l-159 -136h-260v17l323 277h193z" />
    <glyph glyph-name="jcircumflex" unicode="&#x135;" horiz-adv-x="604" 
d="M476 1082v-1095c0 -136 -36 -241 -108 -314s-172 -110 -301 -110c-57 0 -110 6 -159 17l15 255c33 -8 66 -12 98 -12c79 0 118 55 118 166v1093h337zM701 1235v-13h-266l-159 136l-159 -136h-260v17l323 277h193z" />
    <glyph glyph-name="uni0136" unicode="&#x136;" horiz-adv-x="1310" 
d="M605 542l-144 -158v-384h-351v1456h351v-642l122 185l314 457h434l-492 -644l492 -812h-416zM620 -462l-159 80l26 46c33 63 50 135 50 216v89h225v-74c-1 -57 -14 -119 -40 -185c-26 -67 -60 -124 -102 -172z" />
    <glyph glyph-name="uni0137" unicode="&#x137;" horiz-adv-x="1120" 
d="M529 403l-95 -95v-308h-337v1537h337v-816l34 45l254 316h404l-379 -445l404 -637h-386zM555 -484l-159 80l26 46c33 63 50 135 50 216v89h225v-74c-1 -57 -14 -119 -40 -185c-26 -67 -60 -124 -102 -172z" />
    <glyph glyph-name="kgreenlandic" unicode="&#x138;" horiz-adv-x="1242" 
d="M575 378h-120v-378h-337v1082h337v-389h90l225 389h432l-342 -506l350 -576h-434z" />
    <glyph glyph-name="Lacute" unicode="&#x139;" horiz-adv-x="1110" 
d="M461 270h611v-270h-962v1456h351v-1186zM340 1846h356l-278 -314h-275z" />
    <glyph glyph-name="lacute" unicode="&#x13a;" horiz-adv-x="563" 
d="M450 0h-338v1536h338v-1536zM324 1923h356l-278 -314h-275z" />
    <glyph glyph-name="uni013B" unicode="&#x13b;" horiz-adv-x="1110" 
d="M461 270h611v-270h-962v1456h351v-1186zM566 -505l-159 80l26 46c33 63 50 135 50 216v89h225v-74c-1 -57 -14 -119 -40 -186c-26 -66 -60 -123 -102 -171z" />
    <glyph glyph-name="uni013C" unicode="&#x13c;" horiz-adv-x="563" 
d="M450 0h-338v1536h338v-1536zM255 -505l-159 80l26 46c33 63 50 135 50 216v89h225v-74c-1 -57 -14 -119 -40 -186c-26 -66 -60 -123 -102 -171z" />
    <glyph glyph-name="Lcaron" unicode="&#x13d;" horiz-adv-x="1110" 
d="M461 270h611v-270h-962v1456h351v-1186zM808 1026l-159 80l26 46c33 63 50 135 50 216v89h225v-74c-1 -57 -14 -119 -40 -185c-26 -67 -60 -124 -102 -172z" />
    <glyph glyph-name="lcaron" unicode="&#x13e;" horiz-adv-x="713" 
d="M450 0h-338v1536h338v-1536zM683 1106l-159 80l26 46c33 63 50 135 50 216v89h225v-74c-1 -57 -14 -119 -40 -185c-26 -67 -60 -124 -102 -172z" />
    <glyph glyph-name="Ldot" unicode="&#x13f;" horiz-adv-x="1110" 
d="M461 270h611v-270h-962v1456h351v-1186zM597 840c0 43 16 79 47 106s71 41 119 41c47 0 87 -14 118 -41s47 -63 47 -106s-16 -78 -47 -105s-71 -41 -118 -41c-48 0 -88 14 -119 41s-47 62 -47 105z" />
    <glyph glyph-name="ldot" unicode="&#x140;" horiz-adv-x="783" 
d="M450 0h-338v1536h338v-1536zM542 771c0 43 16 79 47 106s71 41 119 41c47 0 87 -14 118 -41s47 -63 47 -106s-16 -78 -47 -105s-71 -41 -118 -41c-48 0 -88 14 -119 41s-47 62 -47 105z" />
    <glyph glyph-name="Lslash" unicode="&#x141;" horiz-adv-x="1160" 
d="M512 914l194 53v-178l-194 -53v-466h611v-270h-962v639l-136 -37v178l136 37v639h351v-542z" />
    <glyph glyph-name="lslash" unicode="&#x142;" horiz-adv-x="662" 
d="M494 925l135 42v-180l-135 -42v-745h-338v640l-130 -40v180l130 40v716h338v-611z" />
    <glyph glyph-name="Nacute" unicode="&#x143;" horiz-adv-x="1438" 
d="M1326 0h-349l-516 906v-906h-351v1456h351l515 -906v906h350v-1456zM769 1846h356l-278 -314h-275z" />
    <glyph glyph-name="nacute" unicode="&#x144;" horiz-adv-x="1155" 
d="M404 1082l11 -127c75 98 178 147 309 147c113 0 197 -34 252 -101c56 -67 85 -169 87 -304v-697h-338v683c0 55 -11 95 -33 121c-22 25 -62 38 -120 38c-66 0 -115 -26 -147 -78v-764h-337v1082h316zM620 1536h356l-278 -314h-275z" />
    <glyph glyph-name="uni0145" unicode="&#x145;" horiz-adv-x="1438" 
d="M1326 0h-349l-516 906v-906h-351v1456h351l515 -906v906h350v-1456zM700 -515l-159 80l26 46c33 63 50 135 50 216v89h225v-74c-1 -57 -14 -119 -40 -186c-26 -66 -60 -123 -102 -171z" />
    <glyph glyph-name="uni0146" unicode="&#x146;" horiz-adv-x="1155" 
d="M404 1082l11 -127c75 98 178 147 309 147c113 0 197 -34 252 -101c56 -67 85 -169 87 -304v-697h-338v683c0 55 -11 95 -33 121c-22 25 -62 38 -120 38c-66 0 -115 -26 -147 -78v-764h-337v1082h316zM553 -505l-159 80l26 46c33 63 50 135 50 216v89h225v-74
c-1 -57 -14 -119 -40 -186c-26 -66 -60 -123 -102 -171z" />
    <glyph glyph-name="Ncaron" unicode="&#x147;" horiz-adv-x="1438" 
d="M1326 0h-349l-516 906v-906h-351v1456h351l515 -906v906h350v-1456zM726 1713l147 134h287v-11l-326 -283h-217l-328 285v9h290z" />
    <glyph glyph-name="ncaron" unicode="&#x148;" horiz-adv-x="1155" 
d="M404 1082l11 -127c75 98 178 147 309 147c113 0 197 -34 252 -101c56 -67 85 -169 87 -304v-697h-338v683c0 55 -11 95 -33 121c-22 25 -62 38 -120 38c-66 0 -115 -26 -147 -78v-764h-337v1082h316zM577 1403l147 134h287v-11l-326 -283h-217l-328 285v9h290z" />
    <glyph glyph-name="napostrophe" unicode="&#x149;" horiz-adv-x="1155" 
d="M404 1082l11 -127c75 98 178 147 309 147c113 0 197 -34 252 -101c56 -67 85 -169 87 -304v-697h-338v683c0 55 -11 95 -33 121c-22 25 -62 38 -120 38c-66 0 -115 -26 -147 -78v-764h-337v1082h316zM28 1104l-159 80l26 46c33 63 50 135 50 216v89h225v-74
c-1 -57 -14 -119 -40 -185c-26 -67 -60 -124 -102 -172z" />
    <glyph glyph-name="Eng" unicode="&#x14a;" horiz-adv-x="1453" 
d="M1337 1456v-1460c0 -139 -37 -246 -109 -321c-74 -75 -176 -112 -308 -112c-59 0 -114 6 -165 17l14 265c32 -7 66 -11 101 -11c78 0 117 55 117 166l-524 907v-907h-350v1456h350l524 -906v906h350z" />
    <glyph glyph-name="eng" unicode="&#x14b;" horiz-adv-x="1151" 
d="M407 1082l13 -154c77 116 179 174 306 174c111 0 194 -37 250 -110c57 -73 86 -182 88 -325v-682c0 -135 -36 -239 -108 -312c-71 -73 -172 -110 -301 -110c-58 0 -111 6 -160 17l14 255c33 -8 67 -12 100 -12c78 0 117 55 117 165v664c0 65 -10 112 -30 144
c-21 30 -54 46 -99 46c-73 0 -129 -25 -170 -74v-768h-337v1082h317z" />
    <glyph glyph-name="Omacron" unicode="&#x14c;" horiz-adv-x="1414" 
d="M1343 698c0 -142 -26 -268 -79 -377s-128 -193 -224 -253c-98 -58 -208 -88 -332 -88s-234 28 -330 86c-96 56 -171 138 -224 244c-54 106 -82 228 -85 365v82c0 143 26 269 79 377c52 110 127 194 224 253c98 59 209 89 334 89c123 0 233 -29 330 -88s172 -142 226 -250
c53 -109 80 -233 81 -373v-67zM986 759c0 145 -24 255 -72 329c-49 76 -118 113 -208 113c-176 0 -269 -132 -279 -396l-1 -107c0 -143 24 -252 71 -329s118 -115 211 -115c89 0 157 38 205 113s72 184 73 325v67zM1051 1589h-694v173h694v-173z" />
    <glyph glyph-name="omacron" unicode="&#x14d;" horiz-adv-x="1150" 
d="M52 551c0 108 21 204 63 289c42 84 102 149 181 194s171 68 277 68c162 0 290 -50 383 -150c93 -101 140 -237 140 -410v-12c0 -169 -47 -302 -140 -402c-94 -98 -221 -148 -381 -148c-154 0 -278 46 -371 138c-93 93 -144 218 -151 376zM389 530c0 -100 16 -173 47 -220
s78 -70 139 -70c120 0 181 92 184 277v34c0 194 -62 291 -186 291c-113 0 -174 -84 -183 -251zM923 1280h-694v173h694v-173z" />
    <glyph glyph-name="Obreve" unicode="&#x14e;" horiz-adv-x="1414" 
d="M1343 698c0 -142 -26 -268 -79 -377s-128 -193 -224 -253c-98 -58 -208 -88 -332 -88s-234 28 -330 86c-96 56 -171 138 -224 244c-54 106 -82 228 -85 365v82c0 143 26 269 79 377c52 110 127 194 224 253c98 59 209 89 334 89c123 0 233 -29 330 -88s172 -142 226 -250
c53 -109 80 -233 81 -373v-67zM986 759c0 145 -24 255 -72 329c-49 76 -118 113 -208 113c-176 0 -269 -132 -279 -396l-1 -107c0 -143 24 -252 71 -329s118 -115 211 -115c89 0 157 38 205 113s72 184 73 325v67zM1075 1848c0 -91 -34 -165 -101 -222s-157 -85 -269 -85
s-202 28 -269 85s-101 131 -101 222h229c0 -40 13 -71 37 -94c26 -22 60 -33 104 -33s78 11 102 33c25 21 37 53 37 94h231z" />
    <glyph glyph-name="obreve" unicode="&#x14f;" horiz-adv-x="1150" 
d="M52 551c0 108 21 204 63 289c42 84 102 149 181 194s171 68 277 68c162 0 290 -50 383 -150c93 -101 140 -237 140 -410v-12c0 -169 -47 -302 -140 -402c-94 -98 -221 -148 -381 -148c-154 0 -278 46 -371 138c-93 93 -144 218 -151 376zM389 530c0 -100 16 -173 47 -220
s78 -70 139 -70c120 0 181 92 184 277v34c0 194 -62 291 -186 291c-113 0 -174 -84 -183 -251zM947 1538c0 -91 -34 -165 -101 -222s-157 -85 -269 -85s-202 28 -269 85s-101 131 -101 222h229c0 -40 13 -71 37 -94c26 -22 60 -33 104 -33s78 11 102 33c25 21 37 53 37 94
h231z" />
    <glyph glyph-name="Ohungarumlaut" unicode="&#x150;" horiz-adv-x="1414" 
d="M1343 698c0 -142 -26 -268 -79 -377s-128 -193 -224 -253c-98 -58 -208 -88 -332 -88s-234 28 -330 86c-96 56 -171 138 -224 244c-54 106 -82 228 -85 365v82c0 143 26 269 79 377c52 110 127 194 224 253c98 59 209 89 334 89c123 0 233 -29 330 -88s172 -142 226 -250
c53 -109 80 -233 81 -373v-67zM986 759c0 145 -24 255 -72 329c-49 76 -118 113 -208 113c-176 0 -269 -132 -279 -396l-1 -107c0 -143 24 -252 71 -329s118 -115 211 -115c89 0 157 38 205 113s72 184 73 325v67zM986 1845h278l-266 -300h-237zM570 1845h280l-238 -300
h-240z" />
    <glyph glyph-name="ohungarumlaut" unicode="&#x151;" horiz-adv-x="1150" 
d="M52 551c0 108 21 204 63 289c42 84 102 149 181 194s171 68 277 68c162 0 290 -50 383 -150c93 -101 140 -237 140 -410v-12c0 -169 -47 -302 -140 -402c-94 -98 -221 -148 -381 -148c-154 0 -278 46 -371 138c-93 93 -144 218 -151 376zM389 530c0 -100 16 -173 47 -220
s78 -70 139 -70c120 0 181 92 184 277v34c0 194 -62 291 -186 291c-113 0 -174 -84 -183 -251zM858 1535h278l-266 -300h-237zM442 1535h280l-238 -300h-240z" />
    <glyph glyph-name="OE" unicode="&#x152;" horiz-adv-x="1994" 
d="M1918 0h-908c-111 -13 -207 -20 -288 -20c-122 0 -231 25 -327 75s-171 121 -223 211c-54 92 -80 194 -80 309v305c0 115 26 219 79 310s127 162 223 212c96 49 205 74 326 74c82 0 179 -7 290 -20h910v-271h-654v-307h552v-261h-552v-347h652v-270zM722 240
c67 0 132 4 193 12v951c-68 9 -133 13 -195 13c-90 0 -161 -28 -212 -83c-52 -55 -78 -139 -78 -251v-306c0 -112 26 -196 78 -252c53 -56 124 -84 214 -84z" />
    <glyph glyph-name="oe" unicode="&#x153;" horiz-adv-x="1845" 
d="M75 551c0 109 21 206 63 289c43 84 103 149 182 194s171 68 277 68c145 0 264 -41 357 -124c88 84 201 125 340 124c147 0 262 -44 345 -132c83 -87 125 -208 125 -363v-172h-626c12 -62 38 -110 78 -144c39 -34 89 -51 149 -51c85 0 159 12 222 36l76 31l80 -206
c-47 -35 -109 -64 -185 -87c-77 -23 -156 -34 -239 -34c-144 0 -264 43 -359 128c-92 -85 -212 -128 -361 -128c-154 0 -278 46 -371 138c-94 92 -145 217 -152 376zM412 530c0 -193 62 -290 187 -290c120 0 182 92 185 275v36c0 194 -62 291 -187 291
c-113 0 -175 -84 -184 -251zM1294 842c-89 0 -142 -65 -157 -196h298v26c0 113 -47 170 -141 170z" />
    <glyph glyph-name="Racute" unicode="&#x154;" horiz-adv-x="1336" 
d="M651 514h-190v-514h-351v1456h573c173 0 308 -38 405 -115s146 -185 146 -325c0 -101 -20 -185 -62 -252c-40 -67 -105 -121 -192 -162l304 -587v-15h-376zM461 785h222c67 0 117 17 151 53c33 34 50 83 50 146s-17 112 -51 148c-34 35 -84 53 -150 53h-222v-400z
M635 1846h356l-278 -314h-275z" />
    <glyph glyph-name="racute" unicode="&#x155;" horiz-adv-x="776" 
d="M749 777l-111 8c-106 0 -174 -33 -204 -100v-685h-337v1082h316l11 -139c57 106 136 159 237 159c36 0 67 -4 94 -12zM455 1536h356l-278 -314h-275z" />
    <glyph glyph-name="uni0156" unicode="&#x156;" horiz-adv-x="1336" 
d="M651 514h-190v-514h-351v1456h573c173 0 308 -38 405 -115s146 -185 146 -325c0 -101 -20 -185 -62 -252c-40 -67 -105 -121 -192 -162l304 -587v-15h-376zM461 785h222c67 0 117 17 151 53c33 34 50 83 50 146s-17 112 -51 148c-34 35 -84 53 -150 53h-222v-400z
M587 -505l-159 80l26 46c33 63 50 135 50 216v89h225v-74c-1 -57 -14 -119 -40 -186c-26 -66 -60 -123 -102 -171z" />
    <glyph glyph-name="uni0157" unicode="&#x157;" horiz-adv-x="776" 
d="M749 777l-111 8c-106 0 -174 -33 -204 -100v-685h-337v1082h316l11 -139c57 106 136 159 237 159c36 0 67 -4 94 -12zM239 -505l-159 80l26 46c33 63 50 135 50 216v89h225v-74c-1 -57 -14 -119 -40 -186c-26 -66 -60 -123 -102 -171z" />
    <glyph glyph-name="Rcaron" unicode="&#x158;" horiz-adv-x="1336" 
d="M651 514h-190v-514h-351v1456h573c173 0 308 -38 405 -115s146 -185 146 -325c0 -101 -20 -185 -62 -252c-40 -67 -105 -121 -192 -162l304 -587v-15h-376zM461 785h222c67 0 117 17 151 53c33 34 50 83 50 146s-17 112 -51 148c-34 35 -84 53 -150 53h-222v-400z
M592 1713l147 134h287v-11l-326 -283h-217l-328 285v9h290z" />
    <glyph glyph-name="rcaron" unicode="&#x159;" horiz-adv-x="776" 
d="M749 777l-111 8c-106 0 -174 -33 -204 -100v-685h-337v1082h316l11 -139c57 106 136 159 237 159c36 0 67 -4 94 -12zM413 1403l147 134h287v-11l-326 -283h-217l-328 285v9h290z" />
    <glyph glyph-name="Sacute" unicode="&#x15a;" horiz-adv-x="1282" 
d="M861 387c0 51 -18 91 -55 120c-36 29 -100 58 -191 89s-166 60 -224 89c-189 93 -283 220 -283 382c0 81 24 152 70 213c48 62 114 110 200 144c86 35 183 52 290 52c105 0 198 -19 282 -56c82 -37 147 -90 193 -160c46 -68 69 -147 69 -236h-350c0 59 -18 105 -54 138
c-37 33 -86 49 -148 49c-63 0 -112 -14 -148 -41c-37 -28 -55 -63 -55 -106c0 -37 20 -71 60 -102c40 -30 110 -61 211 -94c101 -32 183 -67 248 -104c157 -91 236 -216 236 -375c0 -127 -48 -227 -144 -300s-228 -109 -395 -109c-118 0 -225 21 -321 64
c-95 42 -167 100 -216 174c-48 73 -72 158 -72 254h352c0 -78 20 -136 60 -172c41 -38 106 -56 197 -56c58 0 104 12 137 38c34 24 51 60 51 105zM705 1846h356l-278 -314h-275z" />
    <glyph glyph-name="sacute" unicode="&#x15b;" horiz-adv-x="1049" 
d="M661 304c0 29 -15 52 -45 69s-87 35 -171 54s-153 43 -208 73c-55 31 -96 68 -125 111s-43 93 -43 149c0 99 41 181 123 246c82 64 189 96 322 96c143 0 257 -32 344 -97s130 -150 130 -255h-338c0 87 -46 130 -137 130c-35 0 -65 -10 -89 -30c-24 -19 -36 -44 -36 -73
c0 -30 15 -54 44 -73s76 -34 140 -46c65 -12 121 -26 170 -43c163 -56 244 -156 244 -301c0 -99 -44 -179 -132 -241c-87 -62 -201 -93 -340 -93c-93 0 -175 17 -248 50s-129 79 -170 136s-61 118 -61 181h315c1 -50 18 -87 50 -109c32 -24 73 -35 123 -35c46 0 81 9 103 28
c24 19 35 43 35 73zM551 1536h356l-278 -314h-275z" />
    <glyph glyph-name="Scircumflex" unicode="&#x15c;" horiz-adv-x="1282" 
d="M861 387c0 51 -18 91 -55 120c-36 29 -100 58 -191 89s-166 60 -224 89c-189 93 -283 220 -283 382c0 81 24 152 70 213c48 62 114 110 200 144c86 35 183 52 290 52c105 0 198 -19 282 -56c82 -37 147 -90 193 -160c46 -68 69 -147 69 -236h-350c0 59 -18 105 -54 138
c-37 33 -86 49 -148 49c-63 0 -112 -14 -148 -41c-37 -28 -55 -63 -55 -106c0 -37 20 -71 60 -102c40 -30 110 -61 211 -94c101 -32 183 -67 248 -104c157 -91 236 -216 236 -375c0 -127 -48 -227 -144 -300s-228 -109 -395 -109c-118 0 -225 21 -321 64
c-95 42 -167 100 -216 174c-48 73 -72 158 -72 254h352c0 -78 20 -136 60 -172c41 -38 106 -56 197 -56c58 0 104 12 137 38c34 24 51 60 51 105zM1087 1565v-13h-266l-159 136l-159 -136h-260v17l323 277h193z" />
    <glyph glyph-name="scircumflex" unicode="&#x15d;" horiz-adv-x="1049" 
d="M661 304c0 29 -15 52 -45 69s-87 35 -171 54s-153 43 -208 73c-55 31 -96 68 -125 111s-43 93 -43 149c0 99 41 181 123 246c82 64 189 96 322 96c143 0 257 -32 344 -97s130 -150 130 -255h-338c0 87 -46 130 -137 130c-35 0 -65 -10 -89 -30c-24 -19 -36 -44 -36 -73
c0 -30 15 -54 44 -73s76 -34 140 -46c65 -12 121 -26 170 -43c163 -56 244 -156 244 -301c0 -99 -44 -179 -132 -241c-87 -62 -201 -93 -340 -93c-93 0 -175 17 -248 50s-129 79 -170 136s-61 118 -61 181h315c1 -50 18 -87 50 -109c32 -24 73 -35 123 -35c46 0 81 9 103 28
c24 19 35 43 35 73zM934 1255v-13h-266l-159 136l-159 -136h-260v17l323 277h193z" />
    <glyph glyph-name="Scedilla" unicode="&#x15e;" horiz-adv-x="1282" 
d="M861 387c0 51 -18 91 -55 120c-36 29 -100 58 -191 89s-166 60 -224 89c-189 93 -283 220 -283 382c0 81 24 152 70 213c48 62 114 110 200 144c86 35 183 52 290 52c105 0 198 -19 282 -56c82 -37 147 -90 193 -160c46 -68 69 -147 69 -236h-350c0 59 -18 105 -54 138
c-37 33 -86 49 -148 49c-63 0 -112 -14 -148 -41c-37 -28 -55 -63 -55 -106c0 -37 20 -71 60 -102c40 -30 110 -61 211 -94c101 -32 183 -67 248 -104c157 -91 236 -216 236 -375c0 -127 -48 -227 -144 -300s-228 -109 -395 -109c-118 0 -225 21 -321 64
c-95 42 -167 100 -216 174c-48 73 -72 158 -72 254h352c0 -78 20 -136 60 -172c41 -38 106 -56 197 -56c58 0 104 12 137 38c34 24 51 60 51 105zM792 10l-10 -61c100 -19 150 -76 150 -173c0 -77 -33 -138 -99 -182s-158 -66 -275 -66l-7 186c59 0 88 26 88 77
c0 25 -10 43 -32 53c-20 10 -55 17 -102 20l31 146h256z" />
    <glyph glyph-name="scedilla" unicode="&#x15f;" horiz-adv-x="1049" 
d="M661 304c0 29 -15 52 -45 69s-87 35 -171 54s-153 43 -208 73c-55 31 -96 68 -125 111s-43 93 -43 149c0 99 41 181 123 246c82 64 189 96 322 96c143 0 257 -32 344 -97s130 -150 130 -255h-338c0 87 -46 130 -137 130c-35 0 -65 -10 -89 -30c-24 -19 -36 -44 -36 -73
c0 -30 15 -54 44 -73s76 -34 140 -46c65 -12 121 -26 170 -43c163 -56 244 -156 244 -301c0 -99 -44 -179 -132 -241c-87 -62 -201 -93 -340 -93c-93 0 -175 17 -248 50s-129 79 -170 136s-61 118 -61 181h315c1 -50 18 -87 50 -109c32 -24 73 -35 123 -35c46 0 81 9 103 28
c24 19 35 43 35 73zM639 1l-10 -61c100 -19 150 -76 150 -173c0 -77 -33 -138 -99 -182s-158 -66 -275 -66l-7 186c59 0 88 26 88 77c0 25 -10 43 -32 53c-20 10 -55 17 -102 20l31 146h256z" />
    <glyph glyph-name="Scaron" unicode="&#x160;" horiz-adv-x="1282" 
d="M861 387c0 51 -18 91 -55 120c-36 29 -100 58 -191 89s-166 60 -224 89c-189 93 -283 220 -283 382c0 81 24 152 70 213c48 62 114 110 200 144c86 35 183 52 290 52c105 0 198 -19 282 -56c82 -37 147 -90 193 -160c46 -68 69 -147 69 -236h-350c0 59 -18 105 -54 138
c-37 33 -86 49 -148 49c-63 0 -112 -14 -148 -41c-37 -28 -55 -63 -55 -106c0 -37 20 -71 60 -102c40 -30 110 -61 211 -94c101 -32 183 -67 248 -104c157 -91 236 -216 236 -375c0 -127 -48 -227 -144 -300s-228 -109 -395 -109c-118 0 -225 21 -321 64
c-95 42 -167 100 -216 174c-48 73 -72 158 -72 254h352c0 -78 20 -136 60 -172c41 -38 106 -56 197 -56c58 0 104 12 137 38c34 24 51 60 51 105zM662 1713l147 134h287v-11l-326 -283h-217l-328 285v9h290z" />
    <glyph glyph-name="scaron" unicode="&#x161;" horiz-adv-x="1049" 
d="M661 304c0 29 -15 52 -45 69s-87 35 -171 54s-153 43 -208 73c-55 31 -96 68 -125 111s-43 93 -43 149c0 99 41 181 123 246c82 64 189 96 322 96c143 0 257 -32 344 -97s130 -150 130 -255h-338c0 87 -46 130 -137 130c-35 0 -65 -10 -89 -30c-24 -19 -36 -44 -36 -73
c0 -30 15 -54 44 -73s76 -34 140 -46c65 -12 121 -26 170 -43c163 -56 244 -156 244 -301c0 -99 -44 -179 -132 -241c-87 -62 -201 -93 -340 -93c-93 0 -175 17 -248 50s-129 79 -170 136s-61 118 -61 181h315c1 -50 18 -87 50 -109c32 -24 73 -35 123 -35c46 0 81 9 103 28
c24 19 35 43 35 73zM508 1403l147 134h287v-11l-326 -283h-217l-328 285v9h290z" />
    <glyph glyph-name="uni0162" unicode="&#x162;" horiz-adv-x="1291" 
d="M1253 1185h-437v-1185h-351v1185h-429v271h1217v-271zM767 20l-10 -61c100 -19 150 -76 150 -173c0 -77 -33 -138 -99 -182s-158 -66 -275 -66l-7 186c59 0 88 26 88 77c0 25 -10 43 -32 53c-20 10 -55 17 -102 20l31 146h256z" />
    <glyph glyph-name="uni0163" unicode="&#x163;" horiz-adv-x="703" 
d="M487 1351v-269h178v-234h-178v-495c0 -41 7 -69 22 -85s44 -24 87 -24c33 0 61 2 84 6v-241c-61 -19 -124 -29 -190 -29c-116 0 -202 27 -257 82s-83 138 -83 249v537h-138v234h138v269h337zM552 10l-10 -61c100 -19 150 -76 150 -173c0 -77 -33 -138 -99 -182
s-158 -66 -275 -66l-7 186c59 0 88 26 88 77c0 25 -10 43 -32 53c-20 10 -55 17 -102 20l31 146h256z" />
    <glyph glyph-name="Tcaron" unicode="&#x164;" horiz-adv-x="1291" 
d="M1253 1185h-437v-1185h-351v1185h-429v271h1217v-271zM636 1713l147 134h287v-11l-326 -283h-217l-328 285v9h290z" />
    <glyph glyph-name="tcaron" unicode="&#x165;" horiz-adv-x="743" 
d="M487 1351v-269h178v-234h-178v-495c0 -41 7 -69 22 -85s44 -24 87 -24c33 0 61 2 84 6v-241c-61 -19 -124 -29 -190 -29c-116 0 -202 27 -257 82s-83 138 -83 249v537h-138v234h138v269h337zM751 1238l-159 80l26 46c33 63 50 135 50 216v89h225v-74
c-1 -57 -14 -119 -40 -185c-26 -67 -60 -124 -102 -172z" />
    <glyph glyph-name="Tbar" unicode="&#x166;" horiz-adv-x="1291" 
d="M976 723h-160v-723h-351v723h-219v191h219v271h-429v271h1217v-271h-437v-271h160v-191z" />
    <glyph glyph-name="tbar" unicode="&#x167;" horiz-adv-x="703" 
d="M487 1351v-269h178v-234h-178v-150h207v-191h-207v-154c0 -41 7 -69 22 -85s44 -24 87 -24c33 0 61 2 84 6v-241c-61 -19 -124 -29 -190 -29c-113 0 -198 26 -254 79c-55 53 -84 133 -86 240v208h-186v191h186v150h-138v234h138v269h337z" />
    <glyph glyph-name="Utilde" unicode="&#x168;" horiz-adv-x="1361" 
d="M1252 1456v-953c0 -108 -23 -201 -69 -281c-46 -78 -112 -139 -198 -180s-188 -62 -305 -62c-177 0 -317 46 -419 138s-154 218 -156 378v960h353v-967c4 -159 78 -239 222 -239c73 0 128 20 165 60s56 105 56 195v951h351zM1060 1837c0 -76 -22 -140 -67 -194
c-44 -52 -99 -79 -164 -79c-44 0 -93 14 -147 42s-98 42 -131 42c-21 0 -40 -7 -54 -22c-16 -15 -23 -37 -23 -68l-187 10c0 74 22 138 66 192c45 54 99 81 164 81c33 0 77 -12 131 -36c54 -25 88 -39 103 -42c14 -3 29 -5 45 -5c21 0 40 7 55 22s23 37 23 68z" />
    <glyph glyph-name="utilde" unicode="&#x169;" horiz-adv-x="1155" 
d="M739 117c-71 -91 -168 -137 -289 -137c-119 0 -208 34 -270 104c-60 68 -91 168 -91 297v701h337v-703c0 -93 45 -139 135 -139c77 0 132 28 165 83v759h339v-1082h-316zM962 1528c0 -76 -22 -140 -67 -194c-44 -52 -99 -79 -164 -79c-44 0 -93 14 -147 42
s-98 42 -131 42c-21 0 -40 -7 -54 -22c-16 -15 -23 -37 -23 -68l-187 10c0 74 22 138 66 192c45 54 99 81 164 81c33 0 77 -12 131 -36c54 -25 88 -39 103 -42c14 -3 29 -5 45 -5c21 0 40 7 55 22s23 37 23 68z" />
    <glyph glyph-name="Umacron" unicode="&#x16a;" horiz-adv-x="1361" 
d="M1252 1456v-953c0 -108 -23 -201 -69 -281c-46 -78 -112 -139 -198 -180s-188 -62 -305 -62c-177 0 -317 46 -419 138s-154 218 -156 378v960h353v-967c4 -159 78 -239 222 -239c73 0 128 20 165 60s56 105 56 195v951h351zM1021 1589h-694v173h694v-173z" />
    <glyph glyph-name="umacron" unicode="&#x16b;" horiz-adv-x="1155" 
d="M739 117c-71 -91 -168 -137 -289 -137c-119 0 -208 34 -270 104c-60 68 -91 168 -91 297v701h337v-703c0 -93 45 -139 135 -139c77 0 132 28 165 83v759h339v-1082h-316zM923 1280h-694v173h694v-173z" />
    <glyph glyph-name="Ubreve" unicode="&#x16c;" horiz-adv-x="1361" 
d="M1252 1456v-953c0 -108 -23 -201 -69 -281c-46 -78 -112 -139 -198 -180s-188 -62 -305 -62c-177 0 -317 46 -419 138s-154 218 -156 378v960h353v-967c4 -159 78 -239 222 -239c73 0 128 20 165 60s56 105 56 195v951h351zM1045 1848c0 -91 -34 -165 -101 -222
s-157 -85 -269 -85s-202 28 -269 85s-101 131 -101 222h229c0 -40 13 -71 37 -94c26 -22 60 -33 104 -33s78 11 102 33c25 21 37 53 37 94h231z" />
    <glyph glyph-name="ubreve" unicode="&#x16d;" horiz-adv-x="1155" 
d="M739 117c-71 -91 -168 -137 -289 -137c-119 0 -208 34 -270 104c-60 68 -91 168 -91 297v701h337v-703c0 -93 45 -139 135 -139c77 0 132 28 165 83v759h339v-1082h-316zM947 1538c0 -91 -34 -165 -101 -222s-157 -85 -269 -85s-202 28 -269 85s-101 131 -101 222h229
c0 -40 13 -71 37 -94c26 -22 60 -33 104 -33s78 11 102 33c25 21 37 53 37 94h231z" />
    <glyph glyph-name="Uring" unicode="&#x16e;" horiz-adv-x="1361" 
d="M1252 1456v-953c0 -108 -23 -201 -69 -281c-46 -78 -112 -139 -198 -180s-188 -62 -305 -62c-177 0 -317 46 -419 138s-154 218 -156 378v960h353v-967c4 -159 78 -239 222 -239c73 0 128 20 165 60s56 105 56 195v951h351zM452 1729c0 57 22 106 66 144
c43 40 96 59 159 59c62 0 115 -19 159 -59c43 -38 65 -87 65 -144s-21 -104 -65 -142c-42 -38 -96 -57 -159 -57c-64 0 -117 19 -161 57c-42 38 -64 85 -64 142zM677 1625c32 0 57 10 75 30c19 20 28 45 28 74s-9 54 -28 75c-18 21 -43 31 -75 31c-33 0 -58 -10 -77 -31
c-18 -21 -27 -46 -27 -75s9 -54 27 -74c19 -20 44 -30 77 -30z" />
    <glyph glyph-name="uring" unicode="&#x16f;" horiz-adv-x="1155" 
d="M739 117c-71 -91 -168 -137 -289 -137c-119 0 -208 34 -270 104c-60 68 -91 168 -91 297v701h337v-703c0 -93 45 -139 135 -139c77 0 132 28 165 83v759h339v-1082h-316zM354 1419c0 57 22 106 66 144c43 40 96 59 159 59c62 0 115 -19 159 -59c43 -38 65 -87 65 -144
s-21 -104 -65 -142c-42 -38 -96 -57 -159 -57c-64 0 -117 19 -161 57c-42 38 -64 85 -64 142zM579 1315c32 0 57 10 75 30c19 20 28 45 28 74s-9 54 -28 75c-18 21 -43 31 -75 31c-33 0 -58 -10 -77 -31c-18 -21 -27 -46 -27 -75s9 -54 27 -74c19 -20 44 -30 77 -30z" />
    <glyph glyph-name="Uhungarumlaut" unicode="&#x170;" horiz-adv-x="1361" 
d="M1252 1456v-953c0 -108 -23 -201 -69 -281c-46 -78 -112 -139 -198 -180s-188 -62 -305 -62c-177 0 -317 46 -419 138s-154 218 -156 378v960h353v-967c4 -159 78 -239 222 -239c73 0 128 20 165 60s56 105 56 195v951h351zM956 1845h278l-266 -300h-237zM540 1845h280
l-238 -300h-240z" />
    <glyph glyph-name="uhungarumlaut" unicode="&#x171;" horiz-adv-x="1155" 
d="M739 117c-71 -91 -168 -137 -289 -137c-119 0 -208 34 -270 104c-60 68 -91 168 -91 297v701h337v-703c0 -93 45 -139 135 -139c77 0 132 28 165 83v759h339v-1082h-316zM858 1535h278l-266 -300h-237zM442 1535h280l-238 -300h-240z" />
    <glyph glyph-name="Uogonek" unicode="&#x172;" horiz-adv-x="1361" 
d="M1252 1456v-953c-1 -192 -69 -334 -205 -426l4 -1c-52 -26 -89 -51 -111 -74c-23 -24 -34 -53 -34 -87c0 -41 20 -62 60 -62c20 0 43 6 69 18l38 -168c-49 -29 -104 -44 -166 -44c-73 0 -132 19 -177 58c-44 39 -66 91 -66 156c0 39 7 75 22 107c-183 0 -326 47 -428 140
c-102 94 -153 223 -153 388v948h353v-967c4 -159 78 -239 222 -239c73 0 128 20 165 60s56 105 56 195v951h351z" />
    <glyph glyph-name="uogonek" unicode="&#x173;" horiz-adv-x="1155" 
d="M1022 0c-52 -26 -89 -51 -112 -74c-22 -24 -33 -53 -33 -87c0 -41 20 -62 60 -62c20 0 43 6 69 18l38 -168c-49 -29 -104 -44 -166 -44c-73 0 -132 19 -176 58c-45 39 -67 91 -67 156c0 87 38 158 113 213l-9 107c-71 -91 -168 -137 -289 -137c-119 0 -208 34 -270 104
c-60 68 -91 168 -91 297v701h337v-703c0 -93 45 -139 135 -139c77 0 132 28 165 83v759h339v-1082h-43z" />
    <glyph glyph-name="Wcircumflex" unicode="&#x174;" horiz-adv-x="1780" 
d="M1238 543l167 913h348l-309 -1456h-364l-195 830l-191 -830h-363l-310 1456h349l167 -913l200 913h298zM1317 1565v-13h-266l-159 136l-159 -136h-260v17l323 277h193z" />
    <glyph glyph-name="wcircumflex" unicode="&#x175;" horiz-adv-x="1487" 
d="M1029 444l109 638h323l-255 -1082h-285l-179 642l-180 -642h-285l-255 1082h323l107 -653l172 653h235zM1167 1255v-13h-266l-159 136l-159 -136h-260v17l323 277h193z" />
    <glyph glyph-name="Ycircumflex" unicode="&#x176;" horiz-adv-x="1286" 
d="M643 824l268 632h379l-469 -933v-523h-356v523l-468 933h377zM1068 1565v-13h-266l-159 136l-159 -136h-260v17l323 277h193z" />
    <glyph glyph-name="ycircumflex" unicode="&#x177;" horiz-adv-x="1061" 
d="M527 472l180 610h361l-441 -1263l-19 -46c-63 -140 -173 -210 -332 -210c-44 0 -90 7 -139 20v241h44c47 0 83 7 109 20c24 14 43 39 55 74l27 72l-376 1092h360zM953 1255v-13h-266l-159 136l-159 -136h-260v17l323 277h193z" />
    <glyph glyph-name="Ydieresis" unicode="&#x178;" horiz-adv-x="1286" 
d="M643 824l268 632h379l-469 -933v-523h-356v523l-468 933h377zM231 1675c0 37 15 68 43 94c30 26 65 39 108 39s78 -13 108 -39c28 -26 43 -57 43 -94s-15 -68 -43 -94c-30 -26 -65 -39 -108 -39s-78 13 -108 39c-28 26 -43 57 -43 94zM750 1675c0 37 14 68 44 94
c28 26 64 39 107 39s79 -13 107 -39c30 -26 44 -57 44 -94s-14 -68 -44 -94c-28 -26 -64 -39 -107 -39s-79 13 -107 39c-30 26 -44 57 -44 94z" />
    <glyph glyph-name="Zacute" unicode="&#x179;" horiz-adv-x="1249" 
d="M504 270h696v-270h-1134v185l694 1000h-698v271h1131v-180zM679 1846h356l-278 -314h-275z" />
    <glyph glyph-name="zacute" unicode="&#x17a;" horiz-adv-x="1054" 
d="M492 260h493v-260h-919v188l480 634h-459v260h887v-182zM569 1536h356l-278 -314h-275z" />
    <glyph glyph-name="Zdotaccent" unicode="&#x17b;" horiz-adv-x="1249" 
d="M504 270h696v-270h-1134v185l694 1000h-698v271h1131v-180zM469 1711c0 43 16 79 47 106s71 41 119 41c47 0 87 -14 118 -41s47 -63 47 -106s-16 -78 -47 -105s-71 -41 -118 -41c-48 0 -88 14 -119 41s-47 62 -47 105z" />
    <glyph glyph-name="zdotaccent" unicode="&#x17c;" horiz-adv-x="1054" 
d="M492 260h493v-260h-919v188l480 634h-459v260h887v-182zM359 1401c0 43 16 79 47 106s71 41 119 41c47 0 87 -14 118 -41s47 -63 47 -106s-16 -78 -47 -105s-71 -41 -118 -41c-48 0 -88 14 -119 41s-47 62 -47 105z" />
    <glyph glyph-name="Zcaron" unicode="&#x17d;" horiz-adv-x="1249" 
d="M504 270h696v-270h-1134v185l694 1000h-698v271h1131v-180zM636 1713l147 134h287v-11l-326 -283h-217l-328 285v9h290z" />
    <glyph glyph-name="zcaron" unicode="&#x17e;" horiz-adv-x="1054" 
d="M492 260h493v-260h-919v188l480 634h-459v260h887v-182zM526 1403l147 134h287v-11l-326 -283h-217l-328 285v9h290z" />
    <glyph glyph-name="longs" unicode="&#x17f;" horiz-adv-x="539" 
d="M94 0v1168c0 125 37 221 111 288s180 101 317 101c45 0 100 -7 167 -21l-24 -249c-32 7 -66 10 -101 10c-88 0 -132 -44 -132 -132v-1165h-338z" />
    <glyph glyph-name="uni018F" unicode="&#x18f;" horiz-adv-x="1430" 
d="M707 -21c-202 0 -359 61 -471 183c-111 122 -167 294 -167 515v170h923c-7 110 -42 193 -106 249c-63 55 -154 83 -272 83c-143 0 -277 -19 -404 -57l-49 282c41 17 109 33 206 49s187 24 270 24c219 0 392 -59 517 -179c126 -118 189 -284 189 -495v-163
c0 -125 -27 -238 -81 -338c-55 -102 -131 -180 -229 -238c-98 -56 -207 -85 -326 -85zM707 276c77 0 141 25 190 76s80 124 92 219h-571v-31c0 -83 25 -147 74 -194s121 -70 215 -70z" />
    <glyph glyph-name="florin" unicode="&#x192;" horiz-adv-x="758" 
d="M720 848h-214l-2 -886c-1 -127 -34 -225 -102 -294c-66 -70 -161 -105 -284 -105c-59 0 -113 6 -160 17l15 255c24 -8 53 -12 87 -12c39 0 67 10 83 31s24 57 24 108v886h-156v234h156v86c0 125 37 221 111 288s180 101 318 101c45 0 100 -7 167 -21l-25 -249
c-31 7 -64 10 -101 10c-87 0 -131 -44 -131 -132v-83h214v-234z" />
    <glyph glyph-name="Ohorn" unicode="&#x1a0;" horiz-adv-x="1454" 
d="M1346 698c0 -143 -26 -269 -80 -378c-52 -109 -128 -193 -224 -252c-98 -59 -208 -88 -332 -88s-234 29 -330 86s-171 139 -224 246c-54 107 -82 229 -84 368v77c0 143 26 269 78 378c53 109 128 193 224 252c98 59 209 89 334 89c95 0 183 -17 262 -52s148 -85 205 -150
c36 13 63 40 79 82c18 43 26 109 26 200h204c0 -233 -71 -377 -214 -430c50 -106 75 -228 76 -365v-63zM989 759c0 145 -24 255 -73 329c-49 76 -118 113 -208 113c-175 0 -268 -132 -278 -396l-1 -107c0 -143 23 -253 71 -330c46 -76 117 -114 210 -114
c89 0 158 38 206 113s72 184 73 325v67z" />
    <glyph glyph-name="ohorn" unicode="&#x1a1;" horiz-adv-x="1198" 
d="M50 551c0 108 21 204 63 289c42 84 102 149 181 194c78 45 170 68 277 68c164 0 292 -51 385 -152c41 39 62 114 62 227h184c0 -173 -55 -290 -165 -349c38 -83 57 -182 57 -298c0 -169 -47 -302 -140 -402c-94 -98 -221 -148 -381 -148c-155 0 -279 46 -371 138
c-94 93 -144 218 -151 376zM387 530c0 -100 16 -173 47 -220s78 -70 139 -70c120 0 181 92 184 277v34c0 194 -62 291 -186 291c-113 0 -174 -84 -183 -251z" />
    <glyph glyph-name="Uhorn" unicode="&#x1af;" horiz-adv-x="1474" 
d="M1252 1456v-232c49 3 86 14 113 33s46 45 57 79c11 35 17 102 17 201h205c0 -168 -32 -288 -94 -361c-64 -73 -163 -111 -298 -116v-557c0 -108 -23 -201 -69 -281c-46 -78 -112 -139 -198 -180s-188 -62 -305 -62c-177 0 -317 46 -419 138s-154 218 -156 378v960h353
v-967c4 -159 78 -239 222 -239c73 0 128 20 165 60s56 105 56 195v951h351z" />
    <glyph glyph-name="uhorn" unicode="&#x1b0;" horiz-adv-x="1231" 
d="M1349 1181c0 -120 -23 -210 -69 -270s-118 -98 -215 -114v-797h-316l-10 117c-71 -91 -168 -137 -289 -137c-119 0 -208 34 -270 104c-60 68 -91 168 -91 297v701h337v-703c0 -93 45 -139 135 -139c77 0 132 28 165 83v759h339v-133c37 15 63 39 78 73s23 87 23 159h183z
" />
    <glyph glyph-name="uni01F0" unicode="&#x1f0;" horiz-adv-x="604" 
d="M476 1082v-1095c0 -136 -36 -241 -108 -314s-172 -110 -301 -110c-57 0 -110 6 -159 17l15 255c33 -8 66 -12 98 -12c79 0 118 55 118 166v1093h337zM276 1383l147 134h287v-11l-326 -283h-217l-328 285v9h290z" />
    <glyph glyph-name="Aringacute" unicode="&#x1fa;" 
d="M937 272h-481l-84 -272h-375l534 1456h330l538 -1456h-377zM540 543h313l-157 505zM821 2019h293l-292 -216h-212zM697 1383c-63 0 -114 18 -155 55c-41 36 -61 81 -61 135s21 100 63 137c41 37 92 56 153 56s111 -19 153 -56c40 -37 61 -83 61 -137s-20 -99 -61 -135
c-40 -37 -91 -55 -153 -55zM606 1573c0 -27 9 -48 26 -65s39 -25 65 -25c27 0 48 8 64 25s24 38 24 65c0 28 -8 50 -24 67s-37 25 -64 25c-26 0 -48 -8 -65 -25s-26 -39 -26 -67z" />
    <glyph glyph-name="aringacute" unicode="&#x1fb;" horiz-adv-x="1087" 
d="M704 0c-12 22 -23 54 -32 97c-62 -78 -149 -117 -260 -117c-102 0 -189 31 -260 92c-71 62 -107 140 -107 233c0 117 43 206 130 266s213 90 378 90h104v57c0 99 -43 149 -129 149c-80 0 -120 -39 -120 -118h-337c0 105 45 190 133 255c90 65 203 98 341 98
s247 -34 327 -101s121 -160 123 -277v-479c1 -99 17 -175 46 -228v-17h-337zM493 220c42 0 77 9 105 27c27 18 47 38 59 61v173h-98c-117 0 -176 -53 -176 -158c0 -31 10 -55 31 -75c21 -18 47 -28 79 -28zM656 1710h293l-292 -216h-212zM532 1074c-63 0 -114 18 -155 54
c-41 37 -61 82 -61 136s21 100 62 137c42 37 93 56 154 56s112 -19 152 -56c42 -37 62 -83 62 -137s-20 -99 -60 -136c-41 -36 -92 -54 -154 -54zM441 1264c0 -27 9 -48 26 -65s39 -25 65 -25c27 0 48 8 64 25s24 38 24 65c0 28 -8 50 -24 67s-37 25 -64 25
c-26 0 -48 -8 -65 -25s-26 -39 -26 -67z" />
    <glyph glyph-name="AEacute" unicode="&#x1fc;" horiz-adv-x="1926" 
d="M1851 0h-897l-14 329h-382l-152 -329h-390l735 1456h1039v-264h-549l13 -316h455v-264h-444l15 -348h571v-264zM683 599h246l-21 486zM976 1858h356l-278 -314h-275z" />
    <glyph glyph-name="aeacute" unicode="&#x1fd;" horiz-adv-x="1730" 
d="M1238 -20c-160 0 -287 45 -380 134c-44 -44 -99 -77 -164 -100s-135 -34 -210 -34c-133 0 -236 30 -311 92c-75 60 -112 145 -112 252c0 105 43 187 129 244c87 57 215 86 385 87h142v46c0 44 -11 79 -34 103c-23 26 -56 38 -99 38c-48 0 -85 -10 -110 -30
c-25 -19 -38 -43 -38 -72l-337 19c0 101 45 183 134 247s208 96 355 96c135 0 241 -30 319 -91c84 62 191 92 320 91c141 0 253 -44 335 -133s123 -209 123 -360v-174h-639c9 -65 34 -114 75 -147c41 -32 95 -48 163 -48c84 0 158 13 223 40l62 27l81 -206
c-45 -35 -105 -63 -182 -87c-76 -22 -153 -34 -230 -34zM548 212c59 0 116 21 169 63v176h-139c-52 -1 -95 -13 -129 -37s-51 -55 -51 -94c0 -72 50 -108 150 -108zM1227 842c-55 0 -97 -16 -125 -48c-30 -33 -48 -82 -55 -148h309v26c0 54 -11 96 -33 126
c-22 29 -54 44 -96 44zM906 1537h356l-278 -314h-275z" />
    <glyph glyph-name="Oslashacute" unicode="&#x1fe;" horiz-adv-x="1409" 
d="M1354 698c0 -142 -26 -268 -79 -377s-127 -193 -225 -253c-96 -58 -207 -88 -331 -88c-108 0 -205 22 -292 65l-81 -140h-207l141 245c-133 133 -199 318 -199 556v51c0 143 26 269 79 378c52 109 126 193 224 252c96 59 208 89 333 89c105 0 200 -21 287 -64l61 106h208
l-121 -211c135 -133 202 -319 202 -558v-51zM997 759c0 89 -10 165 -29 229l-396 -689c40 -30 89 -45 147 -45c89 0 158 38 205 113c48 75 72 184 73 325v67zM437 698c0 -89 9 -164 27 -227l394 687c-40 29 -87 43 -141 43c-93 0 -162 -37 -209 -111s-70 -182 -71 -325v-67z
M759 1920h356l-278 -314h-275z" />
    <glyph glyph-name="oslashacute" unicode="&#x1ff;" horiz-adv-x="1151" 
d="M52 551c0 108 21 204 63 289c42 84 102 149 181 194s171 68 277 68c63 0 122 -8 177 -25l69 142h177l-103 -212c135 -99 203 -258 203 -477c0 -169 -47 -302 -140 -402c-94 -98 -221 -148 -381 -148c-62 0 -119 7 -171 22l-71 -147h-177l104 215
c-139 98 -208 258 -208 481zM389 530c0 -64 6 -116 18 -157l224 460c-17 6 -37 9 -58 9c-113 0 -174 -84 -183 -251zM759 551c0 57 -6 106 -17 147l-219 -452c15 -4 32 -6 52 -6c120 0 181 92 184 277v34zM581 1531h356l-278 -314h-275z" />
    <glyph glyph-name="uni0218" unicode="&#x218;" horiz-adv-x="1282" 
d="M861 387c0 51 -18 91 -55 120c-36 29 -100 58 -191 89s-166 60 -224 89c-189 93 -283 220 -283 382c0 81 24 152 70 213c48 62 114 110 200 144c86 35 183 52 290 52c105 0 198 -19 282 -56c82 -37 147 -90 193 -160c46 -68 69 -147 69 -236h-350c0 59 -18 105 -54 138
c-37 33 -86 49 -148 49c-63 0 -112 -14 -148 -41c-37 -28 -55 -63 -55 -106c0 -37 20 -71 60 -102c40 -30 110 -61 211 -94c101 -32 183 -67 248 -104c157 -91 236 -216 236 -375c0 -127 -48 -227 -144 -300s-228 -109 -395 -109c-118 0 -225 21 -321 64
c-95 42 -167 100 -216 174c-48 73 -72 158 -72 254h352c0 -78 20 -136 60 -172c41 -38 106 -56 197 -56c58 0 104 12 137 38c34 24 51 60 51 105zM635 -515l-159 80l26 46c33 63 50 135 50 216v89h225v-74c-1 -57 -14 -119 -40 -186c-26 -66 -60 -123 -102 -171z" />
    <glyph glyph-name="uni0219" unicode="&#x219;" horiz-adv-x="1049" 
d="M661 304c0 29 -15 52 -45 69s-87 35 -171 54s-153 43 -208 73c-55 31 -96 68 -125 111s-43 93 -43 149c0 99 41 181 123 246c82 64 189 96 322 96c143 0 257 -32 344 -97s130 -150 130 -255h-338c0 87 -46 130 -137 130c-35 0 -65 -10 -89 -30c-24 -19 -36 -44 -36 -73
c0 -30 15 -54 44 -73s76 -34 140 -46c65 -12 121 -26 170 -43c163 -56 244 -156 244 -301c0 -99 -44 -179 -132 -241c-87 -62 -201 -93 -340 -93c-93 0 -175 17 -248 50s-129 79 -170 136s-61 118 -61 181h315c1 -50 18 -87 50 -109c32 -24 73 -35 123 -35c46 0 81 9 103 28
c24 19 35 43 35 73zM482 -525l-159 80l26 46c33 63 50 135 50 216v89h225v-74c-1 -57 -14 -119 -40 -186c-26 -66 -60 -123 -102 -171z" />
    <glyph glyph-name="uni021A" unicode="&#x21a;" horiz-adv-x="1291" 
d="M1253 1185h-437v-1185h-351v1185h-429v271h1217v-271zM610 -505l-159 80l26 46c33 63 50 135 50 216v89h225v-74c-1 -57 -14 -119 -40 -186c-26 -66 -60 -123 -102 -171z" />
    <glyph glyph-name="uni021B" unicode="&#x21b;" horiz-adv-x="703" 
d="M487 1351v-269h178v-234h-178v-495c0 -41 7 -69 22 -85s44 -24 87 -24c33 0 61 2 84 6v-241c-61 -19 -124 -29 -190 -29c-116 0 -202 27 -257 82s-83 138 -83 249v537h-138v234h138v269h337zM395 -515l-159 80l26 46c33 63 50 135 50 216v89h225v-74
c-1 -57 -14 -119 -40 -186c-26 -66 -60 -123 -102 -171z" />
    <glyph glyph-name="uni0237" unicode="&#x237;" horiz-adv-x="604" 
d="M476 1082v-1095c0 -136 -36 -241 -108 -314s-172 -110 -301 -110c-57 0 -110 6 -159 17l15 255c33 -8 66 -12 98 -12c79 0 118 55 118 166v1093h337z" />
    <glyph glyph-name="uni0259" unicode="&#x259;" horiz-adv-x="1083" 
d="M511 1103c155 0 281 -49 379 -147c97 -97 146 -227 146 -388v-28c0 -171 -45 -307 -134 -408c-90 -102 -212 -152 -366 -151c-147 0 -262 44 -345 131c-83 88 -125 209 -125 364v172h626c-12 61 -38 108 -77 143s-89 52 -150 52c-85 0 -159 -12 -222 -36l-76 -31l-80 206
c47 35 109 64 185 87c77 23 156 34 239 34zM536 241c89 0 142 65 157 196h-298v-26c0 -113 47 -170 141 -170z" />
    <glyph glyph-name="uni02BC" unicode="&#x2bc;" horiz-adv-x="497" 
d="M214 1000l-148 80c55 96 84 190 85 282v174h246v-163c0 -62 -18 -128 -53 -199c-36 -70 -79 -128 -130 -174z" />
    <glyph glyph-name="circumflex" unicode="&#x2c6;" horiz-adv-x="1033" 
d="M941 1255v-13h-266l-159 136l-159 -136h-260v17l323 277h193z" />
    <glyph glyph-name="caron" unicode="&#x2c7;" horiz-adv-x="985" 
d="M492 1403l147 134h287v-11l-326 -283h-217l-328 285v9h290z" />
    <glyph glyph-name="uni02C9" unicode="&#x2c9;" horiz-adv-x="1066" 
d="M875 1285h-694v173h694v-173z" />
    <glyph glyph-name="breve" unicode="&#x2d8;" horiz-adv-x="927" 
d="M834 1538c0 -91 -34 -165 -101 -222s-157 -85 -269 -85s-202 28 -269 85s-101 131 -101 222h229c0 -40 13 -71 37 -94c26 -22 60 -33 104 -33s78 11 102 33c25 21 37 53 37 94h231z" />
    <glyph glyph-name="dotaccent" unicode="&#x2d9;" horiz-adv-x="563" 
d="M107 1378c0 43 16 79 47 106s71 41 119 41c47 0 87 -14 118 -41s47 -63 47 -106s-16 -78 -47 -105s-71 -41 -118 -41c-48 0 -88 14 -119 41s-47 62 -47 105z" />
    <glyph glyph-name="ring" unicode="&#x2da;" horiz-adv-x="674" 
d="M118 1294c0 57 22 106 66 144c43 40 96 59 159 59c62 0 115 -19 159 -59c43 -38 65 -87 65 -144s-21 -104 -65 -142c-42 -38 -96 -57 -159 -57c-64 0 -117 19 -161 57c-42 38 -64 85 -64 142zM343 1190c32 0 57 10 75 30c19 20 28 45 28 74s-9 54 -28 75
c-18 21 -43 31 -75 31c-33 0 -58 -10 -77 -31c-18 -21 -27 -46 -27 -75s9 -54 27 -74c19 -20 44 -30 77 -30z" />
    <glyph glyph-name="ogonek" unicode="&#x2db;" horiz-adv-x="645" 
d="M412 0c-52 -26 -89 -51 -112 -74c-22 -24 -33 -53 -33 -87c0 -41 20 -62 60 -62c20 0 43 6 69 18l38 -168c-49 -29 -104 -44 -166 -44c-73 0 -132 19 -176 58c-45 39 -67 91 -67 156c0 115 67 203 201 263z" />
    <glyph glyph-name="tilde" unicode="&#x2dc;" horiz-adv-x="987" 
d="M885 1532c0 -76 -22 -140 -67 -194c-44 -52 -99 -79 -164 -79c-44 0 -93 14 -147 42s-98 42 -131 42c-21 0 -40 -7 -54 -22c-16 -15 -23 -37 -23 -68l-187 10c0 74 22 138 66 192c45 54 99 81 164 81c33 0 77 -12 131 -36c54 -25 88 -39 103 -42c14 -3 29 -5 45 -5
c21 0 40 7 55 22s23 37 23 68z" />
    <glyph glyph-name="hungarumlaut" unicode="&#x2dd;" horiz-adv-x="883" 
d="M654 1535h278l-266 -300h-237zM238 1535h280l-238 -300h-240z" />
    <glyph glyph-name="uni02F3" unicode="&#x2f3;" horiz-adv-x="668" 
d="M154 -225c0 49 19 91 57 123c38 34 84 50 137 50s98 -16 136 -50c36 -32 55 -74 55 -123s-18 -90 -54 -122s-82 -48 -137 -48s-101 16 -138 49c-37 32 -56 72 -56 121zM279 -225c0 -21 7 -37 19 -51c14 -12 30 -19 50 -19c19 0 35 7 47 19c12 14 18 30 18 51
s-6 39 -18 52s-28 20 -47 20c-20 0 -36 -7 -50 -20c-12 -13 -19 -31 -19 -52z" />
    <glyph glyph-name="gravecomb" unicode="&#x300;" horiz-adv-x="0" 
d="M-355 1222h-273l-282 314h356z" />
    <glyph glyph-name="acutecomb" unicode="&#x301;" horiz-adv-x="0" 
d="M-493 1536h356l-278 -314h-275z" />
    <glyph glyph-name="tildecomb" unicode="&#x303;" horiz-adv-x="0" 
d="M-172 1532c0 -76 -22 -140 -66 -194c-45 -52 -100 -79 -165 -79c-44 0 -93 14 -147 42s-98 42 -131 42c-21 0 -39 -7 -55 -22c-14 -15 -22 -37 -22 -68l-187 10c0 74 22 138 67 192c44 54 98 81 163 81c33 0 77 -12 131 -36c54 -25 88 -39 102 -42c15 -3 30 -5 46 -5
c21 0 40 7 55 22s23 37 23 68z" />
    <glyph glyph-name="hookabovecomb" unicode="&#x309;" horiz-adv-x="0" 
d="M-750 1276l-22 126c91 4 137 25 137 63c0 44 -45 66 -135 66l7 145c139 0 243 -17 314 -52s106 -83 106 -145c0 -37 -13 -69 -40 -93c-27 -26 -63 -41 -110 -48v-62h-257z" />
    <glyph glyph-name="uni030F" unicode="&#x30f;" horiz-adv-x="0" 
d="M-514 1252h-271l-284 266h310zM-134 1252h-274l-245 266h312z" />
    <glyph glyph-name="dotbelowcomb" unicode="&#x323;" horiz-adv-x="0" 
d="M-784 -230c0 43 18 79 54 107c35 28 80 42 133 42s98 -14 133 -42c36 -28 54 -64 54 -107s-18 -79 -54 -107c-35 -28 -80 -42 -133 -42s-98 14 -133 42c-36 28 -54 64 -54 107z" />
    <glyph glyph-name="tonos" unicode="&#x384;" horiz-adv-x="779" 
d="M324 1602h304l-189 -346h-200z" />
    <glyph glyph-name="dieresistonos" unicode="&#x385;" horiz-adv-x="1163" 
d="M520 1780h292l-180 -356h-150zM101 1365c0 37 15 68 43 94c30 26 65 39 108 39s78 -13 108 -39c28 -26 43 -57 43 -94s-15 -68 -43 -94c-30 -26 -65 -39 -108 -39s-78 13 -108 39c-28 26 -43 57 -43 94zM737 1365c0 37 15 68 43 94c30 26 65 39 108 39s78 -13 108 -39
c28 -26 43 -57 43 -94s-15 -68 -43 -94c-30 -26 -65 -39 -108 -39s-78 13 -108 39c-28 26 -43 57 -43 94z" />
    <glyph glyph-name="Alphatonos" unicode="&#x386;" 
d="M937 272h-481l-84 -272h-375l534 1456h330l538 -1456h-377zM540 543h313l-157 505zM95 1602h304l-189 -346h-200z" />
    <glyph glyph-name="anoteleia" unicode="&#x387;" horiz-adv-x="658" 
d="M324 854c54 0 98 -16 134 -48c34 -32 52 -72 52 -121s-18 -89 -52 -121c-36 -32 -80 -48 -134 -48c-53 0 -98 16 -133 48c-35 31 -53 72 -53 121s18 90 53 121c35 32 80 48 133 48z" />
    <glyph glyph-name="Epsilontonos" unicode="&#x388;" horiz-adv-x="1146" 
d="M1013 617h-552v-347h652v-270h-1003v1456h1005v-271h-654v-307h552v-261zM-331 1604h304l-189 -346h-200z" />
    <glyph glyph-name="Etatonos" unicode="&#x389;" horiz-adv-x="1439" 
d="M1327 0h-349v608h-517v-608h-351v1456h351v-578h517v578h349v-1456zM-333 1599h304l-189 -346h-200z" />
    <glyph glyph-name="Iotatonos" unicode="&#x38a;" horiz-adv-x="618" 
d="M484 0h-350v1456h350v-1456zM-333 1604h304l-189 -346h-200z" />
    <glyph glyph-name="Omicrontonos" unicode="&#x38c;" horiz-adv-x="1434" 
d="M1363 698c0 -142 -26 -268 -79 -377s-128 -193 -224 -253c-98 -58 -208 -88 -332 -88s-234 28 -330 86c-96 56 -171 138 -224 244c-54 106 -82 228 -85 365v82c0 143 26 269 79 377c52 110 127 194 224 253c98 59 209 89 334 89c123 0 233 -29 330 -88s172 -142 226 -250
c53 -109 80 -233 81 -373v-67zM1006 759c0 145 -24 255 -72 329c-49 76 -118 113 -208 113c-176 0 -269 -132 -279 -396l-1 -107c0 -143 24 -252 71 -329s118 -115 211 -115c89 0 157 38 205 113s72 184 73 325v67zM-131 1602h304l-189 -346h-200z" />
    <glyph glyph-name="Upsilontonos" unicode="&#x38e;" horiz-adv-x="1386" 
d="M743 824l268 632h379l-469 -933v-523h-356v523l-468 933h377zM-297 1602h304l-189 -346h-200z" />
    <glyph glyph-name="Omegatonos" unicode="&#x38f;" horiz-adv-x="1401" 
d="M755 278c43 29 76 88 99 175s34 200 34 338v80c0 110 -16 193 -48 247c-33 56 -78 83 -137 83c-58 0 -103 -27 -135 -83c-33 -54 -49 -137 -49 -247v-77c0 -141 11 -255 34 -341s58 -144 106 -175v-278h-519v274h221c-75 65 -135 142 -177 232c-44 88 -65 183 -66 282v81
c0 117 25 221 74 313c49 93 118 165 208 216c88 51 190 77 303 77c111 0 211 -25 301 -75c88 -51 158 -122 208 -213c51 -91 77 -194 78 -308v-85c0 -126 -34 -244 -101 -354c-39 -63 -86 -118 -141 -166h219v-274h-512v278zM-97 1602h304l-189 -346h-200z" />
    <glyph glyph-name="iotadieresistonos" unicode="&#x390;" horiz-adv-x="698" 
d="M445 1082l-1 -720c0 -41 7 -69 22 -85s44 -24 87 -24c33 0 61 2 84 6v-241c-61 -19 -124 -29 -190 -29c-117 0 -203 28 -258 83s-83 138 -83 248v762h339zM256 1759h292l-180 -356h-150zM-163 1344c0 37 15 68 43 94c30 26 65 39 108 39s78 -13 108 -39
c28 -26 43 -57 43 -94s-15 -68 -43 -94c-30 -26 -65 -39 -108 -39s-78 13 -108 39c-28 26 -43 57 -43 94zM473 1344c0 37 15 68 43 94c30 26 65 39 108 39s78 -13 108 -39c28 -26 43 -57 43 -94s-15 -68 -43 -94c-30 -26 -65 -39 -108 -39s-78 13 -108 39
c-28 26 -43 57 -43 94z" />
    <glyph glyph-name="Alpha" unicode="&#x391;" 
d="M937 272h-481l-84 -272h-375l534 1456h330l538 -1456h-377zM540 543h313l-157 505z" />
    <glyph glyph-name="Beta" unicode="&#x392;" horiz-adv-x="1321" 
d="M110 0v1456h523c187 0 330 -34 427 -103c98 -69 147 -168 147 -299c0 -75 -17 -140 -52 -193s-86 -93 -153 -118c76 -20 134 -57 175 -112s61 -121 61 -200c0 -143 -45 -250 -136 -321c-90 -72 -224 -109 -401 -110h-591zM461 619v-349h230c63 0 112 14 146 44
c34 28 51 69 51 122c0 121 -60 182 -181 183h-246zM461 849h183c77 1 131 15 164 42s49 68 49 121c0 61 -18 106 -53 132c-35 28 -92 41 -171 41h-172v-336z" />
    <glyph glyph-name="Gamma" unicode="&#x393;" horiz-adv-x="1142" 
d="M1092 1185h-633v-1185h-351v1456h984v-271z" />
    <glyph glyph-name="uni0394" unicode="&#x394;" horiz-adv-x="1524" 
d="M765 1456l4 -4l4 4h187l571 -1456h-1515l562 1456h187zM485 270h576l-291 785z" />
    <glyph glyph-name="Epsilon" unicode="&#x395;" horiz-adv-x="1146" 
d="M1013 617h-552v-347h652v-270h-1003v1456h1005v-271h-654v-307h552v-261z" />
    <glyph glyph-name="Zeta" unicode="&#x396;" horiz-adv-x="1249" 
d="M504 270h696v-270h-1134v185l694 1000h-698v271h1131v-180z" />
    <glyph glyph-name="Eta" unicode="&#x397;" horiz-adv-x="1439" 
d="M1327 0h-349v608h-517v-608h-351v1456h351v-578h517v578h349v-1456z" />
    <glyph glyph-name="Theta" unicode="&#x398;" horiz-adv-x="1416" 
d="M870 589h-316v259h316v-259zM1346 698c0 -142 -26 -268 -79 -377s-127 -193 -225 -253c-96 -58 -207 -88 -331 -88s-234 29 -330 86s-171 139 -225 246c-53 107 -81 229 -83 368v77c0 143 26 269 79 378c52 109 126 193 224 252c96 59 208 89 333 89
c123 0 233 -29 330 -88s172 -142 225 -250c54 -109 81 -233 82 -373v-67zM989 759c0 145 -24 255 -73 329c-48 76 -117 113 -207 113c-93 0 -162 -37 -209 -111s-70 -182 -71 -325v-67c0 -143 24 -253 71 -330c47 -76 118 -114 211 -114c89 0 158 38 205 113
c48 75 72 184 73 325v67z" />
    <glyph glyph-name="Iota" unicode="&#x399;" horiz-adv-x="618" 
d="M484 0h-350v1456h350v-1456z" />
    <glyph glyph-name="Kappa" unicode="&#x39a;" horiz-adv-x="1310" 
d="M605 542l-144 -158v-384h-351v1456h351v-642l122 185l314 457h434l-492 -644l492 -812h-416z" />
    <glyph glyph-name="Lambda" unicode="&#x39b;" horiz-adv-x="1315" 
d="M659 1017l-279 -1017h-379l467 1456h380l469 -1456h-381z" />
    <glyph glyph-name="Mu" unicode="&#x39c;" horiz-adv-x="1795" 
d="M571 1456l325 -1013l324 1013h462v-1456h-352v340l34 696l-352 -1036h-232l-353 1037l34 -697v-340h-351v1456h461z" />
    <glyph glyph-name="Nu" unicode="&#x39d;" horiz-adv-x="1438" 
d="M1326 0h-349l-516 906v-906h-351v1456h351l515 -906v906h350v-1456z" />
    <glyph glyph-name="Xi" unicode="&#x39e;" horiz-adv-x="1154" 
d="M81 270h1009v-270h-1009v270zM212 857h751v-257h-751v257zM117 1456h914v-271h-914v271z" />
    <glyph glyph-name="Omicron" unicode="&#x39f;" horiz-adv-x="1414" 
d="M1343 698c0 -142 -26 -268 -79 -377s-128 -193 -224 -253c-98 -58 -208 -88 -332 -88s-234 28 -330 86c-96 56 -171 138 -224 244c-54 106 -82 228 -85 365v82c0 143 26 269 79 377c52 110 127 194 224 253c98 59 209 89 334 89c123 0 233 -29 330 -88s172 -142 226 -250
c53 -109 80 -233 81 -373v-67zM986 759c0 145 -24 255 -72 329c-49 76 -118 113 -208 113c-176 0 -269 -132 -279 -396l-1 -107c0 -143 24 -252 71 -329s118 -115 211 -115c89 0 157 38 205 113s72 184 73 325v67z" />
    <glyph glyph-name="Pi" unicode="&#x3a0;" horiz-adv-x="1441" 
d="M1333 0h-351v1185h-523v-1185h-351v1456h1225v-1456z" />
    <glyph glyph-name="Rho" unicode="&#x3a1;" horiz-adv-x="1333" 
d="M461 494v-494h-351v1456h581c111 0 210 -20 295 -62c86 -40 152 -99 200 -174c46 -76 70 -162 70 -258c0 -142 -51 -256 -152 -340c-102 -86 -242 -128 -419 -128h-224zM461 765h230c68 0 120 17 155 51c36 34 54 82 54 144c0 68 -18 122 -55 163s-87 61 -150 62h-234
v-420z" />
    <glyph glyph-name="Sigma" unicode="&#x3a3;" horiz-adv-x="1154" 
d="M863 732l-315 -463h562v-269h-1037v151l420 588l-420 567v150h1025v-271h-543l308 -440v-13z" />
    <glyph glyph-name="Tau" unicode="&#x3a4;" horiz-adv-x="1291" 
d="M1253 1185h-437v-1185h-351v1185h-429v271h1217v-271z" />
    <glyph glyph-name="Upsilon" unicode="&#x3a5;" horiz-adv-x="1286" 
d="M643 824l268 632h379l-469 -933v-523h-356v523l-468 933h377z" />
    <glyph glyph-name="Phi" unicode="&#x3a6;" horiz-adv-x="1634" 
d="M1001 1293c114 -5 215 -32 302 -81s155 -116 202 -201s71 -183 71 -293c0 -106 -24 -200 -71 -282c-47 -83 -115 -148 -202 -194c-87 -48 -188 -74 -302 -79v-163h-349v163c-176 7 -317 60 -422 161c-105 100 -158 231 -158 392c0 111 24 209 72 295s116 153 203 201
c87 49 189 76 305 81v163h349v-163zM416 716c0 -77 21 -138 63 -182c42 -45 100 -70 173 -76v539c-75 -7 -133 -35 -174 -84s-62 -114 -62 -197zM1233 718c0 82 -20 147 -61 196c-40 48 -97 76 -171 83v-538c75 7 132 33 172 78s60 105 60 181z" />
    <glyph glyph-name="Chi" unicode="&#x3a7;" horiz-adv-x="1307" 
d="M653 972l238 484h401l-407 -722l418 -734h-405l-245 493l-245 -493h-404l417 734l-406 722h400z" />
    <glyph glyph-name="Psi" unicode="&#x3a8;" horiz-adv-x="1527" 
d="M952 675c66 13 114 46 144 100c31 54 46 134 46 241v440h352v-449c-2 -175 -50 -316 -146 -421c-94 -105 -227 -167 -396 -184v-402h-350v400c-179 14 -318 74 -417 182c-99 106 -149 250 -150 429v445h351v-458c4 -185 76 -292 216 -322v780h350v-781z" />
    <glyph glyph-name="uni03A9" unicode="&#x3a9;" horiz-adv-x="1381" 
d="M735 278c43 29 76 88 99 175s34 200 34 338v80c0 110 -16 193 -48 247c-33 56 -78 83 -137 83c-58 0 -103 -27 -135 -83c-33 -54 -49 -137 -49 -247v-77c0 -141 11 -255 34 -341s58 -144 106 -175v-278h-519v274h221c-75 65 -135 142 -177 232c-44 88 -65 183 -66 282v81
c0 117 25 221 74 313c49 93 118 165 208 216c88 51 190 77 303 77c111 0 211 -25 301 -75c88 -51 158 -122 208 -213c51 -91 77 -194 78 -308v-85c0 -126 -34 -244 -101 -354c-39 -63 -86 -118 -141 -166h219v-274h-512v278z" />
    <glyph glyph-name="Iotadieresis" unicode="&#x3aa;" horiz-adv-x="618" 
d="M484 0h-350v1456h350v-1456zM-103 1675c0 37 15 68 43 94c30 26 65 39 108 39s78 -13 108 -39c28 -26 43 -57 43 -94s-15 -68 -43 -94c-30 -26 -65 -39 -108 -39s-78 13 -108 39c-28 26 -43 57 -43 94zM416 1675c0 37 14 68 44 94c28 26 64 39 107 39s79 -13 107 -39
c30 -26 44 -57 44 -94s-14 -68 -44 -94c-28 -26 -64 -39 -107 -39s-79 13 -107 39c-30 26 -44 57 -44 94z" />
    <glyph glyph-name="Upsilondieresis" unicode="&#x3ab;" horiz-adv-x="1286" 
d="M643 824l268 632h379l-469 -933v-523h-356v523l-468 933h377zM231 1675c0 37 15 68 43 94c30 26 65 39 108 39s78 -13 108 -39c28 -26 43 -57 43 -94s-15 -68 -43 -94c-30 -26 -65 -39 -108 -39s-78 13 -108 39c-28 26 -43 57 -43 94zM750 1675c0 37 14 68 44 94
c28 26 64 39 107 39s79 -13 107 -39c30 -26 44 -57 44 -94s-14 -68 -44 -94c-28 -26 -64 -39 -107 -39s-79 13 -107 39c-30 26 -44 57 -44 94z" />
    <glyph glyph-name="alphatonos" unicode="&#x3ac;" horiz-adv-x="1152" 
d="M1041 1082v-729c2 -75 25 -112 69 -112c7 0 13 1 16 3l26 -244c-34 -14 -76 -21 -125 -21c-133 0 -228 56 -283 169c-63 -112 -151 -168 -263 -168c-130 0 -233 48 -308 144c-75 97 -113 235 -113 415c0 171 38 308 112 410c76 102 179 153 311 153
c101 0 181 -48 240 -144l23 124h295zM399 518c0 -95 14 -166 41 -210c28 -46 70 -68 126 -68c61 0 107 21 137 63v465c-30 49 -75 74 -135 74c-113 0 -169 -108 -169 -324zM578 1602h304l-189 -346h-200z" />
    <glyph glyph-name="epsilontonos" unicode="&#x3ad;" horiz-adv-x="1159" 
d="M429 336c0 -34 15 -62 47 -84c30 -21 71 -32 122 -32c59 0 103 10 130 30c28 19 42 43 42 70h337c0 -103 -46 -186 -137 -248c-91 -61 -208 -92 -349 -92c-157 0 -285 30 -382 90c-97 61 -146 139 -146 236c0 61 18 113 53 156c36 42 87 74 154 95
c-59 24 -105 56 -138 97c-33 40 -50 84 -50 132c0 98 46 175 138 231s216 84 371 84c138 0 251 -31 338 -93c87 -63 131 -143 131 -240h-337c0 32 -15 56 -43 70c-30 16 -66 23 -111 23c-46 0 -83 -10 -109 -29c-28 -19 -41 -45 -41 -77c0 -65 58 -98 175 -98h158v-207h-172
c-121 0 -181 -38 -181 -114zM563 1602h304l-189 -346h-200z" />
    <glyph glyph-name="etatonos" unicode="&#x3ae;" horiz-adv-x="1151" 
d="M407 1082l11 -135c79 103 182 155 308 155c112 0 196 -34 253 -104c57 -68 85 -171 85 -306v-1108h-338v1101c0 105 -43 157 -129 157c-73 0 -129 -24 -170 -72v-770h-337v1082h317zM537 1602h304l-189 -346h-200z" />
    <glyph glyph-name="iotatonos" unicode="&#x3af;" horiz-adv-x="698" 
d="M445 1082l-1 -720c0 -41 7 -69 22 -85s44 -24 87 -24c33 0 61 2 84 6v-241c-61 -19 -124 -29 -190 -29c-117 0 -203 28 -258 83s-83 138 -83 248v762h339zM255 1581h304l-189 -346h-200z" />
    <glyph glyph-name="upsilondieresistonos" unicode="&#x3b0;" horiz-adv-x="1116" 
d="M436 1082v-667c0 -117 30 -176 91 -176c54 0 99 32 133 96c36 64 53 141 53 231c-3 164 -33 336 -90 516h313c31 -61 57 -135 80 -222c22 -86 33 -184 33 -294c0 -187 -44 -331 -131 -434c-88 -102 -215 -153 -381 -153c-140 0 -248 37 -323 109
c-75 74 -114 179 -115 316v678h337zM537 1780h292l-180 -356h-150zM118 1365c0 37 14 68 44 94c28 26 64 39 107 39s79 -13 107 -39c30 -26 44 -57 44 -94s-14 -68 -44 -94c-28 -26 -64 -39 -107 -39s-79 13 -107 39c-30 26 -44 57 -44 94zM754 1365c0 37 14 68 44 94
c28 26 64 39 107 39s79 -13 107 -39c30 -26 44 -57 44 -94s-14 -68 -44 -94c-28 -26 -64 -39 -107 -39s-79 13 -107 39c-30 26 -44 57 -44 94z" />
    <glyph glyph-name="alpha" unicode="&#x3b1;" horiz-adv-x="1152" 
d="M1041 1082v-729c2 -75 25 -112 69 -112c7 0 13 1 16 3l26 -244c-34 -14 -76 -21 -125 -21c-133 0 -228 56 -283 169c-63 -112 -151 -168 -263 -168c-130 0 -233 48 -308 144c-75 97 -113 235 -113 415c0 171 38 308 112 410c76 102 179 153 311 153
c101 0 181 -48 240 -144l23 124h295zM399 518c0 -95 14 -166 41 -210c28 -46 70 -68 126 -68c61 0 107 21 137 63v465c-30 49 -75 74 -135 74c-113 0 -169 -108 -169 -324z" />
    <glyph glyph-name="beta" unicode="&#x3b2;" horiz-adv-x="1243" 
d="M637 1476c155 0 275 -35 360 -104s128 -166 128 -290c0 -69 -17 -131 -51 -186c-34 -56 -81 -101 -142 -134c83 -28 146 -72 190 -132c44 -59 66 -133 66 -221c0 -136 -38 -241 -115 -317c-77 -74 -186 -112 -327 -112c-101 0 -193 24 -275 71v-466h-337v1434
c0 89 21 168 64 237s103 123 180 162c78 39 164 58 259 58zM788 1051c0 51 -14 91 -42 121c-27 29 -64 44 -109 44c-49 0 -89 -17 -119 -52c-32 -34 -47 -83 -47 -146v-737c48 -27 110 -41 187 -41c58 0 105 16 140 50c35 32 53 75 53 126c0 74 -17 128 -51 160
c-35 34 -85 50 -151 50h-72v231l81 1c87 9 130 73 130 193z" />
    <glyph glyph-name="gamma" unicode="&#x3b3;" horiz-adv-x="1053" 
d="M528 371l164 711h355l-352 -1082h-4v-417h-337v417h-2l-352 1082h356z" />
    <glyph glyph-name="delta" unicode="&#x3b4;" horiz-adv-x="1151" 
d="M177 1244c0 103 38 184 113 243c76 59 180 88 313 88c63 0 125 -8 187 -23l70 -18v-242l-30 9c-73 23 -135 34 -186 34c-48 0 -86 -7 -112 -22c-28 -15 -41 -35 -41 -62c0 -51 43 -91 130 -121c160 -56 282 -131 365 -225s125 -211 126 -352v-23
c0 -107 -22 -202 -65 -286s-105 -149 -185 -195s-173 -69 -278 -69c-160 0 -288 48 -386 146c-96 96 -145 228 -145 393v11c0 105 29 198 88 282c59 82 132 135 219 158l-4 6c-119 69 -179 158 -179 268zM389 548c0 -94 17 -169 51 -225c35 -56 83 -84 144 -84
s108 28 142 84c33 56 50 138 50 245c0 67 -18 130 -54 188c-36 59 -82 94 -138 107c-61 0 -108 -27 -143 -82s-52 -132 -52 -233z" />
    <glyph glyph-name="epsilon" unicode="&#x3b5;" horiz-adv-x="1159" 
d="M429 336c0 -34 15 -62 47 -84c30 -21 71 -32 122 -32c59 0 103 10 130 30c28 19 42 43 42 70h337c0 -103 -46 -186 -137 -248c-91 -61 -208 -92 -349 -92c-157 0 -285 30 -382 90c-97 61 -146 139 -146 236c0 61 18 113 53 156c36 42 87 74 154 95
c-59 24 -105 56 -138 97c-33 40 -50 84 -50 132c0 98 46 175 138 231s216 84 371 84c138 0 251 -31 338 -93c87 -63 131 -143 131 -240h-337c0 32 -15 56 -43 70c-30 16 -66 23 -111 23c-46 0 -83 -10 -109 -29c-28 -19 -41 -45 -41 -77c0 -65 58 -98 175 -98h158v-207h-172
c-121 0 -181 -38 -181 -114z" />
    <glyph glyph-name="zeta" unicode="&#x3b6;" horiz-adv-x="1001" 
d="M966 1456v-178l-390 -460l-70 -91c-61 -87 -91 -182 -91 -287c0 -49 11 -87 34 -115s69 -52 138 -73l51 -17c88 -25 151 -49 190 -73c38 -22 67 -50 86 -82c19 -33 29 -72 28 -118c0 -55 -26 -117 -77 -186c-51 -68 -112 -124 -183 -168l-170 121c33 32 56 63 72 93
c14 29 21 53 20 70c3 43 -20 73 -69 89l-93 25c-122 32 -213 78 -272 139c-60 61 -90 139 -90 236c0 99 18 192 54 278s107 193 212 320l181 219h-473v258h912z" />
    <glyph glyph-name="eta" unicode="&#x3b7;" horiz-adv-x="1151" 
d="M407 1082l11 -135c79 103 182 155 308 155c112 0 196 -34 253 -104c57 -68 85 -171 85 -306v-1108h-338v1101c0 105 -43 157 -129 157c-73 0 -129 -24 -170 -72v-770h-337v1082h317z" />
    <glyph glyph-name="theta" unicode="&#x3b8;" horiz-adv-x="1231" 
d="M1123 595c0 -197 -44 -348 -133 -455c-88 -107 -212 -160 -373 -160c-162 0 -287 54 -376 161s-133 259 -133 454v266c0 197 44 348 132 455c89 107 214 160 375 160s286 -54 375 -161s133 -259 133 -455v-265zM786 611h-340v-57c0 -109 14 -188 41 -238
c27 -51 71 -76 130 -76c57 0 100 24 127 74c27 48 41 125 42 230v67zM446 858h340v46c0 105 -14 183 -41 234c-27 52 -71 78 -130 78s-101 -25 -128 -75s-40 -126 -41 -228v-55z" />
    <glyph glyph-name="iota" unicode="&#x3b9;" horiz-adv-x="698" 
d="M445 1082l-1 -720c0 -41 7 -69 22 -85s44 -24 87 -24c33 0 61 2 84 6v-241c-61 -19 -124 -29 -190 -29c-117 0 -203 28 -258 83s-83 138 -83 248v762h339z" />
    <glyph glyph-name="kappa" unicode="&#x3ba;" horiz-adv-x="1242" 
d="M575 378h-120v-378h-337v1082h337v-389h90l225 389h432l-342 -506l350 -576h-434z" />
    <glyph glyph-name="lambda" unicode="&#x3bb;" horiz-adv-x="1116" 
d="M298 1557c141 0 236 -60 284 -180l407 -1019l17 -37c25 -53 56 -80 92 -81h35l-1 -254c-21 -3 -63 -5 -125 -5c-158 0 -264 71 -318 212l-147 424l-189 -617h-359l379 1076l-59 135c-25 56 -70 84 -136 84l-65 -3l-9 240c57 17 121 25 194 25z" />
    <glyph glyph-name="uni03BC" unicode="&#x3bc;" horiz-adv-x="1313" 
d="M470 1082v-632c1 -71 13 -124 36 -157c24 -33 66 -50 127 -50c85 0 146 30 181 91v748h337v-1082h-317l-5 53c-59 -49 -129 -74 -210 -74c-57 0 -106 11 -149 34v-429h-338v1498h338z" />
    <glyph glyph-name="nu" unicode="&#x3bd;" horiz-adv-x="1058" 
d="M526 401l171 681h355l-353 -1082h-344l-353 1082h356z" />
    <glyph glyph-name="xi" unicode="&#x3be;" horiz-adv-x="1130" 
d="M946 1171l-105 26c-37 8 -77 12 -121 12c-121 0 -181 -42 -181 -126c0 -82 63 -123 190 -123h146v-271h-135c-198 0 -297 -75 -297 -225c0 -53 18 -96 53 -130c35 -32 94 -59 174 -78c82 -20 135 -34 162 -42c27 -9 50 -17 69 -25c113 -47 168 -123 166 -228
c0 -53 -25 -114 -75 -183c-51 -69 -112 -126 -185 -171l-169 121c33 32 56 63 70 92c13 30 20 54 20 71c0 41 -30 73 -91 95c-117 37 -205 67 -265 88c-58 21 -108 47 -147 78c-39 30 -69 68 -89 114c-21 47 -31 107 -31 182c0 184 99 309 298 374
c-134 49 -201 134 -201 256c0 121 42 218 127 290s199 108 344 108c70 0 127 -4 171 -12c45 -7 97 -21 156 -42z" />
    <glyph glyph-name="omicron" unicode="&#x3bf;" horiz-adv-x="1150" 
d="M52 551c0 108 21 204 63 289c42 84 102 149 181 194s171 68 277 68c162 0 290 -50 383 -150c93 -101 140 -237 140 -410v-12c0 -169 -47 -302 -140 -402c-94 -98 -221 -148 -381 -148c-154 0 -278 46 -371 138c-93 93 -144 218 -151 376zM389 530c0 -100 16 -173 47 -220
s78 -70 139 -70c120 0 181 92 184 277v34c0 194 -62 291 -186 291c-113 0 -174 -84 -183 -251z" />
    <glyph glyph-name="pi" unicode="&#x3c0;" horiz-adv-x="1371" 
d="M1318 840h-184v-478c0 -41 7 -69 22 -85s44 -24 87 -24c33 0 61 2 84 6v-241c-61 -19 -124 -29 -190 -29c-116 0 -202 27 -257 83c-56 54 -84 137 -84 248v520h-217v-840h-337v840h-182v242h1258v-242z" />
    <glyph glyph-name="rho" unicode="&#x3c1;" horiz-adv-x="1151" 
d="M614 1102c151 0 269 -51 356 -152c86 -102 129 -241 129 -418v-14c0 -165 -37 -296 -113 -393c-74 -97 -177 -146 -308 -146c-101 0 -182 40 -244 120v-515h-338v986c0 164 47 294 141 389s220 143 377 143zM434 308c33 -46 86 -69 161 -69c102 0 157 78 165 234l1 66
c0 97 -14 171 -43 224s-71 79 -126 79c-105 0 -158 -104 -158 -312v-222z" />
    <glyph glyph-name="sigma1" unicode="&#x3c2;" horiz-adv-x="1027" 
d="M557 1102c139 0 250 -39 331 -116c82 -77 123 -183 123 -318h-316c0 53 -12 95 -37 126c-24 32 -58 48 -101 48c-58 0 -102 -23 -131 -69s-44 -127 -44 -244c0 -82 15 -143 45 -183s85 -72 165 -94c79 -24 137 -44 173 -61s64 -37 83 -58c33 -35 51 -86 55 -152
c0 -54 -24 -115 -73 -184s-109 -126 -182 -171l-175 122c33 32 56 63 71 92c15 30 21 54 20 71c0 49 -28 81 -83 96c-152 43 -262 103 -330 182s-103 186 -106 322v41c0 168 46 302 137 401s216 149 375 149z" />
    <glyph glyph-name="sigma" unicode="&#x3c3;" horiz-adv-x="1176" 
d="M1149 822h-247c54 -43 96 -93 126 -148s45 -110 45 -164v-21c0 -155 -45 -278 -134 -371s-211 -139 -365 -139c-161 0 -288 50 -383 149c-95 100 -142 236 -142 409v14c0 161 47 290 141 387c94 96 221 144 382 144c0 -1 0 -1 1 -1v1h576v-260zM386 530
c0 -194 63 -291 188 -291c105 0 159 91 162 272v40c0 181 -54 271 -163 271c-115 0 -177 -78 -186 -234z" />
    <glyph glyph-name="tau" unicode="&#x3c4;" horiz-adv-x="1062" 
d="M1039 824h-351v-473c0 -41 7 -69 20 -85c13 -17 36 -25 68 -25c27 0 60 4 101 13l22 -250c-55 -16 -116 -24 -185 -24c-118 0 -208 32 -271 95s-94 156 -94 278v471h-326v258h1016v-258z" />
    <glyph glyph-name="upsilon" unicode="&#x3c5;" horiz-adv-x="1116" 
d="M436 1082v-667c0 -117 30 -176 91 -176c54 0 99 32 133 96c36 64 53 141 53 231c-3 164 -33 336 -90 516h313c31 -61 57 -135 80 -222c22 -86 33 -184 33 -294c0 -187 -44 -331 -131 -434c-88 -102 -215 -153 -381 -153c-140 0 -248 37 -323 109
c-75 74 -114 179 -115 316v678h337z" />
    <glyph glyph-name="phi" unicode="&#x3c6;" horiz-adv-x="1567" 
d="M606 -9c-182 24 -322 89 -420 195s-147 246 -147 421c0 93 19 185 57 275c39 90 89 163 152 220l246 -160c-36 -45 -64 -97 -85 -156s-32 -118 -33 -179c0 -101 19 -179 56 -233c37 -56 95 -94 174 -115v529c0 57 15 111 46 160s71 88 121 114c50 28 104 41 163 41
c111 0 210 -21 296 -63c85 -43 153 -107 202 -192c50 -85 75 -180 75 -283c0 -164 -49 -296 -147 -395c-99 -100 -238 -161 -418 -182v-466h-338v469zM944 255c75 18 132 52 170 103c39 50 58 119 58 207c-1 87 -18 155 -50 205c-31 48 -76 73 -133 73
c-30 0 -45 -11 -45 -34v-554z" />
    <glyph glyph-name="chi" unicode="&#x3c7;" horiz-adv-x="1054" 
d="M194 1099c76 0 140 -17 193 -50s96 -89 130 -167l82 -183l186 383h343l-368 -742l176 -391c21 -61 57 -100 109 -115c11 -4 28 -6 49 -6l-9 -251c-26 -5 -55 -8 -86 -9c-81 -2 -140 9 -178 33s-73 59 -104 106s-66 119 -103 217l-28 64l-200 -404h-327l370 763l-175 401
c-24 60 -81 90 -170 90c-28 0 -49 -2 -64 -6l-9 241c72 17 133 26 183 26z" />
    <glyph glyph-name="psi" unicode="&#x3c8;" horiz-adv-x="1569" 
d="M945 1082v-823c76 21 133 60 171 115s57 133 57 233c-2 141 -35 299 -100 475h301c91 -141 136 -300 136 -475c0 -177 -49 -319 -146 -425c-98 -106 -238 -170 -419 -193v-467h-337v469c-178 23 -314 83 -408 183c-94 98 -142 234 -143 405v503h338v-507
c2 -169 73 -274 213 -315v822h337z" />
    <glyph glyph-name="omega" unicode="&#x3c9;" horiz-adv-x="1679" 
d="M533 1082c-83 -177 -126 -349 -131 -516c0 -106 11 -187 34 -242c22 -56 54 -84 95 -84c88 0 132 91 132 272v360h361v-360c0 -181 44 -272 132 -272c41 0 72 28 95 84s34 137 34 242c-5 170 -50 342 -133 516h313c104 -154 156 -326 156 -516c0 -197 -38 -344 -115 -441
c-76 -97 -189 -145 -340 -145c-145 0 -252 67 -323 201c-35 -66 -79 -116 -135 -150c-54 -34 -117 -51 -187 -51c-151 0 -265 48 -341 145c-77 97 -115 244 -115 441c0 190 52 362 156 516h312z" />
    <glyph glyph-name="iotadieresis" unicode="&#x3ca;" horiz-adv-x="698" 
d="M445 1082l-1 -720c0 -41 7 -69 22 -85s44 -24 87 -24c33 0 61 2 84 6v-241c-61 -19 -124 -29 -190 -29c-117 0 -203 28 -258 83s-83 138 -83 248v762h339zM-118 1344c0 37 14 68 44 94c28 26 64 39 107 39s79 -13 107 -39c30 -26 44 -57 44 -94s-14 -68 -44 -94
c-28 -26 -64 -39 -107 -39s-79 13 -107 39c-30 26 -44 57 -44 94zM401 1344c0 37 15 68 43 94c30 26 65 39 108 39s78 -13 108 -39c28 -26 43 -57 43 -94s-15 -68 -43 -94c-30 -26 -65 -39 -108 -39s-78 13 -108 39c-28 26 -43 57 -43 94z" />
    <glyph glyph-name="upsilondieresis" unicode="&#x3cb;" horiz-adv-x="1116" 
d="M436 1082v-667c0 -117 30 -176 91 -176c54 0 99 32 133 96c36 64 53 141 53 231c-3 164 -33 336 -90 516h313c31 -61 57 -135 80 -222c22 -86 33 -184 33 -294c0 -187 -44 -331 -131 -434c-88 -102 -215 -153 -381 -153c-140 0 -248 37 -323 109
c-75 74 -114 179 -115 316v678h337zM163 1365c0 37 15 68 43 94c30 26 65 39 108 39s78 -13 108 -39c28 -26 43 -57 43 -94s-15 -68 -43 -94c-30 -26 -65 -39 -108 -39s-78 13 -108 39c-28 26 -43 57 -43 94zM682 1365c0 37 14 68 44 94c28 26 64 39 107 39s79 -13 107 -39
c30 -26 44 -57 44 -94s-14 -68 -44 -94c-28 -26 -64 -39 -107 -39s-79 13 -107 39c-30 26 -44 57 -44 94z" />
    <glyph glyph-name="omicrontonos" unicode="&#x3cc;" horiz-adv-x="1150" 
d="M52 551c0 108 21 204 63 289c42 84 102 149 181 194s171 68 277 68c162 0 290 -50 383 -150c93 -101 140 -237 140 -410v-12c0 -169 -47 -302 -140 -402c-94 -98 -221 -148 -381 -148c-154 0 -278 46 -371 138c-93 93 -144 218 -151 376zM389 530c0 -100 16 -173 47 -220
s78 -70 139 -70c120 0 181 92 184 277v34c0 194 -62 291 -186 291c-113 0 -174 -84 -183 -251zM537 1602h304l-189 -346h-200z" />
    <glyph glyph-name="upsilontonos" unicode="&#x3cd;" horiz-adv-x="1116" 
d="M436 1082v-667c0 -117 30 -176 91 -176c54 0 99 32 133 96c36 64 53 141 53 231c-3 164 -33 336 -90 516h313c31 -61 57 -135 80 -222c22 -86 33 -184 33 -294c0 -187 -44 -331 -131 -434c-88 -102 -215 -153 -381 -153c-140 0 -248 37 -323 109
c-75 74 -114 179 -115 316v678h337zM536 1602h304l-189 -346h-200z" />
    <glyph glyph-name="omegatonos" unicode="&#x3ce;" horiz-adv-x="1679" 
d="M533 1082c-83 -177 -126 -349 -131 -516c0 -106 11 -187 34 -242c22 -56 54 -84 95 -84c88 0 132 91 132 272v360h361v-360c0 -181 44 -272 132 -272c41 0 72 28 95 84s34 137 34 242c-5 170 -50 342 -133 516h313c104 -154 156 -326 156 -516c0 -197 -38 -344 -115 -441
c-76 -97 -189 -145 -340 -145c-145 0 -252 67 -323 201c-35 -66 -79 -116 -135 -150c-54 -34 -117 -51 -187 -51c-151 0 -265 48 -341 145c-77 97 -115 244 -115 441c0 190 52 362 156 516h312zM797 1602h304l-189 -346h-200z" />
    <glyph glyph-name="theta1" unicode="&#x3d1;" horiz-adv-x="1236" 
d="M1242 562l-98 -24v-67c0 -148 -48 -267 -146 -357c-96 -89 -223 -134 -379 -134c-95 0 -181 20 -257 62c-77 40 -137 98 -180 174c-44 74 -66 158 -66 250v213h316v-208c0 -67 20 -121 58 -161c40 -39 90 -59 151 -59c43 0 78 19 103 57c26 37 39 89 40 154v69
c-131 31 -236 91 -316 182s-120 198 -120 321v23c0 125 37 226 112 303s174 116 298 116c120 0 214 -39 282 -116c69 -78 103 -185 104 -320v-219l87 17zM663 1050c0 -100 40 -171 121 -213v248c-1 67 -17 101 -50 101c-47 0 -71 -39 -71 -116v-20z" />
    <glyph glyph-name="Upsilon1" unicode="&#x3d2;" horiz-adv-x="1275" 
d="M638 770l164 460c65 172 178 258 339 258c37 0 89 -8 156 -25l-38 -256l-62 3c-50 0 -84 -24 -102 -71l-283 -680v-459h-353v457l-277 677c-21 51 -56 76 -105 76l-62 -3l-35 256c61 17 112 25 155 25c89 0 160 -21 215 -64s97 -108 128 -195z" />
    <glyph glyph-name="omega1" unicode="&#x3d6;" horiz-adv-x="1740" 
d="M1752 860h-125c31 -93 47 -191 47 -294c0 -199 -39 -347 -116 -442c-77 -96 -192 -144 -343 -144c-77 0 -145 18 -203 54c-60 35 -107 87 -143 156c-36 -69 -83 -121 -143 -156c-58 -36 -126 -54 -202 -54c-153 0 -268 48 -345 145s-116 244 -116 441
c0 103 16 201 47 294h-121v222h1763v-222zM1338 566c-3 98 -18 196 -47 294h-844c-28 -103 -43 -201 -46 -294c0 -107 11 -188 35 -243c22 -55 55 -83 98 -83c103 0 155 91 155 273v171h360v-191c1 -81 15 -144 41 -187c28 -44 65 -66 114 -66c43 0 76 28 100 83
c22 55 34 136 34 243z" />
    <glyph glyph-name="uni0400" unicode="&#x400;" horiz-adv-x="1146" 
d="M1013 617h-552v-347h652v-270h-1003v1456h1005v-271h-654v-307h552v-261zM804 1532h-274l-282 314h356z" />
    <glyph glyph-name="uni0401" unicode="&#x401;" horiz-adv-x="1146" 
d="M1013 617h-552v-347h652v-270h-1003v1456h1005v-271h-654v-307h552v-261zM231 1675c0 37 15 68 43 94c30 26 65 39 108 39s78 -13 108 -39c28 -26 43 -57 43 -94s-15 -68 -43 -94c-30 -26 -65 -39 -108 -39s-78 13 -108 39c-28 26 -43 57 -43 94zM750 1675
c0 37 14 68 44 94c28 26 64 39 107 39s79 -13 107 -39c30 -26 44 -57 44 -94s-14 -68 -44 -94c-28 -26 -64 -39 -107 -39s-79 13 -107 39c-30 26 -44 57 -44 94z" />
    <glyph glyph-name="uni0402" unicode="&#x402;" horiz-adv-x="1527" 
d="M1161 1185h-451v-313c77 16 152 24 223 24c174 0 309 -39 405 -117s144 -189 144 -333c0 -95 -24 -179 -73 -252c-49 -72 -116 -126 -203 -161c-86 -35 -189 -53 -308 -53v253c145 0 222 51 232 152l2 38c0 62 -20 111 -60 149c-41 36 -94 55 -161 55
c-74 0 -141 -5 -201 -16v-611h-351v1185h-336v271h1138v-271z" />
    <glyph glyph-name="uni0403" unicode="&#x403;" horiz-adv-x="1142" 
d="M1092 1185h-633v-1185h-351v1456h984v-271zM653 1846h356l-278 -314h-275z" />
    <glyph glyph-name="uni0404" unicode="&#x404;" horiz-adv-x="1331" 
d="M1288 492c-5 -101 -33 -191 -84 -268c-51 -78 -121 -138 -210 -181c-90 -43 -193 -64 -308 -64c-191 0 -342 62 -452 187s-165 301 -165 528v71c0 143 25 269 75 377c50 107 122 190 214 248c94 57 201 86 323 86c177 0 318 -46 425 -139s168 -221 184 -385h-350
c-3 89 -25 153 -66 193c-42 40 -106 60 -193 60c-81 0 -143 -29 -185 -86c-43 -57 -68 -143 -75 -256h386v-271h-386c8 -121 33 -209 75 -263c41 -54 105 -81 190 -81c163 0 247 81 251 244h351z" />
    <glyph glyph-name="uni0405" unicode="&#x405;" horiz-adv-x="1282" 
d="M861 387c0 51 -18 91 -55 120c-36 29 -100 58 -191 89s-166 60 -224 89c-189 93 -283 220 -283 382c0 81 24 152 70 213c48 62 114 110 200 144c86 35 183 52 290 52c105 0 198 -19 282 -56c82 -37 147 -90 193 -160c46 -68 69 -147 69 -236h-350c0 59 -18 105 -54 138
c-37 33 -86 49 -148 49c-63 0 -112 -14 -148 -41c-37 -28 -55 -63 -55 -106c0 -37 20 -71 60 -102c40 -30 110 -61 211 -94c101 -32 183 -67 248 -104c157 -91 236 -216 236 -375c0 -127 -48 -227 -144 -300s-228 -109 -395 -109c-118 0 -225 21 -321 64
c-95 42 -167 100 -216 174c-48 73 -72 158 -72 254h352c0 -78 20 -136 60 -172c41 -38 106 -56 197 -56c58 0 104 12 137 38c34 24 51 60 51 105z" />
    <glyph glyph-name="uni0406" unicode="&#x406;" horiz-adv-x="618" 
d="M484 0h-350v1456h350v-1456z" />
    <glyph glyph-name="uni0407" unicode="&#x407;" horiz-adv-x="618" 
d="M484 0h-350v1456h350v-1456zM-103 1675c0 37 15 68 43 94c30 26 65 39 108 39s78 -13 108 -39c28 -26 43 -57 43 -94s-15 -68 -43 -94c-30 -26 -65 -39 -108 -39s-78 13 -108 39c-28 26 -43 57 -43 94zM416 1675c0 37 14 68 44 94c28 26 64 39 107 39s79 -13 107 -39
c30 -26 44 -57 44 -94s-14 -68 -44 -94c-28 -26 -64 -39 -107 -39s-79 13 -107 39c-30 26 -44 57 -44 94z" />
    <glyph glyph-name="uni0408" unicode="&#x408;" horiz-adv-x="1151" 
d="M690 1456h350v-999c0 -93 -22 -175 -64 -248c-44 -73 -104 -129 -180 -169c-78 -40 -163 -60 -258 -60c-159 0 -282 40 -370 120s-132 193 -132 340h352c0 -67 12 -115 34 -145c24 -30 62 -45 116 -45c49 0 86 18 112 54c27 37 40 88 40 153v999z" />
    <glyph glyph-name="uni0409" unicode="&#x409;" horiz-adv-x="2148" 
d="M1335 1456v-471h188c111 -1 210 -22 298 -63c88 -42 156 -101 205 -176c48 -75 72 -160 72 -253c0 -94 -24 -179 -72 -253c-48 -76 -116 -134 -204 -176s-188 -63 -299 -64h-539v1185h-327l-24 -489c-10 -169 -33 -303 -70 -404s-89 -174 -157 -220
c-67 -47 -159 -71 -276 -72h-94v270l49 5c70 10 121 53 152 129c31 75 52 203 61 382l25 670h1012zM1335 715v-445h181c68 0 124 21 166 62c44 42 65 96 65 163c0 63 -21 115 -62 156s-96 63 -163 64h-187z" />
    <glyph glyph-name="uni040A" unicode="&#x40a;" horiz-adv-x="2144" 
d="M459 847h522v609h350v-466h183c112 0 212 -21 300 -63c89 -42 157 -101 206 -176s73 -161 73 -256s-24 -181 -72 -255c-48 -76 -116 -134 -203 -176s-187 -63 -299 -64h-538v577h-522v-577h-351v1456h351v-609zM1331 720v-452h181c69 0 124 22 168 64c42 44 64 98 64 165
c0 64 -21 117 -64 159c-42 42 -97 63 -166 64h-183z" />
    <glyph glyph-name="uni040B" unicode="&#x40b;" horiz-adv-x="1531" 
d="M1118 1185h-436v-257c61 7 114 11 157 11c193 0 341 -42 445 -125c105 -83 158 -203 161 -359v-454h-350v445c0 79 -19 136 -57 170c-39 36 -105 53 -199 53c-36 0 -88 -4 -157 -11v-658h-351v1185h-315v271h1102v-271z" />
    <glyph glyph-name="uni040C" unicode="&#x40c;" horiz-adv-x="1310" 
d="M605 542l-144 -158v-384h-351v1456h351v-642l122 185l314 457h434l-492 -644l492 -812h-416zM635 1846h356l-278 -314h-275z" />
    <glyph glyph-name="uni040D" unicode="&#x40d;" horiz-adv-x="1419" 
d="M964 1456h351v-1456h-351v918l-523 -918h-351v1456h351v-919zM865 1532h-274l-282 314h356z" />
    <glyph glyph-name="uni040E" unicode="&#x40e;" horiz-adv-x="1295" 
d="M675 824v-1l241 633h370l-490 -1155c-53 -117 -112 -199 -178 -247c-65 -47 -142 -72 -230 -75h-71l-54 2l-6 272c8 -3 31 -4 70 -4c53 0 93 9 121 27c26 19 48 54 65 107l17 48l-526 1025h373zM1051 1848c0 -91 -34 -165 -101 -222s-157 -85 -269 -85s-202 28 -269 85
s-101 131 -101 222h229c0 -40 12 -71 38 -94c24 -22 59 -33 103 -33s78 11 103 33c24 21 36 53 36 94h231z" />
    <glyph glyph-name="uni040F" unicode="&#x40f;" horiz-adv-x="1419" 
d="M890 270h68v1186h352v-1456h-420v-360h-352v360h-452v1456h349v-1186h103v1h352v-1z" />
    <glyph glyph-name="uni0410" unicode="&#x410;" 
d="M937 272h-481l-84 -272h-375l534 1456h330l538 -1456h-377zM540 543h313l-157 505z" />
    <glyph glyph-name="uni0411" unicode="&#x411;" horiz-adv-x="1279" 
d="M1094 1185h-631v-230h181c115 0 217 -20 306 -59s157 -95 204 -166c48 -72 72 -154 72 -247c0 -143 -53 -260 -160 -349c-106 -89 -249 -134 -428 -134h-528v1456h984v-271zM463 685v-415h180c71 0 128 20 169 60c42 40 63 92 63 155c0 60 -21 108 -62 145
s-99 55 -172 55h-178z" />
    <glyph glyph-name="uni0412" unicode="&#x412;" horiz-adv-x="1321" 
d="M110 0v1456h523c187 0 330 -34 427 -103c98 -69 147 -168 147 -299c0 -75 -17 -140 -52 -193s-86 -93 -153 -118c76 -20 134 -57 175 -112s61 -121 61 -200c0 -143 -45 -250 -136 -321c-90 -72 -224 -109 -401 -110h-591zM461 619v-349h230c63 0 112 14 146 44
c34 28 51 69 51 122c0 121 -60 182 -181 183h-246zM461 849h183c77 1 131 15 164 42s49 68 49 121c0 61 -18 106 -53 132c-35 28 -92 41 -171 41h-172v-336z" />
    <glyph glyph-name="uni0413" unicode="&#x413;" horiz-adv-x="1142" 
d="M1092 1185h-633v-1185h-351v1456h984v-271z" />
    <glyph glyph-name="uni0414" unicode="&#x414;" horiz-adv-x="1520" 
d="M1472 -358h-315v358h-793v-357h-325l-25 627h103c54 36 97 98 131 186c32 87 56 213 70 377l45 623h991v-1186h155zM514 270h490v915h-310l-27 -364c-20 -236 -71 -420 -153 -551z" />
    <glyph glyph-name="uni0415" unicode="&#x415;" horiz-adv-x="1146" 
d="M1013 617h-552v-347h652v-270h-1003v1456h1005v-271h-654v-307h552v-261z" />
    <glyph glyph-name="uni0416" unicode="&#x416;" horiz-adv-x="2136" 
d="M1435 569h-178v-569h-349v569h-181l-280 -569h-436l439 795l-426 661h443l298 -571h143v571h349v-571h142l285 571h442l-415 -659l430 -797h-438z" />
    <glyph glyph-name="uni0417" unicode="&#x417;" horiz-adv-x="1289" 
d="M819 1052c0 46 -18 83 -53 111c-36 28 -84 42 -145 42c-57 0 -102 -13 -137 -41c-34 -26 -51 -62 -51 -106h-350c0 80 23 152 69 215c45 63 110 113 193 149c83 35 175 53 276 53c173 0 308 -36 405 -109c96 -73 144 -174 144 -305c0 -67 -20 -127 -58 -183
c-40 -54 -93 -98 -162 -130c79 -28 139 -70 180 -128c42 -56 63 -127 63 -212c0 -131 -52 -234 -156 -312c-104 -76 -243 -115 -416 -115c-161 0 -294 38 -400 113c-106 76 -159 179 -159 310h352c0 -43 19 -80 58 -110c39 -29 88 -44 149 -44c65 0 118 15 159 46
s61 71 61 120c0 72 -17 123 -52 152c-35 30 -85 45 -152 45h-187v260h199c113 3 170 63 170 179z" />
    <glyph glyph-name="uni0418" unicode="&#x418;" horiz-adv-x="1419" 
d="M964 1456h351v-1456h-351v918l-523 -918h-351v1456h351v-919z" />
    <glyph glyph-name="uni0419" unicode="&#x419;" horiz-adv-x="1419" 
d="M964 1456h351v-1456h-351v918l-523 -918h-351v1456h351v-919zM1075 1848c0 -91 -34 -165 -101 -222s-157 -85 -269 -85s-202 28 -269 85s-101 131 -101 222h229c0 -40 12 -71 38 -94c24 -22 59 -33 103 -33s78 11 103 33c24 21 36 53 36 94h231z" />
    <glyph glyph-name="uni041A" unicode="&#x41a;" horiz-adv-x="1325" 
d="M625 576h-166v-576h-351v1456h351v-563h135l280 563h425l-400 -672l450 -784h-415z" />
    <glyph glyph-name="uni041B" unicode="&#x41b;" horiz-adv-x="1444" 
d="M1335 1456v-1456h-351v1185h-327l-24 -489c-10 -169 -33 -303 -70 -404s-89 -174 -157 -220c-67 -47 -159 -71 -276 -72h-94v270l49 5c70 10 121 53 152 129c31 75 52 203 61 382l25 670h1012z" />
    <glyph glyph-name="uni041C" unicode="&#x41c;" horiz-adv-x="1795" 
d="M571 1456l325 -1013l324 1013h462v-1456h-352v340l34 696l-352 -1036h-232l-353 1037l34 -697v-340h-351v1456h461z" />
    <glyph glyph-name="uni041D" unicode="&#x41d;" horiz-adv-x="1439" 
d="M1327 0h-349v608h-517v-608h-351v1456h351v-578h517v578h349v-1456z" />
    <glyph glyph-name="uni041E" unicode="&#x41e;" horiz-adv-x="1414" 
d="M1343 698c0 -142 -26 -268 -79 -377s-128 -193 -224 -253c-98 -58 -208 -88 -332 -88s-234 28 -330 86c-96 56 -171 138 -224 244c-54 106 -82 228 -85 365v82c0 143 26 269 79 377c52 110 127 194 224 253c98 59 209 89 334 89c123 0 233 -29 330 -88s172 -142 226 -250
c53 -109 80 -233 81 -373v-67zM986 759c0 145 -24 255 -72 329c-49 76 -118 113 -208 113c-176 0 -269 -132 -279 -396l-1 -107c0 -143 24 -252 71 -329s118 -115 211 -115c89 0 157 38 205 113s72 184 73 325v67z" />
    <glyph glyph-name="uni041F" unicode="&#x41f;" horiz-adv-x="1441" 
d="M1333 0h-351v1185h-523v-1185h-351v1456h1225v-1456z" />
    <glyph glyph-name="uni0420" unicode="&#x420;" horiz-adv-x="1333" 
d="M461 494v-494h-351v1456h581c111 0 210 -20 295 -62c86 -40 152 -99 200 -174c46 -76 70 -162 70 -258c0 -142 -51 -256 -152 -340c-102 -86 -242 -128 -419 -128h-224zM461 765h230c68 0 120 17 155 51c36 34 54 82 54 144c0 68 -18 122 -55 163s-87 61 -150 62h-234
v-420z" />
    <glyph glyph-name="uni0421" unicode="&#x421;" horiz-adv-x="1344" 
d="M1288 493c-5 -101 -32 -191 -82 -269c-50 -77 -120 -137 -210 -180c-91 -43 -194 -64 -310 -64c-191 0 -342 62 -452 187s-165 301 -165 528v72c0 143 25 267 75 375c49 106 121 189 214 248c93 58 201 87 324 87c177 0 319 -47 426 -139c107 -94 168 -222 183 -385h-350
c-3 89 -25 152 -67 191s-106 58 -192 58c-87 0 -151 -33 -192 -98s-62 -170 -64 -313v-103c0 -155 20 -266 58 -333c40 -67 107 -100 202 -100c81 0 142 19 185 57s65 98 68 181h349z" />
    <glyph glyph-name="uni0422" unicode="&#x422;" horiz-adv-x="1291" 
d="M1253 1185h-437v-1185h-351v1185h-429v271h1217v-271z" />
    <glyph glyph-name="uni0423" unicode="&#x423;" horiz-adv-x="1295" 
d="M675 824v-1l241 633h370l-490 -1155c-53 -117 -112 -199 -178 -247c-65 -47 -142 -72 -230 -75h-71l-54 2l-6 272c8 -3 31 -4 70 -4c53 0 93 9 121 27c26 19 48 54 65 107l17 48l-526 1025h373z" />
    <glyph glyph-name="uni0424" unicode="&#x424;" horiz-adv-x="1715" 
d="M1030 1332c189 0 340 -56 452 -170c113 -112 169 -260 169 -443c0 -89 -15 -171 -45 -243c-29 -74 -71 -136 -124 -187c-113 -110 -263 -165 -452 -165v-184h-338v184c-191 0 -343 55 -456 165s-169 253 -169 428c0 93 15 177 45 252s72 140 126 193
c113 113 265 170 454 170v184h338v-184zM679 1050c-87 0 -156 -29 -207 -88c-50 -59 -75 -140 -75 -245c0 -96 25 -172 76 -227c51 -56 124 -84 219 -84v644h-13zM1030 1050v-644h15c83 0 150 28 201 82c50 56 75 132 75 231c0 103 -25 183 -73 243c-50 58 -122 88 -218 88z
" />
    <glyph glyph-name="uni0425" unicode="&#x425;" horiz-adv-x="1307" 
d="M653 972l238 484h401l-407 -722l418 -734h-405l-245 493l-245 -493h-404l417 734l-406 722h400z" />
    <glyph glyph-name="uni0426" unicode="&#x426;" horiz-adv-x="1580" 
d="M86 1456h349v-1186h523v1186h352v-1189h223l-20 -618h-331v351h-1096v1456z" />
    <glyph glyph-name="uni0427" unicode="&#x427;" horiz-adv-x="1431" 
d="M1323 1456v-1456h-350v538l-103 -13l-129 -8c-196 0 -346 43 -450 127c-104 86 -157 206 -158 362v450h351v-445c0 -79 19 -137 58 -171c38 -36 104 -53 199 -53l30 1c82 4 149 10 202 19v649h350z" />
    <glyph glyph-name="uni0428" unicode="&#x428;" horiz-adv-x="1979" 
d="M454 1456v-1186h362v1186h351v-1186h358v1186h349v-1456h-1771v1456h351z" />
    <glyph glyph-name="uni0429" unicode="&#x429;" horiz-adv-x="2143" 
d="M454 1456v-1186h362v1186h351v-1186h358v1186h349v-1197h216l-20 -609h-318v350h-1649v1456h351z" />
    <glyph glyph-name="uni042A" unicode="&#x42a;" horiz-adv-x="1595" 
d="M27 1456h753v-501h181c115 0 217 -20 306 -59s157 -95 205 -166c47 -72 71 -154 71 -247c0 -143 -53 -260 -159 -349c-107 -89 -250 -134 -429 -134h-527v1196h-401v260zM780 685v-415h180c71 0 128 20 170 60c41 40 62 92 62 155c0 60 -21 108 -62 145s-99 55 -172 55
h-178z" />
    <glyph glyph-name="uni042B" unicode="&#x42b;" horiz-adv-x="1785" 
d="M461 955h181c115 0 217 -20 306 -59s157 -95 204 -166c48 -72 72 -154 72 -247c0 -143 -53 -260 -160 -349c-106 -89 -249 -134 -428 -134h-527v1456h352v-501zM1680 0h-350v1456h350v-1456zM461 685v-415h180c71 0 128 20 169 60c42 40 63 92 63 155
c0 60 -21 108 -62 145s-99 55 -172 55h-178z" />
    <glyph glyph-name="uni042C" unicode="&#x42c;" horiz-adv-x="1276" 
d="M463 955h181c115 0 217 -20 306 -59s157 -95 204 -166c48 -72 72 -154 72 -247c0 -143 -53 -260 -160 -349c-106 -89 -249 -134 -428 -134h-527v1456h352v-501zM463 685v-415h180c71 0 128 20 169 60c42 40 63 92 63 155c0 60 -21 108 -62 145s-99 55 -172 55h-178z" />
    <glyph glyph-name="uni042D" unicode="&#x42d;" horiz-adv-x="1302" 
d="M367 492c5 -163 89 -244 252 -244c83 0 146 26 189 79c42 53 67 141 75 266h-402v271h402c-9 120 -36 207 -79 260c-43 54 -103 81 -180 81c-86 0 -150 -20 -192 -59c-43 -40 -65 -105 -68 -194h-349c15 163 76 292 183 384c107 94 249 140 426 140
c121 0 228 -29 322 -86c92 -57 164 -140 214 -248c51 -107 76 -233 76 -376v-79c0 -223 -55 -396 -165 -521s-261 -187 -452 -187c-115 0 -218 21 -307 63c-90 43 -160 103 -211 180c-51 78 -79 168 -84 270h350z" />
    <glyph glyph-name="uni042E" unicode="&#x42e;" horiz-adv-x="1991" 
d="M1889 698c0 -142 -26 -268 -79 -377s-128 -193 -224 -253c-98 -58 -208 -88 -332 -88c-112 0 -213 23 -302 70c-90 47 -163 114 -220 202c-57 89 -93 192 -108 309h-151v-561h-350v1456h350v-634h144c8 131 39 247 93 346c55 99 129 176 223 228c94 54 200 80 319 80
c123 0 233 -29 330 -88s172 -142 226 -250c53 -109 80 -233 81 -373v-67zM1532 759c0 145 -24 255 -72 329c-49 76 -118 113 -208 113c-176 0 -269 -132 -279 -396l-1 -107c0 -143 24 -252 71 -329s118 -115 211 -115c89 0 157 38 205 113s72 184 73 325v67z" />
    <glyph glyph-name="uni042F" unicode="&#x42f;" horiz-adv-x="1172" 
d="M737 0v511h-202l-246 -511h-381l299 630c-130 85 -195 209 -195 373c0 144 47 255 142 335c95 78 231 118 409 118h526v-1456h-352zM362 972c0 -74 15 -128 45 -161s80 -50 151 -50h179v424h-177c-70 0 -120 -18 -152 -55c-30 -36 -46 -89 -46 -158z" />
    <glyph glyph-name="uni0430" unicode="&#x430;" horiz-adv-x="1087" 
d="M704 0c-12 22 -23 54 -32 97c-62 -78 -149 -117 -260 -117c-102 0 -189 31 -260 92c-71 62 -107 140 -107 233c0 117 43 206 130 266s213 90 378 90h104v57c0 99 -43 149 -129 149c-80 0 -120 -39 -120 -118h-337c0 105 45 190 133 255c90 65 203 98 341 98
s247 -34 327 -101s121 -160 123 -277v-479c1 -99 17 -175 46 -228v-17h-337zM493 220c42 0 77 9 105 27c27 18 47 38 59 61v173h-98c-117 0 -176 -53 -176 -158c0 -31 10 -55 31 -75c21 -18 47 -28 79 -28z" />
    <glyph glyph-name="uni0431" unicode="&#x431;" horiz-adv-x="1183" 
d="M663 1022c141 0 253 -46 337 -139c82 -93 124 -219 124 -379v-14c0 -101 -21 -191 -63 -268c-42 -78 -103 -138 -181 -180c-80 -42 -172 -63 -278 -63c-160 0 -288 51 -382 154c-96 103 -143 244 -143 424v32c1 247 42 441 122 582s202 230 367 267c74 17 122 33 146 48
c22 16 34 41 34 74h271c0 -83 -13 -147 -39 -190c-25 -43 -66 -79 -122 -108c-55 -28 -133 -51 -234 -70c-79 -15 -140 -46 -184 -94c-42 -47 -72 -114 -87 -199c90 82 194 123 312 123zM600 762c-123 0 -185 -85 -185 -256v-16c0 -167 62 -251 187 -251
c121 0 182 80 185 240v32c0 167 -62 251 -187 251z" />
    <glyph glyph-name="uni0432" unicode="&#x432;" horiz-adv-x="1150" 
d="M117 0v1082h464c149 0 263 -26 341 -78c80 -52 119 -127 119 -225c0 -50 -17 -95 -52 -135c-35 -39 -85 -70 -152 -91c86 -15 152 -43 199 -85c47 -43 70 -96 70 -159c0 -102 -38 -179 -116 -231c-76 -51 -187 -77 -332 -78h-541zM455 441v-183h197c42 0 72 7 90 22
s27 37 27 67c0 60 -35 91 -104 94h-210zM455 649h139c41 0 69 7 86 21c16 13 24 33 24 60c0 35 -10 59 -30 73s-51 21 -93 21h-126v-175z" />
    <glyph glyph-name="uni0433" unicode="&#x433;" horiz-adv-x="857" 
d="M852 822h-426v-822h-338v1082h764v-260z" />
    <glyph glyph-name="uni0434" unicode="&#x434;" horiz-adv-x="1317" 
d="M123 260c54 54 93 108 117 161c25 53 39 115 43 186l3 74l6 401h843v-822h162v-588h-338v328h-586v-328h-346l-1 588h97zM511 260h288v562h-173l-1 -89c-5 -195 -43 -352 -114 -473z" />
    <glyph glyph-name="uni0435" unicode="&#x435;" horiz-adv-x="1115" 
d="M618 -20c-166 0 -300 50 -403 148c-103 100 -154 228 -154 387v28c0 111 21 208 61 293c42 85 101 150 180 196c79 47 172 70 280 70c152 0 272 -47 360 -142c88 -94 132 -225 132 -394v-131h-670c12 -61 38 -108 79 -143s93 -52 158 -52c107 0 190 37 250 112l154 -182
c-42 -58 -101 -104 -179 -138c-76 -35 -159 -52 -248 -52zM580 842c-99 0 -157 -65 -176 -196h340v26c1 54 -12 96 -41 126c-29 29 -70 44 -123 44z" />
    <glyph glyph-name="uni0436" unicode="&#x436;" horiz-adv-x="1847" 
d="M1225 378h-128v-378h-337v378h-125l-185 -378h-400l322 579l-335 503h421l205 -389h97v389h337v-389h100l206 389h421l-337 -505l10 5l324 -582h-412z" />
    <glyph glyph-name="uni0437" unicode="&#x437;" horiz-adv-x="1059" 
d="M655 755c0 71 -37 106 -112 106c-86 0 -129 -31 -129 -93h-337c0 98 41 178 123 240c83 62 190 93 321 93c146 0 261 -27 345 -83c84 -54 126 -132 126 -232c0 -48 -14 -92 -44 -132c-28 -41 -69 -73 -122 -97c123 -43 185 -127 185 -251c0 -99 -45 -178 -133 -237
c-90 -59 -208 -89 -357 -89c-135 0 -246 31 -332 92c-86 62 -129 145 -129 248h337c0 -27 11 -51 34 -70c23 -20 60 -30 113 -30c43 0 75 10 98 31c22 21 33 49 33 85c0 77 -43 117 -129 120h-151v196h137c82 0 123 34 123 103z" />
    <glyph glyph-name="uni0438" unicode="&#x438;" horiz-adv-x="1148" 
d="M724 1082h338v-1082h-338v630l-297 -630h-339v1082h339v-628z" />
    <glyph glyph-name="uni0439" unicode="&#x439;" horiz-adv-x="1148" 
d="M724 1082h338v-1082h-338v630l-297 -630h-339v1082h339v-628zM953 1538c0 -91 -34 -165 -101 -222s-157 -85 -269 -85s-202 28 -269 85s-101 131 -101 222h229c0 -40 12 -71 38 -94c24 -22 59 -33 103 -33s78 11 103 33c24 21 36 53 36 94h231z" />
    <glyph glyph-name="uni043A" unicode="&#x43a;" horiz-adv-x="1174" 
d="M556 378h-101v-378h-338v1082h338v-389h97l172 389h432l-316 -500h1l347 -582h-457z" />
    <glyph glyph-name="uni043B" unicode="&#x43b;" horiz-adv-x="1150" 
d="M1061 1082v-1082h-337v822h-202l-18 -331c-13 -164 -50 -287 -111 -368s-152 -122 -273 -123h-106l-4 258l35 4c45 5 78 35 99 90c22 54 36 136 42 246l21 484h854z" />
    <glyph glyph-name="uni043C" unicode="&#x43c;" horiz-adv-x="1572" 
d="M772 372l245 710h424v-1082h-338v600l-218 -600h-224l-206 568v-568h-338v1082h414z" />
    <glyph glyph-name="uni043D" unicode="&#x43d;" horiz-adv-x="1148" 
d="M1058 0h-338v401h-295v-401h-337v1082h337v-422h295v422h338v-1082z" />
    <glyph glyph-name="uni043E" unicode="&#x43e;" horiz-adv-x="1150" 
d="M52 551c0 108 21 204 63 289c42 84 102 149 181 194s171 68 277 68c162 0 290 -50 383 -150c93 -101 140 -237 140 -410v-12c0 -169 -47 -302 -140 -402c-94 -98 -221 -148 -381 -148c-154 0 -278 46 -371 138c-93 93 -144 218 -151 376zM389 530c0 -100 16 -173 47 -220
s78 -70 139 -70c120 0 181 92 184 277v34c0 194 -62 291 -186 291c-113 0 -174 -84 -183 -251z" />
    <glyph glyph-name="uni043F" unicode="&#x43f;" horiz-adv-x="1148" 
d="M1062 0h-339v822h-298v-822h-337v1082h974v-1082z" />
    <glyph glyph-name="uni0440" unicode="&#x440;" horiz-adv-x="1153" 
d="M1099 533c0 -168 -38 -302 -113 -403c-76 -100 -178 -150 -307 -150c-99 0 -181 36 -245 109v-505h-337v1498h315l10 -100c65 80 150 120 255 120c133 0 237 -49 311 -148c74 -98 111 -233 111 -405v-16zM762 554c0 192 -56 288 -168 288c-80 0 -133 -29 -160 -86v-426
c29 -60 83 -90 162 -90c107 0 163 93 166 278v36z" />
    <glyph glyph-name="uni0441" unicode="&#x441;" horiz-adv-x="1064" 
d="M552 240c47 0 84 13 110 38c26 26 39 62 38 108h316c0 -119 -42 -216 -128 -292c-84 -76 -194 -114 -328 -114c-157 0 -281 49 -372 148s-136 235 -136 410v14c0 109 20 206 60 290c41 83 99 148 175 192c76 46 166 68 270 68c141 0 252 -39 335 -117s124 -184 124 -317
h-316c0 56 -14 99 -41 129s-64 45 -110 45c-87 0 -138 -56 -153 -167c-5 -35 -7 -84 -7 -146c0 -109 13 -184 39 -226s67 -63 124 -63z" />
    <glyph glyph-name="uni0442" unicode="&#x442;" horiz-adv-x="1073" 
d="M1042 824h-341v-824h-339v824h-336v258h1016v-258z" />
    <glyph glyph-name="uni0443" unicode="&#x443;" horiz-adv-x="1061" 
d="M527 472l180 610h361l-441 -1263l-19 -46c-63 -140 -173 -210 -332 -210c-44 0 -90 7 -139 20v241h44c47 0 83 7 109 20c24 14 43 39 55 74l27 72l-376 1092h360z" />
    <glyph glyph-name="uni0444" unicode="&#x444;" horiz-adv-x="1502" 
d="M53 539c0 173 36 310 107 411c72 101 171 152 296 152c43 0 85 -9 127 -26v460h337v-459c39 17 80 25 125 25c126 0 225 -51 297 -153c71 -102 107 -246 107 -431c0 -167 -36 -298 -109 -394c-72 -96 -170 -144 -293 -144c-47 0 -89 8 -127 23v-419h-337v420
c-42 -16 -85 -24 -129 -24c-123 0 -220 48 -292 144c-73 96 -109 230 -109 401v14zM390 518c0 -183 48 -275 145 -277h26l22 2v596l-42 3c-101 0 -151 -108 -151 -324zM1111 539c0 95 -13 170 -37 223c-26 53 -63 80 -112 80l-42 -3v-597l44 -2c90 0 139 77 146 231z" />
    <glyph glyph-name="uni0445" unicode="&#x445;" horiz-adv-x="1054" 
d="M533 784l157 298h350l-285 -527l299 -555h-352l-170 320l-167 -320h-354l300 555l-284 527h354z" />
    <glyph glyph-name="uni0446" unicode="&#x446;" horiz-adv-x="1261" 
d="M88 1082h337v-822h298v822h339v-824h178l-20 -579h-318v321h-814v1082z" />
    <glyph glyph-name="uni0447" unicode="&#x447;" horiz-adv-x="1142" 
d="M1056 0h-339v325c-39 -7 -72 -10 -100 -10c-178 0 -312 35 -401 103c-90 70 -135 173 -136 311v353h337v-356c1 -59 15 -98 42 -120c27 -20 80 -31 158 -31c33 0 66 3 100 9v498h339v-1082z" />
    <glyph glyph-name="uni0448" unicode="&#x448;" horiz-adv-x="1711" 
d="M425 1082v-822h254v822h338v-822h253v822h338v-1082h-1520v1082h337z" />
    <glyph glyph-name="uni0449" unicode="&#x449;" horiz-adv-x="1918" 
d="M427 1082v-822h253v822h339v-822h253v822h337v-824h247l-20 -579h-317v321h-1429v1082h337z" />
    <glyph glyph-name="uni044A" unicode="&#x44a;" horiz-adv-x="1385" 
d="M678 785h173c101 0 189 -16 265 -49c75 -33 133 -79 173 -139s60 -130 60 -209c0 -117 -45 -210 -135 -282c-91 -70 -213 -106 -368 -106h-506v821h-305v261h643v-297zM678 526v-268h172c52 0 92 12 120 36c29 23 43 55 43 96c0 40 -13 73 -39 98c-25 25 -67 38 -124 38
h-172z" />
    <glyph glyph-name="uni044B" unicode="&#x44b;" horiz-adv-x="1746" 
d="M456 785h173c100 0 188 -16 264 -49s134 -79 174 -139s60 -130 60 -209c0 -117 -45 -210 -135 -282c-91 -70 -214 -106 -370 -106h-505v1082h339v-297zM1626 0h-339v1082h339v-1082zM456 526v-268h171c51 0 91 12 121 36c28 23 43 55 43 96c0 40 -13 73 -39 98
s-68 38 -125 38h-171z" />
    <glyph glyph-name="uni044C" unicode="&#x44c;" horiz-adv-x="1157" 
d="M456 785h173c100 0 188 -16 264 -49s134 -79 174 -139s60 -130 60 -209c0 -117 -45 -210 -135 -282c-91 -70 -214 -106 -370 -106h-505v1082h339v-297zM456 526v-268h171c51 0 91 12 121 36c28 23 43 55 43 96c0 40 -13 73 -39 98s-68 38 -125 38h-171z" />
    <glyph glyph-name="uni044D" unicode="&#x44d;" horiz-adv-x="1044" 
d="M497 842c-91 0 -136 -48 -136 -145h-316c0 118 42 215 125 291c84 76 193 114 327 114c158 0 283 -49 375 -148c93 -99 139 -236 139 -411v-14c0 -168 -46 -301 -138 -401c-92 -98 -217 -148 -374 -148c-139 0 -249 38 -331 116c-82 76 -123 183 -123 318h316
c0 -54 12 -96 35 -128c24 -30 58 -46 103 -46c101 0 157 70 170 211h-238v183h238c-12 139 -69 208 -172 208z" />
    <glyph glyph-name="uni044E" unicode="&#x44e;" horiz-adv-x="1657" 
d="M461 682h106c24 131 81 234 171 308c89 75 202 112 339 112c155 0 278 -46 371 -138c93 -93 143 -217 151 -374l1 -60c0 -167 -47 -300 -140 -400s-220 -150 -381 -150c-141 0 -257 39 -349 116c-90 78 -146 186 -166 325h-103v-421h-338v1082h338v-400zM893 530
c0 -100 16 -173 47 -220s78 -70 139 -70c120 0 181 92 184 277v34c0 194 -62 291 -186 291c-113 0 -174 -84 -183 -251z" />
    <glyph glyph-name="uni044F" unicode="&#x44f;" horiz-adv-x="1156" 
d="M1036 1082v-1082h-336v358h-130l-191 -358h-336l222 415c-65 31 -115 71 -149 122c-36 51 -53 108 -53 172c0 110 44 199 132 267c88 69 203 104 344 106h497zM400 697c0 -33 14 -61 40 -85c28 -23 62 -36 105 -37h155v249h-150c-44 0 -80 -12 -108 -37s-42 -55 -42 -90z
" />
    <glyph glyph-name="uni0450" unicode="&#x450;" horiz-adv-x="1115" 
d="M618 -20c-166 0 -300 50 -403 148c-103 100 -154 228 -154 387v28c0 111 21 208 61 293c42 85 101 150 180 196c79 47 172 70 280 70c152 0 272 -47 360 -142c88 -94 132 -225 132 -394v-131h-670c12 -61 38 -108 79 -143s93 -52 158 -52c107 0 190 37 250 112l154 -182
c-42 -58 -101 -104 -179 -138c-76 -35 -159 -52 -248 -52zM580 842c-99 0 -157 -65 -176 -196h340v26c1 54 -12 96 -41 126c-29 29 -70 44 -123 44zM694 1223h-274l-282 314h356z" />
    <glyph glyph-name="uni0451" unicode="&#x451;" horiz-adv-x="1115" 
d="M618 -20c-166 0 -300 50 -403 148c-103 100 -154 228 -154 387v28c0 111 21 208 61 293c42 85 101 150 180 196c79 47 172 70 280 70c152 0 272 -47 360 -142c88 -94 132 -225 132 -394v-131h-670c12 -61 38 -108 79 -143s93 -52 158 -52c107 0 190 37 250 112l154 -182
c-42 -58 -101 -104 -179 -138c-76 -35 -159 -52 -248 -52zM580 842c-99 0 -157 -65 -176 -196h340v26c1 54 -12 96 -41 126c-29 29 -70 44 -123 44zM121 1366c0 37 15 68 43 94c30 26 65 39 108 39s78 -13 108 -39c28 -26 43 -57 43 -94s-15 -68 -43 -94
c-30 -26 -65 -39 -108 -39s-78 13 -108 39c-28 26 -43 57 -43 94zM640 1366c0 37 14 68 44 94c28 26 64 39 107 39s79 -13 107 -39c30 -26 44 -57 44 -94s-14 -68 -44 -94c-28 -26 -64 -39 -107 -39s-79 13 -107 39c-30 26 -44 57 -44 94z" />
    <glyph glyph-name="uni0452" unicode="&#x452;" horiz-adv-x="1156" 
d="M663 1184h-239v-218c72 91 164 136 276 136c119 0 209 -35 270 -106s92 -175 93 -313v-698c0 -135 -36 -239 -107 -312c-72 -73 -173 -110 -302 -110c-58 0 -111 6 -160 17l13 255c35 -8 68 -12 101 -12c78 0 117 55 117 165v686c0 58 -12 100 -35 128
c-23 26 -63 40 -119 40c-69 0 -118 -22 -147 -66v-776h-337v1184h-154v191h154v161h337v-161h239v-191z" />
    <glyph glyph-name="uni0453" unicode="&#x453;" horiz-adv-x="857" 
d="M852 822h-426v-822h-338v1082h764v-260zM466 1536h356l-278 -314h-275z" />
    <glyph glyph-name="uni0454" unicode="&#x454;" horiz-adv-x="1044" 
d="M544 240c47 0 84 13 110 38c26 26 39 62 38 108h316c0 -119 -42 -216 -128 -292c-84 -76 -194 -114 -328 -114c-157 0 -281 49 -372 148s-136 235 -136 410v14c0 109 20 206 60 290c41 83 99 148 175 192c76 46 166 68 270 68c141 0 252 -39 335 -117s124 -184 124 -317
h-316c0 56 -14 99 -41 129s-64 45 -110 45c-49 0 -86 -17 -112 -50c-26 -34 -42 -93 -47 -176h263v-183h-260c7 -69 23 -119 49 -149c27 -29 63 -44 110 -44z" />
    <glyph glyph-name="uni0455" unicode="&#x455;" horiz-adv-x="1049" 
d="M661 304c0 29 -15 52 -45 69s-87 35 -171 54s-153 43 -208 73c-55 31 -96 68 -125 111s-43 93 -43 149c0 99 41 181 123 246c82 64 189 96 322 96c143 0 257 -32 344 -97s130 -150 130 -255h-338c0 87 -46 130 -137 130c-35 0 -65 -10 -89 -30c-24 -19 -36 -44 -36 -73
c0 -30 15 -54 44 -73s76 -34 140 -46c65 -12 121 -26 170 -43c163 -56 244 -156 244 -301c0 -99 -44 -179 -132 -241c-87 -62 -201 -93 -340 -93c-93 0 -175 17 -248 50s-129 79 -170 136s-61 118 -61 181h315c1 -50 18 -87 50 -109c32 -24 73 -35 123 -35c46 0 81 9 103 28
c24 19 35 43 35 73z" />
    <glyph glyph-name="uni0456" unicode="&#x456;" horiz-adv-x="563" 
d="M450 0h-338v1082h338v-1082zM92 1361c0 48 17 87 52 118s80 46 135 46s100 -15 135 -46s52 -70 52 -118s-17 -87 -52 -118s-80 -46 -135 -46s-100 15 -135 46s-52 70 -52 118z" />
    <glyph glyph-name="uni0457" unicode="&#x457;" horiz-adv-x="584" 
d="M462 0h-339v1082h339v-1082zM-118 1345c0 37 14 68 44 94c28 26 64 39 107 39s79 -13 107 -39c30 -26 44 -57 44 -94s-14 -68 -44 -94c-28 -26 -64 -39 -107 -39s-79 13 -107 39c-30 26 -44 57 -44 94zM401 1345c0 37 15 68 43 94c30 26 65 39 108 39s78 -13 108 -39
c28 -26 43 -57 43 -94s-15 -68 -43 -94c-30 -26 -65 -39 -108 -39s-78 13 -108 39c-28 26 -43 57 -43 94z" />
    <glyph glyph-name="uni0458" unicode="&#x458;" horiz-adv-x="553" 
d="M457 1082v-1119c-1 -128 -37 -227 -110 -296s-174 -104 -304 -104c-56 0 -109 6 -159 17v255c39 -6 70 -9 95 -9c93 0 140 46 140 139v1117h338zM94 1361c0 48 17 87 52 118s80 46 135 46s100 -15 135 -46s52 -70 52 -118s-17 -87 -52 -118s-80 -46 -135 -46
s-100 15 -135 46s-52 70 -52 118z" />
    <glyph glyph-name="uni0459" unicode="&#x459;" horiz-adv-x="1772" 
d="M1068 1082v-317h182c148 -2 266 -37 355 -107c89 -68 133 -160 133 -275c0 -117 -45 -210 -136 -279c-90 -69 -210 -103 -360 -104h-513v822h-206l-18 -331c-13 -164 -50 -287 -111 -368s-153 -122 -274 -123h-105l-5 258l36 4c45 5 78 35 100 90c21 54 35 136 41 246
l21 484h860zM1068 506v-248h171c57 0 99 12 125 36c25 25 38 55 38 91c0 35 -13 63 -38 87c-26 22 -68 34 -125 34h-171z" />
    <glyph glyph-name="uni045A" unicode="&#x45a;" horiz-adv-x="1764" 
d="M425 660h295v422h338v-317h183c148 -2 266 -37 355 -107c89 -68 133 -160 133 -275c0 -117 -45 -210 -135 -279c-91 -69 -211 -103 -361 -104h-513v401h-295v-401h-337v1082h337v-422zM1058 506v-248h172c57 0 99 12 124 36c26 25 39 55 39 91c0 35 -13 63 -39 87
c-25 22 -67 34 -124 34h-172z" />
    <glyph glyph-name="uni045B" unicode="&#x45b;" horiz-adv-x="1152" 
d="M671 1199h-247v-233c72 91 164 136 276 136c119 0 209 -35 270 -106s92 -175 93 -313v-683h-338v675c0 57 -12 99 -35 127c-23 26 -63 40 -119 40c-69 0 -118 -22 -147 -66v-776h-337v1199h-146v191h146v146h337v-146h247v-191z" />
    <glyph glyph-name="uni045C" unicode="&#x45c;" horiz-adv-x="1174" 
d="M556 378h-101v-378h-338v1082h338v-389h97l172 389h432l-316 -500h1l347 -582h-457zM643 1536h356l-278 -314h-275z" />
    <glyph glyph-name="uni045D" unicode="&#x45d;" horiz-adv-x="1148" 
d="M724 1082h338v-1082h-338v630l-297 -630h-339v1082h339v-628zM743 1222h-274l-282 314h356z" />
    <glyph glyph-name="uni045E" unicode="&#x45e;" horiz-adv-x="1061" 
d="M527 472l180 610h361l-441 -1263l-19 -46c-63 -140 -173 -210 -332 -210c-44 0 -90 7 -139 20v241h44c47 0 83 7 109 20c24 14 43 39 55 74l27 72l-376 1092h360zM899 1538c0 -91 -34 -165 -101 -222s-157 -85 -269 -85s-202 28 -269 85s-101 131 -101 222h229
c0 -40 13 -71 37 -94c26 -22 60 -33 104 -33s78 11 102 33c25 21 37 53 37 94h231z" />
    <glyph glyph-name="uni045F" unicode="&#x45f;" horiz-adv-x="1148" 
d="M425 1082v-822h298v822h339v-1082h-319v-360h-338v360h-317v1082h337z" />
    <glyph glyph-name="uni0460" unicode="&#x460;" horiz-adv-x="2016" 
d="M1895 1456v-967c0 -103 -22 -193 -65 -270s-106 -136 -188 -177c-81 -42 -175 -63 -282 -63c-155 0 -275 52 -361 155c-85 -103 -203 -155 -355 -155c-163 0 -294 45 -392 135c-100 91 -150 214 -151 371v971h351v-961c0 -164 64 -246 192 -246c117 0 177 75 180 226v981
h348v-961c0 -164 63 -246 188 -246c120 0 181 76 184 229v978h351z" />
    <glyph glyph-name="uni0461" unicode="&#x461;" horiz-adv-x="1748" 
d="M1686 1082v-610c-2 -151 -45 -271 -129 -360s-199 -133 -346 -133c-138 0 -245 47 -321 142c-76 -95 -184 -142 -323 -142c-146 0 -262 44 -347 133c-86 88 -130 208 -132 360v610h338v-621c3 -148 50 -222 141 -222c53 0 93 19 118 57c25 39 38 101 38 186v600h338v-600
c0 -85 12 -147 35 -186c24 -38 62 -57 115 -57c47 0 82 19 103 57c22 39 33 101 33 186v600h339z" />
    <glyph glyph-name="uni0462" unicode="&#x462;" horiz-adv-x="1276" 
d="M694 1085h-231v-130h181c115 0 217 -20 306 -59s157 -95 204 -166c48 -72 72 -154 72 -247c0 -143 -53 -260 -160 -349c-106 -89 -249 -134 -428 -134h-527v1085h-147v191h147v180h352v-180h231v-191zM463 685v-415h180c71 0 128 20 169 60c42 40 63 92 63 155
c0 60 -21 108 -62 145s-99 55 -172 55h-178z" />
    <glyph glyph-name="uni0463" unicode="&#x463;" horiz-adv-x="1157" 
d="M678 1083h-222v-278h167c154 0 277 -36 367 -109c92 -73 137 -170 137 -293c0 -121 -45 -219 -133 -292c-90 -73 -211 -110 -364 -111h-512v1083h-139v191h139v288h338v-288h222v-191zM456 546v-288h171c51 0 91 13 121 38c28 26 43 62 43 109c0 94 -59 141 -176 141
h-159z" />
    <glyph glyph-name="uni0464" unicode="&#x464;" horiz-adv-x="1823" 
d="M446 869h169c17 186 80 334 188 444s248 165 420 165c177 0 319 -46 426 -140c107 -92 168 -221 183 -384h-350c-3 89 -25 152 -66 191c-42 39 -106 58 -193 58c-79 0 -139 -27 -181 -83c-40 -54 -65 -138 -72 -251h367v-261h-369c5 -124 28 -214 69 -269
s104 -83 191 -83c81 0 142 19 184 57c43 38 65 98 68 181h350c-5 -101 -32 -190 -82 -268c-50 -77 -120 -138 -211 -180c-91 -44 -194 -65 -309 -65c-180 0 -324 55 -432 165c-108 111 -169 265 -182 462h-168v-608h-349v1456h349v-587z" />
    <glyph glyph-name="uni0465" unicode="&#x465;" horiz-adv-x="1553" 
d="M437 640h110c16 145 68 258 157 340c88 81 203 122 344 122s252 -39 335 -117s124 -184 124 -317h-316c0 56 -13 99 -41 129c-26 30 -63 45 -109 45s-82 -15 -108 -46s-42 -83 -49 -156h269v-191h-270c5 -73 20 -126 45 -159c26 -33 64 -50 115 -50c47 0 84 13 110 38
c26 26 39 62 38 108h316c0 -119 -43 -216 -127 -292c-86 -76 -195 -114 -329 -114c-144 0 -260 41 -349 124c-89 82 -140 197 -155 345h-110v-449h-338v1082h338v-442z" />
    <glyph glyph-name="uni0466" unicode="&#x466;" horiz-adv-x="1417" 
d="M895 414h-63v-414h-275v414h-52l-133 -414h-371l507 1456h188l3 -4l4 4h188l509 -1456h-370zM576 636h247l-124 383z" />
    <glyph glyph-name="uni0467" unicode="&#x467;" horiz-adv-x="1171" 
d="M728 262h-65v-262h-187v262h-48l-80 -262h-344l392 1082h365l391 -1082h-343zM489 460h178l-54 175l-35 152l-35 -152z" />
    <glyph glyph-name="uni0468" unicode="&#x468;" horiz-adv-x="1976" 
d="M470 634h305l287 822h188l3 -4l4 4h187l510 -1456h-371l-134 414h-63v-414h-275v414h-53l-133 -414h-370l144 414h-229v-414h-350v1456h350v-822zM1129 636h248l-125 385z" />
    <glyph glyph-name="uni0469" unicode="&#x469;" horiz-adv-x="1681" 
d="M433 459h248l226 623h365l391 -1082h-343l-81 262h-65v-262h-186v262h-49l-80 -262h-344l95 263h-177v-263h-339v1082h339v-623zM1000 460h178l-54 175l-35 152l-35 -152z" />
    <glyph glyph-name="uni046A" unicode="&#x46a;" horiz-adv-x="1797" 
d="M1216 793c168 -10 291 -53 370 -129c79 -75 119 -186 120 -331v-333h-349v327c0 68 -16 117 -48 147c-32 31 -86 46 -161 47h-56v-521h-350v521h-86c-77 0 -132 -15 -164 -43c-34 -30 -51 -77 -52 -142v-336h-349v340c3 149 47 261 133 336c85 75 219 115 401 119
l-368 661h1328zM921 867l152 314h-304z" />
    <glyph glyph-name="uni046B" unicode="&#x46b;" horiz-adv-x="1493" 
d="M1038 609c123 -17 215 -60 274 -129c59 -68 89 -163 90 -285v-195h-337v192c0 62 -11 107 -33 136s-59 44 -112 45v-373h-337v373c-55 0 -95 -13 -119 -41c-24 -26 -36 -71 -37 -134v-198h-337v202c2 122 34 217 94 284c62 67 157 109 286 125l-273 471h1115zM754 643
l105 237h-210z" />
    <glyph glyph-name="uni046C" unicode="&#x46c;" horiz-adv-x="2408" 
d="M704 0v327c0 77 12 147 35 208h-255v-535h-350v1456h350v-657h751l-365 657h1328l-368 -663c166 -10 288 -53 368 -127c78 -76 119 -185 121 -328v-338h-349v327c0 68 -16 117 -48 148c-33 31 -88 46 -165 46h-52v-521h-350v521h-86c-77 0 -131 -15 -165 -43
c-32 -30 -50 -77 -51 -142v-336h-349zM1534 867l152 314h-304z" />
    <glyph glyph-name="uni046D" unicode="&#x46d;" horiz-adv-x="2080" 
d="M676 0v190c0 75 11 139 32 194h-246v-384h-339v1082h339v-465h590l-269 465h1114l-274 -473c124 -17 216 -60 275 -129c59 -68 89 -163 90 -285v-195h-337v192c0 62 -11 107 -33 136s-59 44 -112 45v-373h-337v373c-55 0 -95 -13 -119 -41c-24 -26 -36 -71 -37 -134v-198
h-337zM1340 643l105 237h-210z" />
    <glyph glyph-name="uni046E" unicode="&#x46e;" horiz-adv-x="1047" 
d="M560 1043c0 92 -63 140 -188 143h-254v270h248c179 -1 313 -34 401 -96c88 -64 132 -156 132 -278c0 -165 -74 -277 -223 -337c186 -59 279 -171 279 -337c0 -133 -46 -237 -139 -314c-92 -77 -221 -115 -387 -115h-55c-66 0 -99 -30 -99 -89c0 -53 35 -97 106 -131
l31 -14l-83 -193c-115 19 -203 61 -264 126s-92 153 -93 264c0 99 32 175 94 228c64 53 154 80 271 80h74c65 0 116 14 152 43s54 66 54 111c0 137 -86 205 -258 205h-136v271h145c128 0 192 54 192 163zM466 1794l147 134h287v-11l-326 -283h-217l-328 285v9h290z" />
    <glyph glyph-name="uni046F" unicode="&#x46f;" horiz-adv-x="1056" 
d="M543 752c0 65 -58 98 -173 101h-252v229h258c171 -2 297 -28 380 -78c83 -49 124 -121 124 -214c0 -117 -57 -201 -172 -250c153 -45 229 -123 229 -236c0 -101 -43 -181 -129 -238c-87 -58 -205 -87 -355 -87h-50c-77 -1 -116 -31 -116 -89c0 -59 38 -108 113 -145
l-82 -172c-96 28 -172 75 -228 141c-55 65 -84 141 -85 228c0 86 28 152 84 198c56 45 135 68 238 68h61c67 0 119 10 156 32c37 20 56 47 56 80c0 82 -73 123 -219 123h-158v187h178c51 0 88 12 109 35c22 23 33 52 33 87zM475 1391l147 134h287v-11l-326 -283h-217
l-328 285v9h290z" />
    <glyph glyph-name="uni0470" unicode="&#x470;" horiz-adv-x="1527" 
d="M952 675c66 13 114 46 144 100c31 54 46 134 46 241v440h352v-449c-2 -175 -50 -316 -146 -421c-94 -105 -227 -167 -396 -184v-402h-350v400c-179 14 -318 74 -417 182c-99 106 -149 250 -150 429v445h351v-458c4 -185 76 -292 216 -322v780h350v-781z" />
    <glyph glyph-name="uni0471" unicode="&#x471;" horiz-adv-x="1569" 
d="M945 1082v-823c76 21 133 60 171 115s57 133 57 233c-2 141 -35 299 -100 475h301c91 -141 136 -300 136 -475c0 -177 -49 -319 -146 -425c-98 -106 -238 -170 -419 -193v-467h-337v469c-178 23 -314 83 -408 183c-94 98 -142 234 -143 405v503h338v-507
c2 -169 73 -274 213 -315v822h337z" />
    <glyph glyph-name="uni0472" unicode="&#x472;" horiz-adv-x="1416" 
d="M1358 698c0 -143 -26 -268 -79 -378c-53 -108 -127 -192 -224 -252c-97 -58 -207 -88 -332 -88c-124 0 -234 29 -330 86s-171 139 -225 246c-53 107 -81 229 -83 368v77c0 143 26 269 79 378c52 109 126 193 224 252c96 59 208 89 333 89c123 0 234 -30 331 -88
c97 -60 172 -143 226 -251c52 -108 79 -232 80 -373v-66zM723 254c83 0 149 33 197 100c47 66 74 162 80 287h-557c6 -125 32 -221 79 -287c47 -67 114 -100 201 -100zM721 1201c-170 0 -262 -123 -277 -369h555c-8 121 -36 213 -83 276c-48 62 -113 93 -195 93z" />
    <glyph glyph-name="uni0473" unicode="&#x473;" horiz-adv-x="1151" 
d="M50 551c0 108 21 204 63 289c42 84 102 149 181 194c78 45 170 68 277 68c162 0 290 -50 383 -150c93 -101 140 -237 140 -410v-12c0 -169 -47 -302 -140 -402c-94 -98 -221 -148 -381 -148c-155 0 -279 46 -371 138c-94 93 -144 218 -151 376zM571 842
c-104 0 -164 -71 -180 -212h362c-16 141 -77 212 -182 212zM573 240c101 0 161 66 179 199h-360c18 -133 78 -199 181 -199z" />
    <glyph glyph-name="uni0474" unicode="&#x474;" horiz-adv-x="1327" 
d="M659 395l10 -56l10 51l185 711c41 129 94 224 161 283c67 60 150 90 251 90l35 -1l-4 -278h-36c-26 0 -49 -11 -71 -32c-20 -21 -34 -46 -40 -75l-300 -1088h-381l-473 1456h368z" />
    <glyph glyph-name="uni0475" unicode="&#x475;" horiz-adv-x="1053" 
d="M500 333l19 113l63 291c37 127 87 219 150 278c64 59 144 88 240 88c43 0 76 -5 100 -16l-25 -256l-56 3c-26 0 -50 -10 -71 -31c-22 -21 -37 -47 -44 -79l-201 -724h-343l-332 1082h356l123 -631z" />
    <glyph glyph-name="uni0476" unicode="&#x476;" horiz-adv-x="1327" 
d="M659 395l10 -56l10 51l185 711c41 129 94 224 161 283c67 60 150 90 251 90l35 -1l-4 -278h-36c-26 0 -49 -11 -71 -32c-20 -21 -34 -46 -40 -75l-300 -1088h-381l-473 1456h368zM622 1562h-271l-284 266h310zM1002 1562h-274l-245 266h312z" />
    <glyph glyph-name="uni0477" unicode="&#x477;" horiz-adv-x="1053" 
d="M500 333l19 113l63 291c37 127 87 219 150 278c64 59 144 88 240 88c43 0 76 -5 100 -16l-25 -256l-56 3c-26 0 -50 -10 -71 -31c-22 -21 -37 -47 -44 -79l-201 -724h-343l-332 1082h356l123 -631zM526 1252h-271l-284 266h310zM906 1252h-274l-245 266h312z" />
    <glyph glyph-name="uni0478" unicode="&#x478;" horiz-adv-x="2475" 
d="M1343 698c0 -142 -26 -268 -79 -377s-128 -193 -224 -253c-98 -58 -208 -88 -332 -88s-234 28 -330 86c-96 56 -171 138 -224 244c-54 106 -82 228 -85 365v82c0 143 26 269 79 377c52 110 127 194 224 253c98 59 209 89 334 89c123 0 233 -29 330 -88s172 -142 226 -250
c53 -109 80 -233 81 -373v-67zM986 759c0 145 -24 255 -72 329c-49 76 -118 113 -208 113c-176 0 -269 -132 -279 -396l-1 -107c0 -143 24 -252 71 -329s118 -115 211 -115c89 0 157 38 205 113s72 184 73 325v67zM1941 472l180 610h361l-441 -1263l-19 -46
c-63 -140 -173 -210 -332 -210c-44 0 -90 7 -139 20v241h44c47 0 83 7 109 20c24 14 43 39 55 74l27 72l-376 1092h360z" />
    <glyph glyph-name="uni0479" unicode="&#x479;" horiz-adv-x="2211" 
d="M52 551c0 108 21 204 63 289c42 84 102 149 181 194s171 68 277 68c162 0 290 -50 383 -150c93 -101 140 -237 140 -410v-12c0 -169 -47 -302 -140 -402c-94 -98 -221 -148 -381 -148c-154 0 -278 46 -371 138c-93 93 -144 218 -151 376zM389 530c0 -100 16 -173 47 -220
s78 -70 139 -70c120 0 181 92 184 277v34c0 194 -62 291 -186 291c-113 0 -174 -84 -183 -251zM1677 472l180 610h361l-441 -1263l-19 -46c-63 -140 -173 -210 -332 -210c-44 0 -90 7 -139 20v241h44c47 0 83 7 109 20c24 14 43 39 55 74l27 72l-376 1092h360z" />
    <glyph glyph-name="uni047A" unicode="&#x47a;" horiz-adv-x="1416" 
d="M1358 698c0 -131 -22 -248 -68 -352c-44 -103 -109 -186 -192 -248c-84 -63 -181 -100 -292 -113v-118h-193v121c-161 25 -289 100 -385 226c-94 126 -142 287 -143 482v61c0 196 47 357 143 483c94 127 222 202 382 227v104h193v-100c168 -19 302 -93 403 -220
c100 -127 151 -290 152 -488v-65zM1002 759c0 121 -17 217 -51 289s-83 119 -148 140v-104h-193v94c-108 -51 -164 -183 -168 -396v-84c0 -226 57 -366 171 -421v87h193v-97c63 22 112 69 146 142c33 73 50 169 50 289v61z" />
    <glyph glyph-name="uni047B" unicode="&#x47b;" horiz-adv-x="1151" 
d="M52 551c0 154 40 280 122 379c80 98 191 154 331 168v105h148v-106c138 -17 246 -74 325 -171s118 -224 118 -381v-15c0 -155 -40 -282 -121 -379s-191 -153 -330 -167v-110h-148v111c-137 15 -244 71 -323 167c-79 95 -119 217 -122 365v34zM645 253
c73 30 111 117 114 260v38c0 147 -35 238 -106 273v-98h-148v103c-75 -31 -113 -118 -116 -261v-38c0 -148 36 -239 108 -274v115h148v-118z" />
    </font>
</defs>
</svg>
